<svg width="36" height="36" viewBox="0 0 36 36" fill="none" xmlns="http://www.w3.org/2000/svg">
<path d="M1.21875 23.2773L5.59375 31.0938C5.86719 31.6035 6.52344 32 7.125 32C7.34375 32 7.72656 31.9434 8 31.7734L13.6328 28.375H21.125C23.0391 28.375 24.5703 26.7891 24.625 24.75H25.5C26.4297 24.75 27.25 23.957 27.25 22.9375V19.3125H27.6875C28.3984 19.3125 29 18.7461 29 18.0098V15.2344C29 14.498 28.3984 13.875 27.6875 13.875H19.3203V17.0469C19.3203 19.3125 17.5703 21.125 15.3828 21.125C13.25 21.125 11.4453 19.3125 11.4453 17.0469V10.1934L7.94531 12.4023C6.96094 12.9688 6.25 14.3848 6.25 15.5176V18.1797L1.875 20.7852C1.38281 21.0684 1 21.8047 1 22.3711C1 22.6543 1.05469 23.0508 1.21875 23.2773Z" fill="#1FA5EA"/>
<path d="M13.25 17.0469C13.25 18.3496 14.1797 19.3125 15.4375 19.3125C16.6406 19.3125 17.625 18.3496 17.625 17.0469V12.0625H27.6875C29.3281 12.0625 30.75 13.5352 30.75 15.2344V16.877L35.125 14.2715C35.5625 13.9883 36 13.252 36 12.6855C36 12.4023 35.8906 12.0059 35.7266 11.7793L31.3516 3.90625C31.0781 3.45312 30.4219 3 29.875 3C29.6016 3 29.2187 3.11328 29 3.2832L23.3125 6.625H17.7344C17.1875 6.68164 16.3672 6.9082 15.875 7.19141L14.0703 8.38086C13.5781 8.66406 13.25 9.34375 13.25 9.91016V17.0469Z" fill="#1FA5EA"/>
</svg>
