<svg width="36" height="36" viewBox="0 0 36 36" fill="none" xmlns="http://www.w3.org/2000/svg">
<path d="M13.5516 18.3643C13.635 18.7807 13.4891 19.1347 13.1139 19.4262C12.7387 19.676 12.3635 19.676 11.9883 19.4262L9.48694 17.8647L6.29774 22.9239C5.88086 23.5901 5.86001 24.2772 6.23521 24.985C6.61041 25.6513 7.19406 25.9844 7.98614 25.9844H11.2379C11.7381 25.9844 11.9883 26.2342 11.9883 26.7339V29.2323C11.9883 29.7319 11.7381 29.9818 11.2379 29.9818H7.98614C6.48534 29.9818 5.17214 29.4821 4.04654 28.4828C2.92095 27.4834 2.25392 26.3175 2.04548 24.985C1.87872 23.6109 2.17055 22.216 2.92095 20.8003L6.11014 15.7411L3.54628 14.1171C3.17108 13.9089 3.00432 13.5966 3.04601 13.1802C3.12939 12.7222 3.40037 12.4307 3.85894 12.3058L10.7376 10.7443C10.9877 10.661 11.2379 10.7027 11.488 10.8692C11.7381 10.9941 11.8841 11.2023 11.9257 11.4938L13.5516 18.3643ZM19.6799 6.93429C19.3047 6.30969 18.7419 5.9974 17.9915 5.9974C17.2411 5.9974 16.6783 6.30969 16.3031 6.93429L15.1775 8.74561C14.9273 9.162 14.573 9.24528 14.1144 8.99545L11.9883 7.62134C11.5714 7.3715 11.5089 7.03839 11.8007 6.62199L12.9263 4.81067C14.0936 2.93689 15.782 2 17.9915 2C20.201 2 21.8894 2.93689 23.0567 4.81067L25.6831 8.93299L28.1844 7.3715C28.5596 7.12167 28.9348 7.14249 29.31 7.43396C29.6852 7.6838 29.8103 8.01692 29.6852 8.43331L28.1219 15.3038C28.0385 15.5953 27.8717 15.8243 27.6216 15.9909C27.4132 16.1158 27.1839 16.1366 26.9337 16.0534L20.0551 14.4919C19.5965 14.3669 19.3255 14.0963 19.2421 13.6799C19.2005 13.2219 19.3672 12.8887 19.7424 12.6805L22.2437 11.0566L19.6799 6.93429ZM33.062 20.8003C33.6873 21.758 34 22.799 34 23.9232C34 25.0059 33.7499 26.0052 33.2496 26.9213C32.7493 27.7957 32.0198 28.5244 31.0609 29.1074C30.1438 29.6903 29.1224 29.9818 27.9968 29.9818H21.9936V32.9798C21.9936 33.4379 21.7852 33.7502 21.3683 33.9167C20.9514 34.0833 20.597 34 20.3052 33.6669L15.3025 28.6701C14.8023 28.2121 14.8023 27.7541 15.3025 27.296L20.3052 22.2993C20.597 21.9662 20.9514 21.8829 21.3683 22.0494C21.7852 22.216 21.9936 22.5283 21.9936 22.9863V25.9844H27.9968C28.7889 25.9844 29.3725 25.6513 29.7477 24.985C30.1229 24.2772 30.1021 23.5901 29.6852 22.9239L27.9968 20.1757C27.705 19.7593 27.7675 19.4053 28.1844 19.1139L30.3105 17.8022C30.7274 17.5524 31.0818 17.6357 31.3736 18.052L33.062 20.8003Z" fill="#1FA5EA"/>
</svg>
