<svg width="14" height="9" viewBox="0 0 14 9" fill="none" xmlns="http://www.w3.org/2000/svg">
<path d="M12.8906 1.40625C12.9375 1.59375 12.9766 1.82812 13.0078 2.10938C13.0547 2.39062 13.0859 2.67188 13.1016 2.95312C13.1172 3.21875 13.125 3.46875 13.125 3.70312C13.1406 3.9375 13.1484 4.13281 13.1484 4.28906V4.5C13.1484 5.90625 13.0625 6.94531 12.8906 7.61719C12.8125 7.88281 12.6719 8.11719 12.4688 8.32031C12.2656 8.52344 12.0234 8.66406 11.7422 8.74219C11.4453 8.82031 10.8828 8.88281 10.0547 8.92969C9.22656 8.96094 8.46875 8.98438 7.78125 9H6.75C4.07812 9 2.41406 8.91406 1.75781 8.74219C1.14844 8.57031 0.765625 8.19531 0.609375 7.61719C0.53125 7.32031 0.46875 6.91406 0.421875 6.39844C0.390625 5.86719 0.367188 5.42188 0.351562 5.0625V4.5C0.351562 3.10938 0.4375 2.07812 0.609375 1.40625C0.6875 1.125 0.828125 0.882813 1.03125 0.679688C1.23438 0.476562 1.47656 0.335937 1.75781 0.257812C2.05469 0.179688 2.61719 0.125 3.44531 0.09375C4.27344 0.046875 5.03125 0.015625 5.71875 0H6.75C9.42188 0 11.0859 0.0859375 11.7422 0.257812C12.0234 0.335937 12.2656 0.476562 12.4688 0.679688C12.6719 0.882813 12.8125 1.125 12.8906 1.40625ZM5.4375 6.42188L8.78906 4.5L5.4375 2.60156V6.42188Z" fill="white"/>
</svg>
