<svg width="12" height="8" viewBox="0 0 12 8" fill="none" xmlns="http://www.w3.org/2000/svg">
<path d="M0.601222 4.56538H9.56578L7.21955 6.91161C6.98493 7.14623 6.98493 7.52261 7.21955 7.75723C7.33686 7.87454 7.48839 7.9332 7.64481 7.9332C7.80122 7.9332 7.95275 7.87454 8.07006 7.75723L11.4379 4.38941C11.6725 4.15479 11.6725 3.77841 11.4379 3.54379L8.07006 0.175967C7.83544 -0.0586558 7.45906 -0.0586558 7.22444 0.175967C6.98982 0.410591 6.98982 0.786965 7.22444 1.02159L9.57067 3.36782H0.601222C0.268839 3.36782 0 3.63666 0 3.96904C0 4.30143 0.268839 4.56538 0.601222 4.56538Z" fill="white"/>
</svg>
