<svg width="14" height="14" viewBox="0 0 14 14" fill="none" xmlns="http://www.w3.org/2000/svg">
<path d="M6.99913 0.145721C3.13425 0.145721 0 3.29222 0 7.17372C0 10.2782 2.0055 12.912 4.788 13.8421C5.138 13.9068 5.26575 13.6898 5.26575 13.5035C5.26575 13.3363 5.25962 12.8945 5.25612 12.3082C3.30925 12.7326 2.898 11.3658 2.898 11.3658C2.58037 10.5538 2.121 10.3377 2.121 10.3377C1.48487 9.90197 2.16825 9.91072 2.16825 9.91072C2.87087 9.9606 3.24013 10.6352 3.24013 10.6352C3.86488 11.7088 4.879 11.3991 5.278 11.2188C5.341 10.7647 5.52212 10.455 5.7225 10.2791C4.1685 10.1015 2.534 9.4986 2.534 6.80622C2.534 6.03885 2.807 5.41147 3.255 4.91972C3.18237 4.7421 2.94263 4.02722 3.32325 3.06035C3.32325 3.06035 3.91125 2.87135 5.24825 3.78047C5.8065 3.62472 6.405 3.54685 7.00088 3.54422C7.595 3.54772 8.19438 3.62472 8.7535 3.78135C10.0896 2.87222 10.6768 3.06122 10.6768 3.06122C11.0582 4.02897 10.8185 4.74297 10.7467 4.9206C11.1956 5.41235 11.466 6.03972 11.466 6.8071C11.466 9.50647 9.82975 10.1006 8.2705 10.2747C8.52162 10.4917 8.74562 10.9205 8.74562 11.5758C8.74562 12.5156 8.73687 13.2733 8.73687 13.5035C8.73687 13.6916 8.86287 13.9103 9.21812 13.8412C11.9963 12.9102 14 10.2773 14 7.17372C14 3.29222 10.8658 0.145721 6.99913 0.145721Z" fill="white"/>
</svg>
