<svg width="11" height="11" viewBox="0 0 11 11" fill="none" xmlns="http://www.w3.org/2000/svg">
<path d="M2.34375 11H0.164062V3.99219H2.34375V11ZM1.26562 3.03125C0.921875 3.03125 0.625 2.90625 0.375 2.65625C0.125 2.40625 0 2.10938 0 1.76562C0 1.42187 0.125 1.125 0.375 0.875C0.625 0.625 0.921875 0.5 1.26562 0.5C1.60938 0.5 1.90625 0.625 2.15625 0.875C2.40625 1.125 2.53125 1.42187 2.53125 1.76562C2.53125 1.98437 2.46875 2.19531 2.34375 2.39844C2.23438 2.58594 2.07812 2.74219 1.875 2.86719C1.6875 2.97656 1.48438 3.03125 1.26562 3.03125ZM10.5 11H8.32031V7.57812C8.32031 7.3125 8.3125 7.10156 8.29688 6.94531C8.28125 6.77344 8.24219 6.58594 8.17969 6.38281C8.11719 6.16406 8 6 7.82812 5.89062C7.67188 5.78125 7.46094 5.72656 7.19531 5.72656C6.67969 5.72656 6.32812 5.89062 6.14062 6.21875C5.96875 6.54688 5.88281 6.98438 5.88281 7.53125V11H3.70312V3.99219H5.8125V4.95312H5.83594C5.99219 4.64062 6.25 4.375 6.60938 4.15625C6.96875 3.92188 7.39844 3.80469 7.89844 3.80469C8.42969 3.80469 8.86719 3.89062 9.21094 4.0625C9.57031 4.21875 9.83594 4.46094 10.0078 4.78906C10.1953 5.10156 10.3203 5.44531 10.3828 5.82031C10.4609 6.19531 10.5 6.64062 10.5 7.15625V11Z" fill="white"/>
</svg>
