<svg width="14" height="16" viewBox="0 0 14 16" fill="none" xmlns="http://www.w3.org/2000/svg">
<path d="M8.46678 6.71289C8.01104 6.71289 7.65124 7.10825 7.65124 7.60043C7.65124 8.09262 8.01903 8.48798 8.46678 8.48798C8.92252 8.48798 9.28231 8.09262 9.28231 7.60043C9.28231 7.10825 8.91452 6.71289 8.46678 6.71289ZM5.54844 6.71289C5.0927 6.71289 4.73291 7.10825 4.73291 7.60043C4.73291 8.09262 5.1007 8.48798 5.54844 8.48798C6.00418 8.48798 6.36398 8.09262 6.36398 7.60043C6.37197 7.10825 6.00418 6.71289 5.54844 6.71289Z" fill="white"/>
<path d="M12.3525 0H1.63857C0.735091 0 -0.000488281 0.74231 -0.000488281 1.65406V12.466C-0.000488281 13.3777 0.735091 14.12 1.63857 14.12H10.7054L10.2816 12.6435L11.305 13.5956L12.2725 14.4912L13.9995 16V1.65406C13.9915 0.74231 13.2559 0 12.3525 0ZM9.26622 10.4488C9.26622 10.4488 8.97838 10.1019 8.73852 9.80333C9.78592 9.50479 10.1857 8.85123 10.1857 8.85123C9.85788 9.06909 9.54606 9.22239 9.26622 9.32728C8.86644 9.49672 8.48266 9.60161 8.10688 9.67423C7.33932 9.81946 6.63572 9.77912 6.03606 9.66616C5.58032 9.57741 5.18855 9.45638 4.86073 9.31921C4.67684 9.2466 4.47695 9.15784 4.27707 9.04488C4.25308 9.02874 4.22909 9.02067 4.20511 9.00454C4.18912 8.99647 4.18112 8.9884 4.17313 8.9884C4.02921 8.90771 3.94925 8.85123 3.94925 8.85123C3.94925 8.85123 4.33304 9.48865 5.34845 9.79526C5.10859 10.1019 4.81276 10.4569 4.81276 10.4569C3.04577 10.4004 2.37415 9.23853 2.37415 9.23853C2.37415 6.66465 3.5255 4.57489 3.5255 4.57489C4.67684 3.71155 5.76422 3.73575 5.76422 3.73575L5.84417 3.83258C4.40499 4.24407 3.74937 4.88149 3.74937 4.88149C3.74937 4.88149 3.92527 4.78467 4.2211 4.65557C5.07661 4.27635 5.75622 4.17953 6.03606 4.14725C6.08403 4.13918 6.12401 4.13111 6.17198 4.13111C6.65971 4.06657 7.21139 4.05043 7.78706 4.11498C8.54663 4.20373 9.36216 4.42965 10.1937 4.88149C10.1937 4.88149 9.56205 4.27635 8.20282 3.86485L8.31476 3.73575C8.31476 3.73575 9.41013 3.71155 10.5535 4.57489C10.5535 4.57489 11.7048 6.66465 11.7048 9.23853C11.7048 9.23046 11.0332 10.3923 9.26622 10.4488Z" fill="white"/>
</svg>
