<svg width="16" height="17" viewBox="0 0 16 17" fill="none" xmlns="http://www.w3.org/2000/svg">
<circle cx="8" cy="8.5" r="8" fill="#0089CF"/>
<path d="M8 12.5C7.7415 12.5 7.52381 12.4288 7.34694 12.2864C7.17687 12.1368 7.09184 11.9161 7.09184 11.6242V7.94993C7.09184 7.65799 7.17687 7.44081 7.34694 7.2984C7.52381 7.14886 7.7415 7.0741 8 7.0741C8.2585 7.0741 8.47279 7.14886 8.64286 7.2984C8.81973 7.44081 8.90816 7.65799 8.90816 7.94993V11.6242C8.90816 11.9161 8.81973 12.1368 8.64286 12.2864C8.47279 12.4288 8.2585 12.5 8 12.5ZM8 6.32644C7.69388 6.32644 7.44898 6.24455 7.26531 6.08077C7.08844 5.90988 7 5.68558 7 5.40788C7 5.13017 7.08844 4.90943 7.26531 4.74566C7.44898 4.58189 7.69388 4.5 8 4.5C8.29932 4.5 8.54082 4.58189 8.72449 4.74566C8.90816 4.90943 9 5.13017 9 5.40788C9 5.68558 8.90816 5.90988 8.72449 6.08077C8.54762 6.24455 8.30612 6.32644 8 6.32644Z" fill="white"/>
</svg>
