<svg width="12" height="11" viewBox="0 0 12 11" fill="none" xmlns="http://www.w3.org/2000/svg">
<path d="M10.7578 3.0625C10.7734 3.125 10.7812 3.22656 10.7812 3.36719C10.7812 4.19531 10.625 5.02344 10.3125 5.85156C10 6.66406 9.55469 7.41406 8.97656 8.10156C8.41406 8.77344 7.67969 9.32031 6.77344 9.74219C5.86719 10.1641 4.86719 10.375 3.77344 10.375C2.39844 10.375 1.14062 10.0078 0 9.27344C0.171875 9.28906 0.367188 9.29688 0.585938 9.29688C1.72656 9.29688 2.75 8.94531 3.65625 8.24219C3.10938 8.24219 2.625 8.08594 2.20312 7.77344C1.79688 7.44531 1.51562 7.03906 1.35938 6.55469C1.51562 6.57031 1.66406 6.57812 1.80469 6.57812C2.02344 6.57812 2.24219 6.55469 2.46094 6.50781C2.08594 6.42969 1.75 6.27344 1.45312 6.03906C1.15625 5.80469 0.921875 5.52344 0.75 5.19531C0.578125 4.85156 0.492188 4.48438 0.492188 4.09375V4.04688C0.835938 4.25 1.20312 4.35938 1.59375 4.375C0.859375 3.875 0.492188 3.1875 0.492188 2.3125C0.492188 1.875 0.609375 1.46094 0.84375 1.07031C1.45312 1.83594 2.19531 2.44531 3.07031 2.89844C3.96094 3.35156 4.90625 3.60156 5.90625 3.64844C5.875 3.46094 5.85938 3.27344 5.85938 3.08594C5.85938 2.41406 6.09375 1.83594 6.5625 1.35156C7.04688 0.867187 7.625 0.625 8.29688 0.625C9.01562 0.625 9.61719 0.882812 10.1016 1.39844C10.6641 1.28906 11.1875 1.09375 11.6719 0.8125C11.4844 1.39063 11.125 1.84375 10.5938 2.17188C11.0625 2.10938 11.5312 1.97656 12 1.77344C11.6562 2.27344 11.2422 2.70312 10.7578 3.0625Z" fill="white"/>
</svg>
