<svg width="16" height="16" viewBox="0 0 16 16" fill="none" xmlns="http://www.w3.org/2000/svg">
<path d="M10.606 8.082L16 11.492V4.528L10.606 8.082Z" fill="#5A6C81"/>
<path d="M0 4.528V11.492L5.394 8.082L0 4.528Z" fill="#5A6C81"/>
<path d="M15 2.5H1.00003C0.501029 2.5 0.105029 2.872 0.0300293 3.351L8.00003 8.602L15.97 3.351C15.895 2.872 15.499 2.5 15 2.5Z" fill="#5A6C81"/>
<path d="M9.68999 8.686L8.27499 9.618C8.19099 9.673 8.09599 9.7 7.99999 9.7C7.90399 9.7 7.80899 9.673 7.72499 9.618L6.30999 8.685L0.0319824 12.656C0.108982 13.131 0.502983 13.5 0.999983 13.5H15C15.497 13.5 15.891 13.131 15.968 12.656L9.68999 8.686Z" fill="#5A6C81"/>
</svg>
