<svg width="16" height="16" viewBox="0 0 16 16" fill="none" xmlns="http://www.w3.org/2000/svg">
<path fill-rule="evenodd" clip-rule="evenodd" d="M8 16C12.4183 16 16 12.4183 16 8C16 3.58172 12.4183 0 8 0C3.58172 0 0 3.58172 0 8C0 12.4183 3.58172 16 8 16ZM11.197 4.803C11.4899 5.0959 11.4899 5.57077 11.197 5.86366L9.06066 8L11.197 10.1363C11.4899 10.4292 11.4899 10.9041 11.197 11.197C10.9041 11.4899 10.4292 11.4899 10.1363 11.197L8 9.06066L5.86366 11.197C5.57077 11.4899 5.0959 11.4899 4.803 11.197C4.51011 10.9041 4.51011 10.4292 4.803 10.1363L6.93934 8L4.803 5.86366C4.51011 5.57077 4.51011 5.0959 4.803 4.803C5.0959 4.51011 5.57077 4.51011 5.86366 4.803L8 6.93934L10.1363 4.803C10.4292 4.51011 10.9041 4.51011 11.197 4.803Z" fill="#828282"/>
</svg>
