<svg width="16" height="16" viewBox="0 0 16 16" fill="none" xmlns="http://www.w3.org/2000/svg">
<path fill-rule="evenodd" clip-rule="evenodd" d="M8 16C12.4183 16 16 12.4183 16 8C16 3.58172 12.4183 0 8 0C3.58172 0 0 3.58172 0 8C0 12.4183 3.58172 16 8 16ZM12.5202 5.87357C12.8186 5.58626 12.8276 5.11147 12.5402 4.8131C12.2529 4.51474 11.7781 4.50578 11.4798 4.79309L6.46154 9.62546L4.52023 7.75606C4.22186 7.46874 3.74708 7.4777 3.45976 7.77606C3.17244 8.07443 3.1814 8.54922 3.47977 8.83654L5.94131 11.2069L6.46154 11.7079L6.98177 11.2069L12.5202 5.87357Z" fill="#6AC259"/>
</svg>
