<?xml version="1.0" standalone="no"?>
<!DOCTYPE svg PUBLIC "-//W3C//DTD SVG 1.1//EN" "http://www.w3.org/Graphics/SVG/1.1/DTD/svg11.dtd" >
<svg xmlns="http://www.w3.org/2000/svg">
<metadata>Generated by IcoMoon</metadata>
<defs>
<font id="icomoon" horiz-adv-x="1024">
<font-face units-per-em="1024" ascent="960" descent="-64" />
<missing-glyph horiz-adv-x="1024" />
<glyph unicode="&#x20;" horiz-adv-x="512" d="" />
<glyph unicode="&#xe900;" d="M1024 448c0-282.77-229.23-512-512-512s-512 229.23-512 512c0 282.77 229.23 512 512 512s512-229.23 512-512z" />
<glyph unicode="&#xe901;" glyph-name="icon-card-view" d="M365.714 838.095v-243.81h-243.81v243.81h243.81zM365.714 301.714v-243.81h-243.81v243.81h243.81zM902.095 838.095h-243.81v-243.81h243.81v243.81zM902.095 301.714v-243.81h-243.81v243.81h243.81zM24.381 935.619v-438.857h438.857v438.857h-438.857zM24.381 399.238v-438.857h438.857v438.857h-438.857zM999.619 935.619v-438.857h-438.857v438.857h438.857zM560.762 399.238v-438.857h438.857v438.857h-438.857z" />
<glyph unicode="&#xe902;" glyph-name="icon-footer-envelope" d="M512.002 301.731l-126.684 110.884-362.203-310.491c13.166-12.217 30.939-19.818 50.542-19.818h876.694c19.527 0 37.226 7.601 50.318 19.818l-361.983 310.491-126.683-110.884zM1000.897 793.871c-13.162 12.288-30.87 19.821-50.538 19.821h-876.694c-19.529 0-37.23-7.607-50.395-19.968l488.74-418.889 488.888 419.036zM0 749.462v-607.669l353.5 300.396-353.5 307.273zM670.5 442.199l353.5-300.399v607.892l-353.5-307.493z" />
<glyph unicode="&#xe903;" glyph-name="icon-twitter" d="M917.999 656c1.331-5.333 1.997-14 1.997-26 0-70.666-13.329-141.333-39.996-212-26.667-69.333-64.666-133.333-114-192-48-57.334-110.666-104-188-140-77.333-36.003-162.667-54-256-54-117.333 0-224.667 31.334-322 94 14.667-1.333 31.333-2 50-2 97.333 0 184.667 30.001 262 90-46.666 0-88 13.333-124 40-34.666 28-58.667 62.667-71.999 104 13.332-1.333 25.999-1.999 38-1.999 18.667 0 37.333 1.999 56 6-32 6.666-60.667 20-86.001 40s-45.333 44-60 72c-14.667 29.333-22 60.666-22 94v4c29.333-17.333 60.666-26.667 94-28-62.667 42.667-94 101.333-94 176 0 37.333 10 72.666 30 106 52-65.334 115.333-117.333 190-156 76-38.666 156.667-60 242-64-2.667 16-4 32-4 48 0 57.334 20 106.667 60 148 41.334 41.333 90.667 62 148 62 61.332 0 112.666-22 154.003-66 48 9.334 92.663 26 133.999 50-16-49.334-46.669-88-91.998-116 39.996 5.333 79.991 16.667 119.996 34-29.338-42.667-64.666-79.333-106.001-110z" />
<glyph unicode="&#xe904;" glyph-name="icon-youtube" d="M942.855 674.286c3.43-13.714 6.29-30.857 8.572-51.429 3.43-20.571 5.712-41.143 6.861-61.714 1.141-19.429 1.712-37.715 1.712-54.857 1.141-17.143 1.712-31.429 1.712-42.857v-15.429c0-102.857-6.283-178.857-18.856-228-5.712-19.428-15.996-36.571-30.852-51.428-14.863-14.858-32.578-25.143-53.146-30.858-21.716-5.714-62.859-10.285-123.429-13.714-60.573-2.286-116.001-4-166.287-5.143h-75.429c-195.429 0-317.143 6.286-365.143 18.857-44.571 12.572-72.571 40-84 82.286-5.714 21.715-10.286 51.429-13.714 89.143-2.286 38.857-4 71.428-5.143 97.714v41.143c0 101.714 6.286 177.143 18.857 226.286 5.714 20.571 16 38.286 30.857 53.143s32.571 25.143 53.143 30.857c21.715 5.714 62.858 9.714 123.429 12 60.572 3.429 116 5.714 166.286 6.857h75.429c195.429 0 317.14-6.286 365.144-18.857 20.568-5.714 38.283-16 53.146-30.857 14.855-14.857 25.139-32.571 30.852-53.143zM397.714 307.428l245.143 140.572-245.143 138.857v-279.429z" />
<glyph unicode="&#xe905;" d="M756.698 627.616c15.482-16.081 15.002-41.672-1.082-57.158l-326.531-314.458-160.701 154.76c-16.081 15.486-16.563 41.076-1.078 57.158s41.073 16.564 57.154 1.078l104.626-100.758 270.454 260.456c16.083 15.485 41.67 15.003 57.158-1.078z" />
<glyph unicode="&#xe906;" d="M1024 448c0-282.77-229.23-512-512-512s-512 229.23-512 512c0 282.77 229.23 512 512 512s512-229.23 512-512z" />
<glyph unicode="&#xe907;" glyph-name="icon-arrow-right-long" d="M1003.088 424.389c13.040 13.040 13.040 34.182 0 47.222l-212.498 212.501c-13.040 13.040-34.184 13.040-47.224 0s-13.040-34.182 0-47.222l188.888-188.89-188.888-188.888c-13.040-13.040-13.040-34.184 0-47.224s34.184-13.040 47.224 0l212.498 212.501zM0 414.609h979.478v66.783h-979.478v-66.783z" />
<glyph unicode="&#xe908;" glyph-name="icon-envelope" d="M678.784 442.752l345.216-218.24v445.696l-345.216-227.456zM0 670.208v-445.696l345.216 218.24-345.216 227.456zM960 800h-895.998c-31.936 0-57.28-23.808-62.080-54.464l510.080-336.064 510.078 336.064c-4.8 30.656-30.144 54.464-62.080 54.464zM620.159 404.096l-90.56-59.648c-5.376-3.52-11.456-5.248-17.6-5.248s-12.224 1.728-17.6 5.248l-90.56 59.712-401.792-254.144c4.928-30.4 30.144-54.016 61.952-54.016h896.001c31.808 0 57.024 23.616 61.952 54.016l-401.793 254.080z" />
<glyph unicode="&#xe909;" glyph-name="icon-arrow-right" d="M51.304 399.754h764.976l-200.212-200.212c-20.021-20.021-20.021-52.139 0-72.16 10.010-10.010 22.941-15.016 36.289-15.016s26.278 5.006 36.288 15.016l287.389 287.387c20.019 20.021 20.019 52.139 0 72.16l-287.389 287.388c-20.021 20.021-52.139 20.021-72.16 0s-20.021-52.138 0-72.16l200.212-200.212h-765.393c-28.363 0-51.304-22.941-51.304-51.304s22.941-50.888 51.304-50.888z" />
<glyph unicode="&#xe90a;" glyph-name="icon-user" d="M770.133 677.617c0-143.215-114.828-258.051-258.145-258.051-143.268 0-258.145 114.836-258.145 258.051s114.877 258.002 258.145 258.002c143.316 0 258.145-114.786 258.145-258.002zM511.988-39.621c-211.511 0-390.095 34.377-390.095 167.014 0 132.681 179.707 165.84 390.095 165.84 211.559 0 390.097-34.377 390.097-167.010 0-132.681-179.708-165.844-390.097-165.844z" />
<glyph unicode="&#xe90b;" glyph-name="icon-github" d="M511.936 949.342c-282.688 0-511.936-230.144-511.936-514.048 0-227.071 146.688-419.714 350.208-487.744 25.6-4.732 34.944 11.14 34.944 24.766 0 12.229-0.448 44.544-0.704 87.428-142.4-31.042-172.48 68.93-172.48 68.93-23.232 59.392-56.832 75.198-56.832 75.198-46.528 31.871 3.456 31.231 3.456 31.231 51.392-3.648 78.4-52.991 78.4-52.991 45.696-78.526 119.872-55.874 149.056-42.686 4.608 33.214 17.856 55.867 32.512 68.732-113.664 12.99-233.216 57.088-233.216 254.016 0 56.128 19.968 102.016 52.736 137.984-5.312 12.992-22.848 65.28 4.992 136 0 0 43.008 13.824 140.8-52.672 40.832 11.392 84.608 17.088 128.192 17.28 43.456-0.256 87.296-5.888 128.192-17.344 97.726 66.496 140.676 52.672 140.676 52.672 27.897-70.784 10.364-123.008 5.113-136 32.834-35.968 52.612-81.856 52.612-137.984 0-197.44-119.68-240.896-233.728-253.63 18.368-15.872 34.752-47.236 34.752-95.166 0-68.74-0.64-124.16-0.64-140.997 0-13.758 9.216-29.755 35.2-24.7 203.204 68.096 349.76 260.674 349.76 487.679 0 283.904-229.244 514.048-512.064 514.048z" />
<glyph unicode="&#xe90c;" glyph-name="icon-shevron" d="M18.476 702.834c26.837 30.055 73.069 32.762 103.261 6.047l390.263-345.321 390.263 345.321c30.191 26.715 76.42 24.008 103.258-6.047s24.12-76.076-6.070-102.791l-487.452-431.316-487.45 431.316c-30.192 26.715-32.912 72.736-6.074 102.791z" />
<glyph unicode="&#xe90d;" d="M512 192c-16.544 0-30.476 4.557-41.796 13.67-10.884 9.574-16.326 23.699-16.326 42.381v235.153c0 18.684 5.442 32.584 16.326 41.698 11.32 9.571 25.252 14.355 41.796 14.355s30.259-4.785 41.143-14.355c11.32-9.114 16.979-23.014 16.979-41.698v-235.153c0-18.682-5.66-32.806-16.979-42.381-10.884-9.114-24.599-13.67-41.143-13.67zM512 587.108c-19.592 0-35.265 5.241-47.020 15.723-11.32 10.937-16.98 25.292-16.98 43.065s5.66 31.901 16.98 42.382c11.755 10.481 27.428 15.722 47.020 15.722 19.156 0 34.612-5.241 46.367-15.722s17.633-24.609 17.633-42.382c0-17.773-5.878-32.128-17.633-43.065-11.32-10.482-26.776-15.723-46.367-15.723z" />
<glyph unicode="&#xe90e;" d="M512-64c282.771 0 512 229.229 512 512s-229.229 512-512 512c-282.77 0-512-229.23-512-512s229.23-512 512-512z" />
<glyph unicode="&#xe90f;" d="M332.344 627.656c16.46 16.459 43.145 16.459 59.604 0l120.052-120.052 120.052 120.052c16.46 16.459 43.142 16.459 59.603 0s16.461-43.145 0-59.604l-120.051-120.052 120.051-120.052c16.461-16.46 16.461-43.142 0-59.603s-43.142-16.461-59.603 0l-120.052 120.051-120.052-120.051c-16.459-16.461-43.144-16.461-59.604 0s-16.459 43.142 0 59.603l120.052 120.052-120.052 120.052c-16.459 16.459-16.459 43.144 0 59.604z" />
<glyph unicode="&#xe910;" glyph-name="icon-discord" horiz-adv-x="896" d="M541.874 530.375c-29.167 0-52.195-25.303-52.195-56.803s23.539-56.803 52.195-56.803c29.167 0 52.194 25.303 52.194 56.803s-23.539 56.803-52.194 56.803zM355.1 530.375c-29.167 0-52.194-25.303-52.194-56.803s23.539-56.803 52.194-56.803c29.167 0 52.195 25.303 52.195 56.803 0.511 31.5-23.027 56.803-52.195 56.803zM790.56 960h-685.692c-57.823 0-104.9-47.508-104.9-105.86v-691.964c0-58.349 47.077-105.856 104.9-105.856h580.277l-27.123 94.496 65.498-60.934 61.92-57.318 110.528-96.563v918.14c-0.512 58.352-47.59 105.86-105.408 105.86zM593.038 291.277c0 0-18.422 22.202-33.773 41.31 67.034 19.107 92.62 60.934 92.62 60.934-20.98-13.943-40.937-23.754-58.847-30.467-25.586-10.844-50.148-17.557-74.198-22.205-49.124-9.295-94.154-6.713-132.532 0.516-29.167 5.68-54.241 13.426-75.221 22.205-11.769 4.647-24.562 10.328-37.354 17.557-1.535 1.033-3.071 1.549-4.605 2.582-1.023 0.516-1.535 1.033-2.047 1.033-9.211 5.164-14.328 8.779-14.328 8.779s24.563-40.795 89.549-60.418c-15.351-19.625-34.284-42.345-34.284-42.345-113.087 3.616-156.071 77.976-156.071 77.976 0 164.728 73.686 298.473 73.686 298.473 73.686 55.254 143.278 53.705 143.278 53.705l5.117-6.197c-92.108-26.335-134.067-67.13-134.067-67.13s11.258 6.196 30.191 14.459c54.753 24.27 98.248 30.467 116.157 32.532 3.070 0.516 5.629 1.033 8.699 1.033 31.215 4.131 66.522 5.164 103.365 1.032 48.612-5.68 100.806-20.139 154.025-49.057 0 0-40.426 38.729-127.416 65.065l7.164 8.262c0 0 70.104 1.549 143.279-53.705 0 0 73.683-133.745 73.683-298.473 0 0.516-42.982-73.841-156.069-77.457z" />
<glyph unicode="&#xe911;" glyph-name="icon-table-view" d="M245.76 775.68v-81.92h-81.92v81.92h81.92zM81.92 857.6v-245.76h245.76v245.76h-245.76zM245.76 488.96v-81.92h-81.92v81.92h81.92zM81.92 570.88v-245.76h245.76v245.76h-245.76zM245.76 161.28v-81.92h-81.92v81.92h81.92zM81.92 243.2v-245.76h245.76v245.76h-245.76zM368.64 775.68h532.48v-81.92h-532.48v81.92zM368.64 488.96h532.48v-81.92h-532.48v81.92zM368.64 161.28h532.48v-81.92h-532.48v81.92z" />
<glyph unicode="&#xe912;" glyph-name="icon-search" d="M1011.488 8.819l-291.2 291.2c56.41 69.672 90.368 158.205 90.368 254.632 0 223.488-181.843 405.334-405.329 405.334s-405.327-181.844-405.327-405.332c0-223.488 181.844-405.334 405.329-405.334 96.425 0 184.958 33.965 254.632 90.368l291.194-291.2c8.32-8.32 19.245-12.499 30.17-12.499s21.843 4.179 30.163 12.499c16.685 16.685 16.685 43.648 0 60.333zM405.329 234.656c-176.468 0-319.996 143.527-319.996 319.997s143.528 320 319.996 320c176.468 0 319.996-143.53 319.996-320s-143.529-319.997-319.996-319.997z" />
<glyph unicode="&#xe913;" glyph-name="icon-linkedin" d="M218.182-64h-202.909v652.363h202.909v-652.363zM117.818 677.818c-32 0-59.636 11.636-82.909 34.909s-34.909 50.909-34.909 82.91c0 32 11.636 59.636 34.909 82.909s50.909 34.909 82.909 34.909c32.001 0 59.637-11.636 82.91-34.909s34.909-50.909 34.909-82.909c0-20.364-5.818-40-17.455-58.91-10.181-17.455-24.728-32-43.636-43.636-17.455-10.181-36.363-15.272-56.728-15.272zM977.455-64h-202.909v318.546c0 24.727-0.727 44.363-2.181 58.909-1.455 16-5.091 33.454-10.909 52.364-5.818 20.364-16.728 35.636-32.728 45.818-14.545 10.181-34.181 15.272-58.909 15.272-48 0-80.728-15.272-98.182-45.818-16-30.546-24-71.273-24-122.182v-322.909h-202.909v652.363h196.364v-89.454h2.182c14.545 29.091 38.545 53.818 72 74.181 33.454 21.818 73.454 32.727 120 32.727 49.455 0 90.182-7.999 122.182-24 33.454-14.545 58.182-37.091 74.18-67.636 17.455-29.091 29.091-61.091 34.909-96 7.27-34.909 10.91-76.363 10.91-124.364v-357.818z" />
<glyph unicode="&#xe914;" glyph-name="icon-quote" horiz-adv-x="1255" d="M477.736 960v-339.76c0-132.129-21.857-253.248-65.572-363.355-40.592-110.108-112.407-217.070-215.45-320.885l-177.979 141.566c121.776 135.275 190.47 268.977 206.081 401.106h-224.816v481.328h477.736zM1255.226 960v-339.76c0-132.129-21.857-253.248-65.572-363.355-40.592-110.108-112.407-217.070-215.448-320.885l-177.979 141.566c121.775 135.275 190.469 268.977 206.082 401.106h-224.818v481.328h477.736z" />
<glyph unicode="&#xe915;" glyph-name="icon-attack-surface-monitoring" d="M1020.573 458.248l-51.2 68.265-27.299-20.484 30.72-40.958h-137.4c-3.831 74.026-33.047 144.471-82.73 199.479l96.21 96.205 4.551-41.542 33.932 3.717-8.433 76.9c-0.869 7.953-7.147 14.236-15.1 15.108l-76.901 8.433-3.734-33.933 41.542-4.555-96.203-96.199c-55.008 49.679-125.451 78.894-199.471 82.723v137.399l40.968-30.718 20.467 27.3-68.267 51.2c-6.062 4.55-14.402 4.55-20.467 0l-68.267-51.2 20.467-27.3 40.966 30.718v-137.399c-74.020-3.831-144.462-33.043-199.47-82.723l-96.205 96.197 41.542 4.557-3.732 33.933-76.901-8.435c-7.953-0.872-14.232-7.155-15.1-15.108l-8.433-76.899 33.933-3.717 4.55 41.542 96.211-96.205c-49.683-55.008-78.899-125.451-82.73-199.479h-137.397l30.718 40.958-27.3 20.484-51.2-68.267c-4.55-6.068-4.55-14.412 0-20.484l51.2-68.267 27.3 20.486-30.718 40.956h137.399c3.831-74.024 33.047-144.469 82.73-199.477l-97.226-97.221-7.236 50.69-33.8-4.834 12.066-84.476c1.080-7.504 6.978-13.401 14.483-14.474l84.467-12.074 4.834 33.783-50.686 7.251 97.231 97.225c55.008-49.679 125.448-78.894 199.47-82.722v-137.4l-40.966 30.716-20.467-27.299 68.267-51.2c6.061-4.557 14.404-4.557 20.467 0l68.267 51.2-20.467 27.299-40.968-30.718v137.4c74.020 3.831 144.464 33.043 199.471 82.722l96.203-96.199-41.542-4.555 3.734-33.932 76.901 8.435c7.953 0.872 14.232 7.157 15.1 15.11l8.433 76.899-33.932 3.717-4.551-41.542-96.21 96.205c49.683 55.008 78.899 125.451 82.73 199.479h137.4l-30.718-40.958 27.299-20.484 51.2 68.267c4.549 6.066 4.549 14.412-0.002 20.482zM511.992 157.872c-160.161 0.18-289.951 129.97-290.131 290.131 0 160.237 129.896 290.133 290.131 290.133 160.237 0 290.133-129.896 290.133-290.133 0-160.235-129.896-290.131-290.133-290.131zM665.632 448.004c0.040-20.16-3.914-40.126-11.632-58.749l31.532-13.067c9.444 22.763 14.281 47.172 14.234 71.817v0.7l-34.133-0.7zM620.673 339.439c-14.239-14.285-31.156-25.615-49.783-33.35l13.1-31.515c22.761 9.44 43.431 23.288 60.818 40.751l-24.134 24.113zM338.381 519.46c-9.347-22.663-14.131-46.943-14.084-71.458v-0.349l34.133 0.349c-0.044 20.053 3.872 39.919 11.514 58.459l-31.564 12.999zM644.288 581.211l-24.066-24.218c14.336-14.186 25.727-31.065 33.517-49.666l31.467 13.2c-9.508 22.727-23.414 43.347-40.918 60.683zM370.167 388.955l-31.499-13.134c9.463-22.744 23.328-43.397 40.799-60.765l24.1 24.166c-14.302 14.215-25.651 31.116-33.399 49.732zM439.696 621.28c-22.738-9.493-43.378-23.381-60.733-40.875l24.201-24.066c14.198 14.315 31.088 25.682 49.7 33.441l-13.168 31.499zM511.998 635.741h-0.516l0.516-34.133c20.002 0.040 39.817-3.851 58.317-11.45l12.967 31.568c-22.613 9.294-46.835 14.057-71.284 14.016zM512.021 294.402c-20.112-0.040-40.033 3.891-58.618 11.577l-13.031-31.551c22.718-9.389 47.066-14.201 71.65-14.158h0.167l-0.167 34.131zM512.044 516.272c-37.702 0-68.267-30.565-68.267-68.267 0.042-37.685 30.582-68.227 68.267-68.267 37.702 0 68.267 30.565 68.267 68.267s-30.565 68.267-68.267 68.267zM512.044 413.872c-18.851 0-34.133 15.28-34.133 34.133 0.023 18.842 15.292 34.112 34.133 34.133 18.853 0 34.133-15.282 34.133-34.133 0-18.853-15.28-34.133-34.133-34.133z" />
<glyph unicode="&#xe916;" glyph-name="icon-discovery" d="M620 579.999c-11.040 0-20-8.96-20-20 0-11.038 8.96-19.998 20-19.998s20 8.96 20 19.998c0 11.040-8.96 20-20 20zM1000.562 72.562l-266.961 266.961c43.492 65.508 66.399 141.367 66.399 220.477 0 220.561-179.441 400.001-399.999 400.001-220.561 0-400.001-179.44-400.001-400.001 0-220.558 179.44-399.999 400.001-399.999 79.112 0 154.971 22.909 220.477 66.397l73.791-73.791c0.009-0.009 0.019-0.021 0.032-0.032l193.136-193.136c15.115-15.113 35.201-23.438 56.563-23.438 21.364 0 41.449 8.325 56.557 23.433 15.117 15.106 23.444 35.193 23.444 56.568 0 21.373-8.327 41.461-23.438 56.561zM611.072 268.546c0-0.002-0.002-0.002-0.004-0.004-61.734-44.84-134.719-68.542-211.067-68.542-198.504 0-360.001 161.496-360.001 359.999s161.497 360.001 360.001 360.001c198.502 0 359.999-161.497 359.999-360.001 0-76.349-23.702-149.333-68.544-211.069-22.433-30.906-49.478-57.953-80.384-80.384zM653.031 250.414c20.7 16.934 39.623 35.857 56.555 56.555l56.741-56.743c-17.256-20.366-36.187-39.299-56.553-56.553l-56.743 56.741zM972.279-12.279c-7.561-7.559-17.603-11.721-28.279-11.721-10.674 0-20.717 4.162-28.278 11.721l-177.59 177.59c20.254 17.383 39.174 36.301 56.555 56.555l177.596-177.596c7.555-7.549 11.717-17.586 11.717-28.27 0-10.686-4.162-20.723-11.721-28.279zM400.001 880c-176.45 0-320.001-143.551-320.001-320.001 0-176.448 143.551-320 320.001-320 176.448 0 320 143.552 320 320 0 176.45-143.552 320.001-320 320.001zM400.001 280c-154.393 0-280.001 125.609-280.001 280 0 154.393 125.608 280.001 280.001 280.001 154.391 0 280-125.608 280-280.001 0-154.391-125.609-280-280-280zM624.13 645.854c-17.222 44.825-47.208 83.149-86.72 110.825-40.452 28.341-87.969 43.321-137.409 43.321-11.044 0-20-8.956-20-20s8.956-20 20-20c82.197 0 157.262-51.636 186.791-128.493 3.057-7.953 10.634-12.832 18.675-12.832 2.384 0 4.809 0.43 7.168 1.335 10.31 3.963 15.459 15.533 11.495 25.845z" />
<glyph unicode="&#xe917;" glyph-name="icon-security-assesments" horiz-adv-x="763" d="M331.579 255.672l-13.375-120.286c-0.663-5.984 1.262-11.99 5.278-16.485 4.018-4.493 9.775-7.060 15.801-7.060h84.817c6.025 0 11.782 2.567 15.799 7.060s5.943 10.499 5.28 16.485l-13.377 120.286c21.722 15.799 34.704 40.792 34.704 68.21 0 46.776-38.039 84.817-84.817 84.817s-84.817-38.041-84.817-84.817c0-27.417 12.984-52.41 34.706-68.21zM381.689 366.29c23.377 0 42.408-19.032 42.408-42.408 0-16.256-9.236-30.811-24.103-38.018-8.097-3.934-12.839-12.508-11.845-21.431l12.26-110.182h-37.437l12.258 110.182c0.994 8.926-3.748 17.497-11.843 21.431-14.868 7.207-24.103 21.763-24.103 38.018-0.002 23.377 19.028 42.408 42.405 42.408zM742.141 578.327h-63.613v84.817c0 163.688-133.167 296.856-296.856 296.856s-296.856-133.168-296.856-296.856v-84.817h-63.612c-11.72 0-21.205-9.484-21.205-21.204v-530.102c0-46.776 38.038-84.815 84.817-84.815h593.714c46.776 0 84.815 38.039 84.815 84.817v530.101c0 11.72-9.484 21.204-21.204 21.204zM127.224 663.144c0 140.31 114.138 254.448 254.449 254.448s254.449-114.138 254.449-254.448v-84.817h-42.408v84.817c0 116.913-95.128 212.041-212.041 212.041s-212.041-95.13-212.041-212.041v-84.817h-42.408v84.817zM551.305 663.144v-84.817h-339.264v84.817c0 93.534 76.098 169.632 169.632 169.632s169.632-76.098 169.632-169.632zM720.939 27.022c0-23.377-19.032-42.407-42.408-42.407h-593.714c-23.377 0-42.407 19.030-42.407 42.407v508.898h678.529v-508.898z" />
<glyph unicode="&#xe918;" glyph-name="icon-threat-intelligence" horiz-adv-x="588" d="M161.343 495.233c-29.181 0-45.675 16.373-60.899 30.229-21.569 21.411-30.45 31.488-27.912 66.755 1.269 16.373 8.881 30.229 21.569 39.045 16.494 10.077 38.062 11.336 58.362 3.779 10.15-3.779 22.837-10.077 39.332-17.634 20.298-8.818 44.406-20.154 69.78-30.229l24.106-8.818-15.225-20.152c-1.269-1.259-22.837-31.488-55.823-46.603-20.3-11.334-38.063-16.373-53.288-16.373zM127.087 601.033c-3.806 0-8.881-1.259-11.419-2.518-1.269-1.261-3.806-2.52-3.806-7.559-1.269-20.152 0-20.152 13.956-34.006 21.569-20.152 31.718-30.229 72.318-11.336 8.88 3.779 16.494 10.077 22.837 16.375-16.494 7.557-31.719 13.854-45.675 20.152-15.225 7.557-27.912 12.595-36.793 16.375-2.537 1.259-7.612 2.518-11.419 2.518zM426.509 495.233c-13.957 0-31.719 3.777-53.288 15.113-31.717 15.115-54.555 45.344-55.823 46.603l-15.225 20.152 24.106 8.818c25.374 10.075 49.48 21.411 69.78 30.229 16.494 7.557 29.182 13.854 39.331 17.632 20.3 7.559 43.137 6.299 58.362-3.777 12.688-8.818 21.568-22.672 21.568-39.047 2.537-35.265-6.343-45.342-25.374-64.235-16.494-13.854-34.257-31.488-63.437-31.488zM365.61 561.988c6.343-6.298 13.957-12.595 22.837-16.375 40.6-20.152 50.751-10.077 69.78 8.816 16.494 15.115 16.494 16.375 15.225 36.526 0 5.038-2.537 6.298-3.806 7.559-5.074 3.777-15.225 3.777-22.837 0-8.882-3.779-21.568-8.818-36.794-16.375-12.686-6.298-27.912-13.854-44.406-20.152zM294.561 257.181c-68.513 0-138.293 17.634-138.293 56.678s68.512 56.678 138.293 56.678c69.78 0 138.291-17.634 138.291-56.678-1.269-39.045-69.78-56.678-138.291-56.678zM198.136 313.86c11.418-7.557 44.406-17.634 96.425-17.634 52.017 0 85.005 10.077 96.423 17.634-11.418 7.557-44.406 17.634-96.423 17.634-52.019 1.259-86.276-10.077-96.425-17.634zM294.561-64c-172.549 0-286.736 209.082-286.736 294.73 0 37.787 12.687 66.755 20.3 80.612-25.375 93.205-29.181 128.472-27.912 206.562 1.269 66.755 2.537 112.1 3.806 133.511 12.687 149.885 95.155 308.586 290.542 308.586 194.116 0 276.584-158.701 289.272-307.325 2.537-23.931 3.806-69.275 3.806-136.031 1.269-78.091-2.537-113.357-27.913-206.564 7.614-13.854 20.3-42.824 20.3-80.61 1.269-84.389-114.185-293.471-285.465-293.471zM294.561 920.955c-210.612 0-244.868-207.822-251.211-270.8-1.269-16.375-3.806-50.381-3.806-132.251-1.269-76.83 2.537-108.318 29.181-202.784l2.537-8.816-5.075-7.557c0 0-19.031-28.97-19.031-66.755 0-65.496 97.693-255.685 247.405-255.685 149.711 0 247.404 190.189 247.404 255.685 0 39.045-17.763 66.755-19.031 66.755l-5.076 7.557 2.539 8.816c26.643 94.466 29.18 127.213 29.18 202.784-1.269 81.871-2.537 115.877-3.806 130.992-6.345 64.235-40.6 272.059-251.21 272.059z" />
<glyph unicode="&#xe919;" glyph-name="icon-facebook" horiz-adv-x="614" d="M533.299 393.6l26.598 174.8h-169.098v114c0 49.4 22.8 95 98.8 95h77.901v150.1c0 0-70.301 13.3-136.801 13.3-138.7 0-229.9-85.5-229.9-237.5v-134.9h-155.8v-174.8h155.8v-425.6h190v425.6h142.499z" />
</font>
</defs>
</svg>
