<svg width="42" height="42" fill="none" xmlns="http://www.w3.org/2000/svg"><path d="M40.5 7.5H39h1.5zm-33 33V39v1.5zm27 0V39v1.5zm6-6H39h1.5zM0 7.5v27h3v-27H0zM34.5 39h-27v3h27v-3zM39 7.5v27h3v-27h-3zM34.5 0h-27v3h27V0zM42 7.5A7.5 7.5 0 0034.5 0v3A4.5 4.5 0 0139 7.5h3zm-39 0A4.5 4.5 0 017.5 3V0A7.5 7.5 0 000 7.5h3zm-3 27A7.5 7.5 0 007.5 42v-3A4.5 4.5 0 013 34.5H0zM34.5 42a7.5 7.5 0 007.5-7.5h-3a4.5 4.5 0 01-4.5 4.5v3z" fill="#fff"/><path d="M12 39.85V3m18 36.85V3M12 28.5H1.5m10.5-15H1.5m37.5 15h-9m9-15h-9" stroke="#fff" stroke-width="3" stroke-linecap="round"/></svg>