<svg width="46" height="48" fill="none" xmlns="http://www.w3.org/2000/svg"><path d="M41.424 33.847a1.406 1.406 0 00-.86-.647l-9.75-2.516 9.75-2.515a1.41 1.41 0 00.86-.648l3.577-6.064a1.406 1.406 0 10-2.423-1.428l-3.28 5.562-7.64 1.97 7.051-7.418c.249-.262.387-.608.387-.97v-5.335a1.406 1.406 0 00-2.812 0v4.774l-2.612 2.749c.035-.389.053-.783.053-1.181 0-6.038-4.067-11.041-9.319-11.808V1.406a1.406 1.406 0 00-2.812 0v6.966c-5.252.767-9.319 5.77-9.319 11.808 0 .44.022.874.064 1.301l-2.623-2.855v-4.789a1.406 1.406 0 00-2.813 0v5.337c0 .352.133.692.371.951l6.76 7.357-7.332-1.891-3.28-5.563a1.406 1.406 0 10-2.423 1.43l3.577 6.063c.189.322.498.554.86.648l9.75 2.515-9.75 2.516a1.403 1.403 0 00-.86.647L.999 39.911a1.406 1.406 0 002.422 1.43l3.281-5.563 8.847-2.283-7.323 7.733a1.406 1.406 0 00-.385.967v4.399a1.406 1.406 0 002.812 0v-3.839l6.726-7.102A5.673 5.673 0 0023 40.61a5.675 5.675 0 005.562-4.583l6.785 6.751v3.815a1.406 1.406 0 002.813 0v-4.4c0-.373-.15-.732-.414-.996l-7.898-7.858 9.45 2.438 3.282 5.562A1.405 1.405 0 1045 39.911l-3.577-6.064zM23 11.082c4.363 0 7.912 4.081 7.912 9.098s-3.55 9.098-7.912 9.098c-4.363 0-7.912-4.081-7.912-9.098s3.549-9.098 7.912-9.098zm0 26.716a2.857 2.857 0 01-2.854-2.854A2.857 2.857 0 0123 32.091a2.857 2.857 0 012.854 2.853A2.857 2.857 0 0123 37.798z" fill="#fff"/></svg>