<svg width="38" height="38" fill="none" xmlns="http://www.w3.org/2000/svg"><path d="M35.076 36.925a1.308 1.308 0 101.848-1.85l-1.848 1.85zm-7.411-9.245l-.924-.925.924.925zm-10.627 3.09c-7.583 0-13.73-6.148-13.73-13.732H.692c0 9.028 7.319 16.347 16.346 16.347v-2.616zM3.308 17.037c0-7.583 6.147-13.73 13.73-13.73V.692C8.011.692.692 8.011.692 17.038h2.616zm13.73-13.73c7.584 0 13.731 6.147 13.731 13.73h2.616C33.385 8.01 26.066.691 17.039.691v2.616zm13.731 13.73c0 3.796-1.538 7.23-4.028 9.717l1.848 1.85a16.3 16.3 0 004.796-11.567h-2.616zm-4.028 9.717a13.684 13.684 0 01-9.703 4.014v2.616a16.3 16.3 0 0011.55-4.78l-1.847-1.85zm0 1.85l8.335 8.32 1.848-1.85-8.336-8.32-1.847 1.85z" fill="#fff"/></svg>