<svg width="12" height="11" fill="none" xmlns="http://www.w3.org/2000/svg"><path d="M10.758 3.063c.015.062.023.164.023.304a6.99 6.99 0 01-.469 2.485 7.865 7.865 0 01-1.335 2.25c-.563.671-1.297 1.218-2.204 1.64-.906.422-1.906.633-3 .633A6.828 6.828 0 010 9.273c.172.016.367.024.586.024a4.88 4.88 0 003.07-1.055 2.377 2.377 0 01-1.453-.469 2.542 2.542 0 01-.844-1.218c.157.015.305.023.446.023.218 0 .437-.023.656-.07a2.39 2.39 0 01-1.008-.469 2.606 2.606 0 01-.703-.844 2.43 2.43 0 01-.258-1.101v-.047c.344.203.711.312 1.102.328C.859 3.875.492 3.187.492 2.312c0-.437.117-.851.352-1.242a6.823 6.823 0 005.062 2.578 3.416 3.416 0 01-.047-.562c0-.672.235-1.25.704-1.734A2.367 2.367 0 018.296.625c.719 0 1.32.258 1.805.773a5.007 5.007 0 001.57-.585 2.442 2.442 0 01-1.078 1.359A5.287 5.287 0 0012 1.773c-.344.5-.758.93-1.242 1.29z" fill="#fff"/></svg>