<svg width="14" height="14" fill="none" xmlns="http://www.w3.org/2000/svg"><path d="M7 .146c-3.866 0-7 3.146-7 7.028a7.027 7.027 0 004.788 6.668c.35.065.478-.152.478-.338 0-.168-.006-.61-.01-1.196-1.947.425-2.358-.942-2.358-.942-.318-.812-.777-1.028-.777-1.028-.636-.436.047-.427.047-.427.703.05 1.072.724 1.072.724.625 1.074 1.639.764 2.038.584.063-.454.244-.764.445-.94-1.554-.178-3.189-.78-3.189-3.473 0-.767.273-1.395.721-1.886-.073-.178-.312-.893.068-1.86 0 0 .588-.189 1.925.72a6.679 6.679 0 011.753-.236c.594.004 1.193.08 1.753.237 1.336-.909 1.923-.72 1.923-.72.381.968.142 1.682.07 1.86.449.491.719 1.119.719 1.886 0 2.7-1.636 3.294-3.195 3.468.25.217.475.646.475 1.3 0 .94-.01 1.698-.01 1.929 0 .188.127.406.482.337A7.028 7.028 0 0014 7.174C14 3.292 10.866.146 7 .146z" fill="#fff"/></svg>