<svg width="14" height="9" fill="none" xmlns="http://www.w3.org/2000/svg"><path d="M12.89 1.406c.047.188.087.422.118.703.047.282.078.563.094.844.015.266.023.516.023.75.016.235.023.43.023.586V4.5c0 1.406-.085 2.445-.257 3.117-.079.266-.22.5-.422.703a1.625 1.625 0 01-.727.422c-.297.078-.86.14-1.687.188-.828.03-1.586.054-2.274.07H6.75c-2.672 0-4.336-.086-4.992-.258-.61-.172-.992-.547-1.149-1.125a7.783 7.783 0 01-.187-1.219 89.966 89.966 0 01-.07-1.335V4.5c0-1.39.086-2.422.257-3.094A1.642 1.642 0 011.758.258c.297-.078.86-.133 1.687-.164A67.722 67.722 0 015.72 0h1.03c2.672 0 4.336.086 4.992.258.281.078.524.219.727.422.203.203.344.445.422.726zM5.438 6.422L8.79 4.5 5.438 2.602v3.82z" fill="#fff"/></svg>