<svg width="144" height="29" fill="none" xmlns="http://www.w3.org/2000/svg"><g clip-path="url(#clip0)"><path d="M41.852 14.653c-1.448-.577-2.654-1.052-2.654-2.374 0-1.086.896-1.832 2.206-1.832 1.586 0 2.172.848 2.516 1.628l.035.102 1.172-.441-.034-.102c-.345-1.12-1.483-2.408-3.62-2.408-2.172 0-3.689 1.289-3.689 3.154 0 2.103 1.793 2.815 3.379 3.46 1.413.577 2.758 1.12 2.758 2.51 0 1.424-1.242 2.137-2.448 2.137-1.414 0-2.379-.645-2.965-1.967l-.035-.102-1.24.475.034.135c.758 1.866 2.103 2.782 4.137 2.782 2.24 0 3.895-1.459 3.895-3.46.035-2.306-1.792-3.053-3.447-3.697zm12.066-5.461c-2.344 0-3.689 1.322-4.31 2.17V9.498h-1.413v16.179h1.414v-6.14a5.445 5.445 0 004.413 2.205c3.413 0 5.826-2.611 5.826-6.308 0-3.63-2.517-6.241-5.93-6.241zm4.482 6.24c0 2.884-1.862 4.987-4.378 4.987-2.62 0-4.448-2.07-4.448-4.986 0-2.85 1.862-4.918 4.379-4.918 2.55 0 4.447 2.069 4.447 4.918zm5.757-5.969h-1.413v11.973h1.413V9.463zm-.724-4.036c-.586 0-1.069.475-1.069 1.051 0 .577.483 1.052 1.069 1.052s1.069-.475 1.069-1.052c0-.576-.448-1.051-1.069-1.051zm13.824 5.97a5.445 5.445 0 00-4.413-2.205c-3.412 0-5.826 2.612-5.826 6.309 0 3.629 2.483 6.24 5.93 6.24 2.344 0 3.689-1.322 4.31-2.17v1.865h1.413V4.884h-1.414v6.513zm.035 4.104c0 2.849-1.862 4.918-4.379 4.918-2.585 0-4.447-2.07-4.447-4.918 0-2.883 1.862-4.986 4.379-4.986 2.654 0 4.447 2.035 4.447 4.986zm10.135-6.309c-2.827 0-5.86 2.204-5.86 6.309 0 3.663 2.55 6.24 6.17 6.24 2.896 0 4.379-1.628 4.965-2.577l.069-.102-.965-.678-.07.101c-.93 1.29-2.275 1.968-3.998 1.968-2.827 0-4.689-1.832-4.723-4.647H93.15v-.61c.034-3.528-2.344-6.004-5.723-6.004zm-4.309 5.359c.276-2.781 2.344-4.037 4.31-4.037 1.86 0 4.067 1.052 4.274 4.037h-8.584zm14.307-3.46V9.463H96.01v11.973h1.414v-6.309c0-2.103.62-4.579 3.551-4.579h.137V9.193h-.137c-1.69 0-2.965.882-3.551 1.9z" fill="#fff"/><path d="M107.664 4.952c-1.31 0-3.516.509-3.516 3.934v.577h-1.379v1.289h1.379v10.684h1.413V10.752h2.792V9.463h-2.792v-.576c0-1.798.724-2.646 2.172-2.646.276 0 .551.034.551.034l.138.034v-1.29h-.103c-.035 0-.345-.067-.655-.067zm8.308 4.24c-3.551 0-6.274 2.68-6.274 6.275 0 3.629 2.62 6.274 6.24 6.274 3.551 0 6.24-2.713 6.24-6.274.034-3.596-2.655-6.275-6.206-6.275zm4.792 6.275c0 2.883-2.034 4.986-4.792 4.986s-4.792-2.103-4.792-4.986c0-2.883 2-4.952 4.792-4.952 2.758 0 4.792 2.069 4.792 4.952zm9.722-6.275c-3.551 0-6.274 2.68-6.274 6.275 0 3.629 2.62 6.274 6.24 6.274 3.551 0 6.24-2.713 6.24-6.274.034-3.596-2.655-6.275-6.206-6.275zm4.792 6.275c0 2.883-2.034 4.986-4.792 4.986s-4.792-2.103-4.792-4.986c0-2.883 2-4.952 4.792-4.952 2.758 0 4.792 2.069 4.792 4.952zm8.067 4.816c-1.586 0-2.241-.441-2.241-3.087v-6.444h2.793V9.463h-2.793V7.021h-1.413v2.442h-1.483v1.289h1.483v7.19c0 2.307 1.172 3.664 3.206 3.664.448 0 .965-.034 1-.034h.138v-1.29h-.69z" fill="#079DD9"/><path opacity=".5" d="M16.444 22.657c-.724 0-1.275.577-1.275 1.255 0 .713.586 1.255 1.275 1.255.724 0 1.276-.576 1.276-1.255 0-.678-.586-1.255-1.276-1.255zm0 3.799c-.724 0-1.275.577-1.275 1.255 0 .712.586 1.255 1.275 1.255.724 0 1.276-.576 1.276-1.255 0-.678-.586-1.255-1.276-1.255zm0-23.946c.724 0 1.276-.577 1.276-1.255C17.72.543 17.134 0 16.444 0c-.724 0-1.275.577-1.275 1.255 0 .712.551 1.255 1.275 1.255zm7.171 20.452c-.724 0-1.275.577-1.275 1.255 0 .713.586 1.255 1.275 1.255.724 0 1.276-.576 1.276-1.255 0-.678-.586-1.255-1.276-1.255zm.379-11.667c-.724 0-1.275.576-1.275 1.255 0 .712.586 1.255 1.275 1.255.724 0 1.276-.577 1.276-1.255 0-.712-.552-1.255-1.276-1.255zm3.62 3.9c-.724 0-1.275.577-1.275 1.255 0 .713.586 1.255 1.275 1.255.724 0 1.276-.576 1.276-1.255 0-.712-.552-1.255-1.276-1.255zm-.552 4.071c-.724 0-1.275.576-1.275 1.255 0 .712.586 1.255 1.275 1.255.724 0 1.276-.577 1.276-1.255.034-.679-.552-1.255-1.276-1.255zm-.482-6.716c0 .712.586 1.255 1.275 1.255.724 0 1.276-.577 1.276-1.255 0-.712-.586-1.255-1.276-1.255-.69 0-1.275.543-1.275 1.255zm.482-2.646c.724 0 1.276-.576 1.276-1.255 0-.712-.586-1.255-1.276-1.255-.724 0-1.275.577-1.275 1.255 0 .713.586 1.255 1.275 1.255zM12.721 22.657c.724 0 1.276.577 1.276 1.255 0 .713-.586 1.255-1.276 1.255a1.262 1.262 0 01-1.275-1.255c0-.678.551-1.255 1.275-1.255zm0 3.799c.724 0 1.276.577 1.276 1.255 0 .712-.586 1.255-1.276 1.255a1.262 1.262 0 01-1.275-1.255c0-.678.551-1.255 1.275-1.255zm0-23.946c.705 0 1.276-.562 1.276-1.255C13.997.562 13.426 0 12.72 0c-.704 0-1.275.562-1.275 1.255 0 .693.57 1.255 1.275 1.255zM5.55 22.962c.724 0 1.276.577 1.276 1.255 0 .713-.586 1.255-1.276 1.255a1.262 1.262 0 01-1.275-1.255c0-.678.551-1.255 1.275-1.255zm-.379-11.667c.724 0 1.276.576 1.276 1.255 0 .712-.586 1.255-1.276 1.255a1.262 1.262 0 01-1.275-1.255c-.035-.712.551-1.255 1.275-1.255zm-3.62 3.9c.724 0 1.276.577 1.276 1.255 0 .713-.586 1.255-1.276 1.255A1.262 1.262 0 01.276 16.45c0-.712.551-1.255 1.275-1.255zm.518 4.071c.723 0 1.275.576 1.275 1.255 0 .712-.586 1.255-1.275 1.255A1.262 1.262 0 01.793 20.52c0-.679.586-1.255 1.276-1.255zm.482-6.716c0 .712-.586 1.255-1.275 1.255-.69 0-1.276-.577-1.276-1.255 0-.712.586-1.255 1.276-1.255.724 0 1.275.543 1.275 1.255zm-.482-2.646A1.262 1.262 0 01.793 8.65c0-.712.586-1.255 1.276-1.255.723 0 1.275.577 1.275 1.255.035.713-.552 1.255-1.275 1.255z" fill="#079DD9"/><path d="M24.58 19.706c-.206-.237-.344-.542-.344-.848v-.712c0-.305.103-.61.344-.848.31-.305.449-.746.276-1.255-.103-.373-.414-.678-.793-.814a1.606 1.606 0 00-.69-.034c-.344.068-.689.034-.965-.102l-.24-.135c-.311-.17-.518-.475-.621-.78-.07-.204-.207-.407-.414-.51-.448-.27-.862-.338-1.241-.203-.276.102-.552.068-.828-.034-.344-.135-.827-.339-1.103-.576-.138-.102-.103-.305.035-.407.31-.17.758-.441 1.138-.645.275-.17.585-.203.896-.135.069.034.172.034.241.034.552 0 1.034-.34 1.207-.848.103-.272.31-.543.586-.679l.345-.17c.275-.169.62-.169.965-.101.207.034.448.034.69-.034.378-.136.689-.44.792-.814.138-.475 0-.916-.276-1.221-.206-.237-.344-.543-.344-.848v-.543c0-.305.103-.61.31-.848.276-.271.414-.644.345-1.085a1.318 1.318 0 00-1.034-1.018c-.828-.135-1.517.475-1.517 1.255 0 .306.137.61.31.848.207.238.345.543.345.848v.441c0 .306-.104.645-.31.882a1.344 1.344 0 00-.345.882c0 .136-.793.44-.793.44-.276.17-.62.204-.931.137-.104-.034-.241-.034-.345-.034-.724 0-1.275.576-1.275 1.255v.068s-1.104.847-1.69 1.017c-.138.034-.31-.068-.31-.237-.034-.306.035-.78.035-.78 0-.306.137-.611.344-.848.207-.238.31-.51.31-.848 0-.272 1.38-1.018 1.38-1.018.275-.17.586-.203.896-.17.207.034.448 0 .69-.101.344-.136.654-.441.723-.814.104-.441 0-.882-.31-1.187-.207-.238-.345-.543-.345-.848v-.679c0-.305.104-.61.31-.848.276-.271.414-.644.345-1.085A1.318 1.318 0 0020.34 1.05c-.827-.135-1.517.475-1.517 1.255 0 .306.138.61.31.848.207.238.345.543.345.848v.645c0 .305-.103.644-.31.848a1.344 1.344 0 00-.345.881c0 .306-1.413 1.052-1.413 1.052-.173.102-.414 0-.414-.204V6.75c0-.306.104-.611.31-.848.276-.272.414-.645.345-1.086A1.318 1.318 0 0016.617 3.8c-.759-.136-1.448.475-1.448 1.255 0 .305.138.61.31.848.207.237.345.542.345.848v.373c0 .305-.138.61-.345.882-.207.203-.31.508-.31.814 0 .305.138.61.31.848.207.237.345.542.345.848v.373c0 .305-.138.61-.345.848a.576.576 0 01-.413.17H14.1a.575.575 0 01-.413-.17c-.207-.238-.345-.543-.345-.848v-.373c0-.306.138-.611.345-.848.206-.238.31-.51.31-.848 0-.306-.138-.611-.31-.848a1.344 1.344 0 01-.345-.882v-.373c0-.306.138-.61.345-.848.206-.238.31-.51.31-.848 0-.78-.69-1.39-1.517-1.255a1.32 1.32 0 00-1.034 1.017c-.07.407.069.814.31 1.086.207.237.31.542.31.848v.474c0 .204-.241.34-.414.204 0 0-1.413-.746-1.413-1.051 0-.34-.138-.645-.345-.882a1.29 1.29 0 01-.31-.848v-.645c0-.305.138-.61.345-.848.207-.237.31-.508.31-.848 0-.78-.69-1.39-1.517-1.255a1.32 1.32 0 00-1.034 1.018c-.069.407.069.814.345 1.085.207.238.31.543.31.848v.679c0 .305-.103.61-.345.848a1.3 1.3 0 00-.31 1.187c.103.373.38.678.724.814.241.102.483.135.69.102.31-.034.62 0 .896.17 0 0 1.344.745 1.379 1.017 0 .305.138.61.31.848.207.237.345.542.345.848 0 0 .069.474.034.78 0 .135-.172.271-.31.237-.62-.17-1.69-1.017-1.69-1.017v-.068c0-.713-.585-1.255-1.275-1.255-.103 0-.241 0-.345.034-.31.101-.655.034-.93-.136 0 0-.759-.305-.793-.44-.035-.34-.138-.645-.345-.883-.241-.237-.31-.542-.31-.882v-.407c0-.305.138-.61.344-.848.207-.237.31-.508.31-.848 0-.78-.689-1.39-1.516-1.255a1.32 1.32 0 00-1.034 1.018c-.07.407.068.814.31 1.085.207.238.31.543.31.848v.51c0 .304-.103.61-.345.847-.275.305-.413.746-.275 1.221.103.373.413.678.792.814.242.068.483.102.69.034a1.59 1.59 0 01.965.102l.345.17c.276.135.483.373.586.678.172.475.655.848 1.207.848.103 0 .172 0 .275-.034a1.19 1.19 0 01.897.135c.379.204.862.475 1.137.645.138.068.173.305.035.407-.276.203-.759.407-1.103.577-.242.101-.552.135-.793.033-.38-.135-.793-.101-1.241.204-.207.136-.31.305-.414.509-.103.339-.31.61-.62.78l-.242.136c-.31.17-.655.17-.965.101a1.603 1.603 0 00-.69.034c-.379.136-.69.441-.793.814-.137.475 0 .916.276 1.255.207.238.345.543.345.848v.712c0 .306-.138.61-.345.848a1.23 1.23 0 00-.31.848c0 .78.69 1.391 1.517 1.255.517-.101.93-.508 1.034-1.017a1.238 1.238 0 00-.345-1.086 1.29 1.29 0 01-.31-.848v-.712c0-.305.138-.61.345-.848a1.92 1.92 0 00.276-.44c.103-.306.31-.543.586-.68.172-.1.276-.169.276-.169.275-.17.62-.17.965-.101.345.067.724.034 1.137-.238.207-.136.38-.373.414-.61.07-.306.241-.543.517-.713.38-.237.862-.542 1.207-.644.138-.034.276.068.31.203.035.306-.034.814-.034.814 0 .306-.138.61-.345.848a1.23 1.23 0 00-.31.848c0 .17-.724.577-1.276.848-.276.136-.62.17-.93.102a1.237 1.237 0 00-.69.068c-.38.136-.69.44-.793.814-.138.475 0 .916.276 1.22.207.238.344.544.344.849v.678c0 .306-.137.61-.344.848-.207.238-.31.509-.31.848 0 .305.137.61.31.848.207.238.344.543.344.848v.644c0 .306-.137.611-.344.849-.207.237-.31.508-.31.847 0 .78.689 1.391 1.516 1.255a1.315 1.315 0 001.034-1.017 1.238 1.238 0 00-.344-1.085 1.29 1.29 0 01-.31-.849v-.644c0-.305.137-.61.344-.848.207-.237.31-.509.31-.848 0-.305-.137-.61-.31-.848a1.344 1.344 0 01-.345-.882v-.678c0-.305.138-.61.345-.848.207-.237.31-.509.345-.848 0-.203.965-.848 1.551-1.051.173-.068.31.068.345.237 0 .305-.069.712-.069.712 0 .306-.138.61-.345.848-.206.238-.31.509-.31.848 0 .78.724 1.39 1.517 1.255a1.32 1.32 0 001.034-1.017 1.238 1.238 0 00-.345-1.086c-.206-.237-.344-.542-.344-.848v-.373c0-.305.138-.61.345-.882a1.23 1.23 0 00.31-.848c0-.305-.138-.61-.31-.848a1.343 1.343 0 01-.345-.881v-.34c0-.339.103-.644.345-.881.034-.034.068-.068.068-.102a.56.56 0 01.449-.204h.758c.172 0 .345.102.448.238l.035.034c.207.237.344.542.344.881v.374c0 .305-.137.61-.344.881a1.23 1.23 0 00-.31.848c0 .306.137.61.31.848.207.238.344.543.344.882v.373c0 .306-.103.61-.344.848a1.208 1.208 0 00-.345 1.086c.103.508.517.915 1.034 1.017.828.136 1.517-.475 1.517-1.255 0-.305-.138-.61-.31-.848-.207-.237-.345-.542-.345-.848 0 0-.069-.407-.069-.712 0-.17.172-.271.345-.237.586.203 1.551.882 1.551 1.051 0 .34.138.61.345.848.207.238.345.543.345.848v.678c0 .306-.138.61-.345.848a1.23 1.23 0 00-.31.848c0 .305.138.61.31.848.207.238.345.543.345.848v.645c0 .305-.104.61-.31.848a1.207 1.207 0 00-.345 1.085c.103.509.517.916 1.034 1.018.827.135 1.517-.475 1.517-1.255 0-.306-.138-.611-.31-.848-.207-.238-.345-.543-.345-.848v-.645c0-.305.138-.61.345-.848.206-.237.31-.509.31-.848 0-.305-.138-.61-.31-.848-.207-.237-.345-.542-.345-.848v-.678c0-.305.103-.61.345-.848.275-.305.413-.746.275-1.221-.103-.373-.413-.678-.793-.814a1.238 1.238 0 00-.69-.068c-.31.068-.62.034-.93-.102-.517-.271-1.241-.678-1.275-.848a1.807 1.807 0 00-.31-.848c-.208-.237-.346-.542-.346-.848 0 0-.068-.508-.034-.813 0-.136.172-.238.31-.204.345.102.828.407 1.207.644.241.17.448.407.517.713.069.237.207.474.414.61a1.44 1.44 0 001.137.238 1.59 1.59 0 01.966.101s.138.068.276.17c.275.136.482.407.585.678.07.17.138.306.276.441.207.238.345.543.345.848v.713c0 .305-.103.61-.31.848a1.207 1.207 0 00-.345 1.085c.104.509.517.916 1.034 1.017.828.136 1.517-.474 1.517-1.255-.034-.27-.172-.542-.345-.78z" fill="#079DD9"/></g><defs><clipPath id="clip0"><path fill="#fff" d="M0 0h144v29H0z"/></clipPath></defs></svg>