<svg width="270" height="444" fill="none" xmlns="http://www.w3.org/2000/svg"><mask id="a" style="mask-type:alpha" maskUnits="userSpaceOnUse" x="0" y="0" width="270" height="444"><path fill="#C4C4C4" d="M0 0h270v444H0z"/></mask><g mask="url(#a)"><path fill="#0089CF" d="M0 0h270v444H0z"/></g><g clip-path="url(#clip0)"><path opacity=".5" d="M142.166 255.536a5.25 5.25 0 00-5.287 5.237c0 2.972 2.429 5.236 5.287 5.236a5.25 5.25 0 005.288-5.236c0-2.831-2.429-5.237-5.288-5.237zm0 15.85a5.25 5.25 0 00-5.287 5.236c0 2.972 2.429 5.236 5.287 5.236a5.25 5.25 0 005.288-5.236c0-2.83-2.429-5.236-5.288-5.236zm0-99.913a5.25 5.25 0 005.288-5.237c0-2.972-2.429-5.236-5.288-5.236a5.25 5.25 0 00-5.287 5.236c0 2.972 2.286 5.237 5.287 5.237zm29.723 85.336a5.25 5.25 0 00-5.287 5.236c0 2.972 2.429 5.236 5.287 5.236a5.25 5.25 0 005.288-5.236c0-2.83-2.43-5.236-5.288-5.236zm1.574-48.682a5.25 5.25 0 00-5.287 5.236c0 2.972 2.429 5.236 5.287 5.236a5.25 5.25 0 005.288-5.236c0-2.972-2.287-5.236-5.288-5.236zm15.008 16.275a5.25 5.25 0 00-5.287 5.236c0 2.972 2.429 5.236 5.287 5.236a5.25 5.25 0 005.288-5.236c0-2.972-2.287-5.236-5.288-5.236zm-2.289 16.982a5.25 5.25 0 00-5.287 5.236c0 2.972 2.429 5.237 5.287 5.237a5.25 5.25 0 005.288-5.237c.143-2.83-2.287-5.236-5.288-5.236zm-2.002-28.021c0 2.972 2.429 5.236 5.287 5.236a5.25 5.25 0 005.288-5.236c0-2.972-2.43-5.236-5.288-5.236s-5.287 2.264-5.287 5.236zm2.002-11.038a5.25 5.25 0 005.288-5.237c0-2.972-2.43-5.236-5.288-5.236a5.25 5.25 0 00-5.287 5.236c0 2.972 2.429 5.237 5.287 5.237zm-59.449 53.211a5.25 5.25 0 015.287 5.237c0 2.972-2.429 5.236-5.287 5.236a5.25 5.25 0 01-5.288-5.236 5.25 5.25 0 015.288-5.237zm0 15.85a5.25 5.25 0 015.287 5.236c0 2.972-2.429 5.236-5.287 5.236a5.25 5.25 0 01-5.288-5.236 5.25 5.25 0 015.288-5.236zm0-99.913c2.92 0 5.287-2.345 5.287-5.237S129.653 161 126.733 161s-5.288 2.344-5.288 5.236 2.368 5.237 5.288 5.237zM97.01 256.809a5.25 5.25 0 015.288 5.236c0 2.972-2.43 5.236-5.288 5.236a5.249 5.249 0 01-5.287-5.236 5.25 5.25 0 015.287-5.236zm-1.576-48.682a5.25 5.25 0 015.288 5.236c0 2.972-2.43 5.236-5.288 5.236a5.249 5.249 0 01-5.287-5.236c-.143-2.972 2.286-5.236 5.287-5.236zm-15.006 16.275a5.25 5.25 0 015.288 5.236c0 2.972-2.43 5.236-5.288 5.236a5.249 5.249 0 01-5.287-5.236c0-2.972 2.286-5.236 5.287-5.236zm2.145 16.982a5.25 5.25 0 015.287 5.236c0 2.972-2.43 5.237-5.287 5.237a5.25 5.25 0 01-5.288-5.237c0-2.83 2.43-5.236 5.288-5.236zm2.002-28.021c0 2.972-2.43 5.236-5.287 5.236-2.859 0-5.288-2.405-5.288-5.236 0-2.972 2.43-5.236 5.288-5.236 3 0 5.287 2.264 5.287 5.236zm-2.002-11.038a5.25 5.25 0 01-5.288-5.237c0-2.972 2.43-5.236 5.288-5.236a5.25 5.25 0 015.287 5.236c.143 2.972-2.286 5.237-5.287 5.237z" fill="#67D4FF"/><path d="M175.892 243.223c-.858-.991-1.429-2.264-1.429-3.538v-2.972c0-1.274.428-2.547 1.429-3.538 1.286-1.274 1.857-3.114 1.143-5.236-.429-1.557-1.715-2.831-3.287-3.397a6.605 6.605 0 00-2.858-.141c-1.429.283-2.858.141-4.001-.425l-1.001-.566c-1.286-.708-2.143-1.981-2.572-3.255-.286-.849-.858-1.698-1.715-2.123-1.858-1.132-3.573-1.415-5.145-.849-1.143.425-2.286.283-3.429-.141-1.43-.567-3.43-1.416-4.573-2.406-.572-.425-.429-1.274.142-1.699 1.287-.707 3.144-1.839 4.716-2.688 1.144-.708 2.43-.85 3.716-.567.286.142.714.142 1 .142 2.287 0 4.288-1.415 5.002-3.538.429-1.132 1.286-2.264 2.429-2.83l1.43-.708c1.143-.708 2.572-.708 4.001-.425a6.605 6.605 0 002.858-.141c1.572-.566 2.858-1.84 3.287-3.397.572-1.981 0-3.821-1.143-5.094-.858-.991-1.429-2.265-1.429-3.538v-2.265c0-1.273.428-2.547 1.286-3.538 1.143-1.132 1.715-2.689 1.429-4.528-.429-2.123-2.144-3.821-4.287-4.246-3.43-.566-6.288 1.981-6.288 5.236 0 1.274.571 2.548 1.286 3.538.857.991 1.429 2.265 1.429 3.538v1.84c0 1.274-.429 2.689-1.286 3.68-.858.99-1.429 2.264-1.429 3.679 0 .566-3.287 1.84-3.287 1.84-1.143.708-2.572.849-3.859.566-.428-.141-1-.141-1.429-.141a5.249 5.249 0 00-5.287 5.236v.283s-4.573 3.538-7.003 4.245c-.571.142-1.286-.283-1.286-.99-.143-1.274.143-3.255.143-3.255 0-1.274.572-2.548 1.429-3.538.858-.991 1.286-2.123 1.286-3.538 0-1.132 5.717-4.246 5.717-4.246 1.143-.707 2.429-.849 3.715-.707.858.141 1.858 0 2.858-.425 1.429-.566 2.716-1.84 3.001-3.396.429-1.84 0-3.68-1.286-4.954-.857-.99-1.429-2.264-1.429-3.538v-2.83c0-1.274.429-2.548 1.286-3.538 1.144-1.132 1.715-2.689 1.429-4.529-.428-2.123-2.143-3.821-4.287-4.245-3.43-.566-6.288 1.981-6.288 5.236 0 1.274.572 2.547 1.286 3.538.858.99 1.429 2.264 1.429 3.538v2.689c0 1.273-.428 2.689-1.286 3.538-.857.99-1.429 2.264-1.429 3.679 0 1.274-5.859 4.387-5.859 4.387-.715.425-1.715 0-1.715-.849v-1.981c0-1.274.429-2.547 1.286-3.538 1.144-1.132 1.715-2.689 1.429-4.529-.428-2.122-2.143-3.821-4.287-4.245-3.144-.566-6.002 1.981-6.002 5.236 0 1.274.572 2.547 1.286 3.538.858.991 1.429 2.264 1.429 3.538v1.557c0 1.273-.571 2.547-1.429 3.679-.857.849-1.286 2.123-1.286 3.397 0 1.273.572 2.547 1.286 3.538.858.99 1.429 2.264 1.429 3.538v1.557c0 1.273-.571 2.547-1.429 3.538a2.38 2.38 0 01-1.715.707h-4.001a2.38 2.38 0 01-1.715-.707c-.857-.991-1.429-2.265-1.429-3.538v-1.557c0-1.274.572-2.548 1.429-3.538.857-.991 1.286-2.123 1.286-3.538 0-1.274-.571-2.548-1.286-3.538-.857-.991-1.429-2.265-1.429-3.68v-1.556c0-1.274.572-2.548 1.429-3.539.857-.99 1.286-2.122 1.286-3.538 0-3.254-2.858-5.802-6.288-5.236-2.143.425-3.858 2.123-4.287 4.246a5.563 5.563 0 001.286 4.528c.858.991 1.286 2.265 1.286 3.539v1.981c0 .849-1 1.415-1.714.849 0 0-5.86-3.114-5.86-4.387 0-1.415-.571-2.689-1.429-3.68-.857-.99-1.286-2.264-1.286-3.538v-2.689c0-1.273.572-2.547 1.429-3.538.858-.99 1.286-2.122 1.286-3.538 0-3.255-2.858-5.802-6.288-5.236-2.143.425-3.858 2.123-4.287 4.246-.286 1.698.286 3.396 1.429 4.528.858.991 1.286 2.265 1.286 3.538v2.831c0 1.273-.428 2.547-1.429 3.538-1.143 1.273-1.715 2.972-1.286 4.953.429 1.557 1.572 2.83 3.001 3.396 1.001.425 2.001.567 2.858.425 1.287-.141 2.573 0 3.716.708 0 0 5.573 3.113 5.716 4.245 0 1.274.572 2.548 1.286 3.538.858.991 1.429 2.265 1.429 3.538 0 0 .286 1.982.143 3.255 0 .566-.714 1.132-1.286.991-2.572-.708-7.002-4.246-7.002-4.246v-.283c0-2.972-2.43-5.236-5.288-5.236-.429 0-1 0-1.429.142-1.286.424-2.715.141-3.858-.567 0 0-3.144-1.273-3.287-1.839-.143-1.416-.572-2.689-1.429-3.68-1-.991-1.286-2.264-1.286-3.679v-1.699c0-1.273.571-2.547 1.429-3.538.857-.99 1.286-2.122 1.286-3.538 0-3.255-2.858-5.802-6.288-5.236-2.144.425-3.859 2.123-4.287 4.246a5.563 5.563 0 001.286 4.528c.857.991 1.286 2.265 1.286 3.538v2.123c0 1.274-.429 2.548-1.43 3.538-1.142 1.274-1.714 3.114-1.142 5.095.428 1.557 1.715 2.83 3.287 3.396 1 .283 2 .425 2.858.142 1.286-.283 2.715-.142 4.001.424l1.429.708c1.143.566 2.001 1.557 2.43 2.83.714 1.982 2.715 3.538 5.001 3.538.429 0 .715 0 1.144-.141 1.286-.283 2.572-.142 3.715.566 1.572.849 3.573 1.981 4.716 2.689.572.283.715 1.274.143 1.698-1.143.849-3.144 1.698-4.573 2.406-1 .425-2.287.566-3.287.142-1.572-.567-3.287-.425-5.145.849-.857.566-1.286 1.273-1.714 2.122-.429 1.416-1.287 2.548-2.573 3.255l-1 .567c-1.286.707-2.715.707-4.001.424a6.622 6.622 0 00-2.859.142c-1.572.566-2.858 1.839-3.287 3.396-.571 1.981 0 3.821 1.144 5.236.857.991 1.429 2.265 1.429 3.538v2.972c0 1.274-.572 2.548-1.43 3.538-.857.991-1.285 2.123-1.285 3.538 0 3.255 2.858 5.803 6.288 5.237 2.143-.425 3.858-2.123 4.287-4.246.286-1.698-.286-3.397-1.429-4.529-.858-.99-1.287-2.264-1.287-3.538v-2.972c0-1.273.572-2.547 1.43-3.538.428-.566.857-1.132 1.143-1.839.429-1.274 1.286-2.265 2.429-2.831.715-.424 1.143-.707 1.143-.707 1.144-.708 2.573-.708 4.002-.425 1.429.283 3.001.142 4.716-.991.857-.566 1.572-1.556 1.715-2.547.285-1.274 1-2.264 2.143-2.972 1.572-.991 3.573-2.264 5.002-2.689.572-.141 1.143.283 1.286.849.143 1.274-.143 3.397-.143 3.397 0 1.274-.571 2.547-1.429 3.538-.857.99-1.286 2.123-1.286 3.538 0 .707-3.001 2.406-5.288 3.538-1.143.566-2.572.707-3.858.424-.857-.141-1.858-.141-2.858.283-1.572.567-2.858 1.84-3.287 3.397-.572 1.981 0 3.821 1.143 5.095.858.99 1.429 2.264 1.429 3.538v2.83c0 1.274-.571 2.547-1.429 3.538-.857.991-1.286 2.123-1.286 3.538 0 1.274.572 2.547 1.286 3.538.858.991 1.429 2.264 1.429 3.538v2.689c0 1.274-.571 2.547-1.429 3.538-.857.991-1.286 2.123-1.286 3.538 0 3.255 2.858 5.802 6.288 5.236 2.144-.424 3.858-2.122 4.287-4.245.286-1.699-.286-3.397-1.429-4.529-.857-.991-1.286-2.264-1.286-3.538v-2.689c0-1.274.572-2.547 1.429-3.538.857-.991 1.286-2.123 1.286-3.538 0-1.274-.571-2.547-1.286-3.538-.857-.991-1.429-2.264-1.429-3.679v-2.831c0-1.274.572-2.547 1.429-3.538.857-.99 1.286-2.123 1.429-3.538 0-.849 4.002-3.538 6.431-4.387.714-.283 1.286.283 1.429.991 0 1.273-.286 2.972-.286 2.972 0 1.273-.571 2.547-1.429 3.538-.857.99-1.286 2.122-1.286 3.538 0 3.255 3.001 5.802 6.288 5.236 2.143-.425 3.858-2.123 4.287-4.246.286-1.698-.286-3.396-1.429-4.528-.857-.991-1.429-2.265-1.429-3.538v-1.557c0-1.274.572-2.548 1.429-3.68.857-.99 1.286-2.122 1.286-3.538 0-1.273-.571-2.547-1.286-3.538-.857-.99-1.429-2.264-1.429-3.679v-1.415c0-1.416.429-2.689 1.429-3.68.143-.141.286-.283.286-.425.429-.566 1.143-.849 1.858-.849h3.144c.714 0 1.429.425 1.857.991l.143.142c.858.99 1.429 2.264 1.429 3.679v1.557c0 1.273-.571 2.547-1.429 3.679-.857.991-1.286 2.123-1.286 3.538 0 1.274.572 2.548 1.286 3.538.858.991 1.429 2.265 1.429 3.68v1.557c0 1.273-.428 2.547-1.429 3.538-1.143 1.132-1.715 2.688-1.429 4.528.429 2.123 2.144 3.821 4.287 4.246 3.43.566 6.288-1.981 6.288-5.236 0-1.274-.571-2.548-1.286-3.538-.857-.991-1.429-2.265-1.429-3.538 0 0-.286-1.699-.286-2.972 0-.708.715-1.133 1.429-.991 2.43.849 6.431 3.68 6.431 4.387 0 1.415.572 2.548 1.429 3.538.858.991 1.429 2.264 1.429 3.538v2.831c0 1.273-.571 2.547-1.429 3.538-.857.99-1.286 2.122-1.286 3.538 0 1.273.572 2.547 1.286 3.538.858.99 1.429 2.264 1.429 3.538v2.689c0 1.273-.428 2.547-1.286 3.538-1.143 1.132-1.715 2.688-1.429 4.528.429 2.123 2.144 3.821 4.287 4.246 3.43.566 6.288-1.981 6.288-5.236 0-1.274-.571-2.548-1.286-3.538-.857-.991-1.429-2.265-1.429-3.538v-2.689c0-1.274.572-2.548 1.429-3.538.858-.991 1.286-2.123 1.286-3.538 0-1.274-.571-2.548-1.286-3.538-.857-.991-1.429-2.265-1.429-3.538v-2.831c0-1.274.429-2.547 1.429-3.538 1.143-1.274 1.715-3.113 1.143-5.095-.428-1.556-1.715-2.83-3.287-3.396-1-.425-2-.425-2.858-.283-1.286.283-2.572.141-3.858-.425-2.144-1.132-5.145-2.83-5.288-3.538-.143-1.273-.571-2.547-1.286-3.538-.857-.99-1.429-2.264-1.429-3.538 0 0-.286-2.123-.143-3.396 0-.566.715-.991 1.286-.849 1.429.424 3.43 1.698 5.002 2.689 1 .707 1.858 1.698 2.144 2.972.285.99.857 1.981 1.715 2.547 1.572 1.132 3.286 1.274 4.715.991 1.287-.284 2.716-.142 4.002.424 0 0 .571.283 1.143.708 1.143.566 2.001 1.698 2.43 2.83.285.708.571 1.274 1.143 1.84.857.99 1.429 2.264 1.429 3.538v2.972c0 1.273-.429 2.547-1.286 3.538-1.144 1.132-1.715 2.689-1.429 4.528.428 2.123 2.143 3.822 4.287 4.246 3.43.566 6.288-1.981 6.288-5.236-.143-1.132-.715-2.265-1.429-3.255z" fill="#079DD9"/></g><defs><clipPath id="clip0"><path fill="#fff" transform="translate(74 161)" d="M0 0h120v121H0z"/></clipPath></defs></svg>