<svg width="70" height="70" fill="none" xmlns="http://www.w3.org/2000/svg"><g clip-path="url(#clip0)"><path d="M68.558 18.197a8.77 8.77 0 00-6.17-6.17c-5.477-1.5-27.389-1.5-27.389-1.5s-21.91 0-27.388 1.442c-2.94.807-5.363 3.23-6.17 6.228C0 23.674 0 35.032 0 35.032S0 46.45 1.441 51.87a8.772 8.772 0 006.17 6.17C13.146 59.539 35 59.539 35 59.539s21.91 0 27.388-1.442a8.77 8.77 0 006.17-6.17C70 46.45 70 35.091 70 35.091s.057-11.417-1.442-16.895z" fill="red"/><path d="M28.023 45.527l18.22-10.494-18.22-10.494v20.988z" fill="#fff"/></g><defs><clipPath id="clip0"><path fill="#fff" d="M0 0h70v70H0z"/></clipPath></defs></svg>