<svg width="88" height="52" fill="none" xmlns="http://www.w3.org/2000/svg"><path d="M25.01 18.972c0 1.057.116 1.914.319 2.543.232.628.521 1.314.926 2.057.145.228.203.457.203.657 0 .286-.174.571-.55.857l-1.824 1.2c-.26.171-.52.257-.753.257-.289 0-.578-.143-.868-.4a8.861 8.861 0 01-1.042-1.343 22.042 22.042 0 01-.897-1.686c-2.258 2.629-5.095 3.943-8.51 3.943-2.432 0-4.372-.685-5.79-2.057-1.419-1.371-2.142-3.2-2.142-5.485 0-2.43.868-4.4 2.634-5.886 1.766-1.486 4.11-2.229 7.092-2.229.984 0 1.997.086 3.068.229 1.071.143 2.171.371 3.33.628v-2.085c0-2.172-.464-3.686-1.361-4.572-.927-.886-2.49-1.314-4.719-1.314A13.34 13.34 0 0011 4.657a23.285 23.285 0 00-3.126.972c-.464.2-.81.314-1.014.371a1.797 1.797 0 01-.463.086c-.405 0-.608-.286-.608-.886V3.8c0-.457.058-.8.203-1 .145-.2.405-.4.81-.6 1.014-.514 2.23-.943 3.648-1.286 1.418-.371 2.924-.542 4.516-.542 3.444 0 5.963.771 7.584 2.314 1.592 1.543 2.403 3.886 2.403 7.028v9.258h.058zm-11.752 4.342c.955 0 1.94-.171 2.981-.514 1.043-.343 1.969-.971 2.75-1.828.464-.543.811-1.143.985-1.829.173-.686.29-1.514.29-2.486v-1.2c-.84-.2-1.738-.371-2.664-.485a22.094 22.094 0 00-2.721-.172c-1.94 0-3.358.372-4.313 1.143-.956.772-1.419 1.857-1.419 3.286 0 1.343.348 2.343 1.071 3.028.695.715 1.708 1.057 3.04 1.057zM36.503 26.4c-.522 0-.869-.086-1.1-.285-.232-.172-.435-.572-.608-1.115L27.992 2.914c-.174-.571-.26-.942-.26-1.142 0-.458.231-.715.694-.715h2.837c.55 0 .926.086 1.13.286.23.171.404.571.578 1.114l4.863 18.915L42.35 2.457c.145-.571.318-.943.55-1.114.232-.171.637-.286 1.158-.286h2.316c.55 0 .926.086 1.157.286.232.171.435.571.55 1.114L52.655 21.6l5.008-19.143c.174-.571.376-.943.58-1.114.23-.171.607-.286 1.128-.286h2.692c.463 0 .724.229.724.715 0 .142-.03.285-.058.457a4.02 4.02 0 01-.203.714L55.55 25.029c-.174.571-.376.943-.608 1.114-.231.171-.608.286-1.1.286h-2.49c-.55 0-.926-.086-1.157-.286-.232-.2-.434-.571-.55-1.143L45.158 6.572l-4.458 18.4c-.145.571-.319.942-.55 1.142-.232.2-.637.286-1.158.286h-2.49zm37.197.772c-1.505 0-3.01-.172-4.458-.515-1.447-.343-2.576-.714-3.329-1.142-.463-.258-.781-.543-.897-.8a1.995 1.995 0 01-.174-.8v-1.458c0-.6.232-.885.666-.885.174 0 .347.028.52.085.175.058.435.172.725.286.984.429 2.055.771 3.184 1 1.158.229 2.287.343 3.445.343 1.823 0 3.242-.314 4.226-.943s1.505-1.543 1.505-2.714c0-.8-.26-1.457-.781-2-.521-.543-1.506-1.029-2.924-1.486l-4.198-1.286c-2.113-.657-3.676-1.628-4.631-2.914-.955-1.257-1.447-2.657-1.447-4.143 0-1.2.26-2.257.781-3.171a7.378 7.378 0 012.084-2.343c.869-.657 1.853-1.143 3.01-1.486 1.159-.343 2.374-.486 3.648-.486.637 0 1.303.029 1.94.115.665.085 1.273.2 1.881.314a22.74 22.74 0 011.65.457c.521.172.927.343 1.216.514.405.229.695.458.868.715.174.228.261.543.261.943v1.342c0 .6-.232.915-.666.915-.231 0-.608-.115-1.1-.343-1.65-.743-3.502-1.114-5.558-1.114-1.65 0-2.952.257-3.85.8-.897.542-1.36 1.371-1.36 2.542 0 .8.29 1.486.868 2.029.58.543 1.65 1.086 3.184 1.572L78.1 12.4c2.084.657 3.59 1.572 4.487 2.743.897 1.171 1.331 2.514 1.331 4 0 1.229-.26 2.343-.752 3.314a7.707 7.707 0 01-2.113 2.515c-.898.714-1.969 1.228-3.214 1.6-1.302.4-2.663.6-4.139.6z" fill="#fff"/><path fill-rule="evenodd" clip-rule="evenodd" d="M79.171 41.057C69.647 48 55.811 51.686 43.913 51.686c-16.673 0-31.697-6.086-43.045-16.2-.897-.8-.086-1.886.985-1.257 12.273 7.028 27.413 11.285 43.073 11.285 10.566 0 22.174-2.171 32.856-6.628 1.592-.714 2.952 1.028 1.39 2.171z" fill="#F90"/><path fill-rule="evenodd" clip-rule="evenodd" d="M83.137 36.6c-1.216-1.543-8.048-.743-11.145-.371-.926.114-1.071-.686-.232-1.286 5.442-3.771 14.387-2.686 15.43-1.428 1.041 1.285-.29 10.114-5.385 14.342-.781.657-1.534.315-1.187-.542 1.158-2.83 3.735-9.2 2.519-10.715z" fill="#F90"/></svg>