<svg width="132" height="24" fill="none" xmlns="http://www.w3.org/2000/svg"><g clip-path="url(#clip0)" fill="#FF5722"><path d="M48.265 23.16a.846.846 0 01-.62.26h-2.48a.844.844 0 01-.62-.26.844.844 0 01-.262-.62v-8.29c0-1.348-.315-2.403-.946-3.165s-1.556-1.142-2.774-1.142c-1.131 0-2.034.391-2.708 1.174-.675.784-1.012 1.828-1.012 3.133v8.289c0 .24-.087.446-.26.62a.847.847 0 01-.621.26h-2.48a.845.845 0 01-.62-.26.845.845 0 01-.261-.62V1.133c0-.24.086-.446.26-.62a.847.847 0 01.62-.261h2.481a.85.85 0 01.62.26.85.85 0 01.26.62v6.952c1.306-1.306 2.873-1.959 4.7-1.959 2.458 0 4.237.708 5.336 2.122 1.098 1.414 1.648 3.252 1.648 5.515v8.778a.85.85 0 01-.261.62zm3.719-16.447a.848.848 0 01.62-.261h2.48a.85.85 0 01.62.26.85.85 0 01.261.62v8.29c0 1.37.288 2.43.865 3.181.576.75 1.473 1.126 2.692 1.126 1.131 0 2.007-.386 2.627-1.159.62-.771.93-1.821.93-3.148v-8.29a.85.85 0 01.261-.62.847.847 0 01.62-.26h2.48c.24 0 .446.087.62.26a.85.85 0 01.261.62V22.54c0 .24-.087.446-.26.62a.846.846 0 01-.62.26H63.96a.844.844 0 01-.62-.26.845.845 0 01-.26-.62v-.75c-1.263 1.304-2.775 1.957-4.537 1.957-2.459 0-4.21-.702-5.254-2.105-1.044-1.403-1.566-3.247-1.566-5.531V7.333c0-.24.086-.446.26-.62zM86.51 23.16a.847.847 0 01-.62.26h-2.481a.845.845 0 01-.62-.26.845.845 0 01-.261-.62v-8.29c0-1.348-.316-2.403-.947-3.165-.63-.762-1.555-1.142-2.773-1.142-1.132 0-2.035.391-2.709 1.174-.674.784-1.011 1.828-1.011 3.133v8.289c0 .24-.087.446-.261.62a.847.847 0 01-.62.26h-2.48a.845.845 0 01-.62-.26.845.845 0 01-.262-.62V7.333c0-.24.087-.446.261-.62a.848.848 0 01.62-.261h2.48a.85.85 0 01.62.26.848.848 0 01.262.62v.752c1.305-1.306 2.871-1.959 4.699-1.959 2.458 0 4.236.708 5.335 2.122 1.099 1.414 1.648 3.252 1.648 5.515v8.778c0 .24-.087.446-.26.62zm9.74-4.226c.38.38 1.04.57 1.975.57h1.99c.24 0 .446.088.62.262a.85.85 0 01.262.62v2.154c0 .24-.088.446-.262.62a.844.844 0 01-.62.26h-2.414c-2.068 0-3.645-.505-4.732-1.517-1.088-1.011-1.632-2.517-1.632-4.52v-7.015h-2.154a.845.845 0 01-.62-.261.844.844 0 01-.26-.62V7.333c0-.24.086-.446.26-.62a.848.848 0 01.62-.261h2.154v-5.32a.85.85 0 01.261-.62.847.847 0 01.62-.26h2.48c.24 0 .446.087.62.26a.85.85 0 01.261.62v5.32h4.21a.85.85 0 01.62.26.848.848 0 01.261.62v2.155c0 .24-.087.446-.261.62a.847.847 0 01-.62.26h-4.21v6.919c0 .718.19 1.267.572 1.648zm17.834-5.891c-.24-2-1.447-3.002-3.622-3.002-1.132 0-2.018.305-2.66.914-.642.61-1.006 1.305-1.093 2.088h7.375zm.588-5.792a7.693 7.693 0 012.822 3.019c.663 1.262.995 2.643.995 4.144v1.469c0 .24-.087.446-.261.62a.845.845 0 01-.62.26h-10.899c0 .936.37 1.681 1.11 2.236.739.555 1.62.832 2.643.832 1.196 0 2.121-.25 2.774-.75.239-.174.435-.294.587-.36.152-.065.359-.097.62-.097h2.611c.239 0 .445.081.62.245a.76.76 0 01.261.57c0 .457-.3 1.034-.898 1.73-.598.697-1.463 1.3-2.594 1.811-1.132.511-2.459.767-3.981.767-1.61 0-3.019-.37-4.226-1.11-1.208-.739-2.138-1.772-2.79-3.1-.653-1.326-.979-2.86-.979-4.6 0-1.632.326-3.117.979-4.455.652-1.338 1.587-2.399 2.806-3.182 1.218-.783 2.621-1.175 4.21-1.175 1.588 0 2.991.376 4.21 1.126zm11.502 3.982c-.577.576-.865 1.517-.865 2.822v8.485c0 .24-.087.446-.261.62a.846.846 0 01-.62.26h-2.48a.844.844 0 01-.62-.26.846.846 0 01-.261-.62V7.333c0-.24.087-.446.261-.62a.847.847 0 01.62-.261h2.48a.85.85 0 01.62.26.848.848 0 01.261.62v.752c.587-.566 1.208-.98 1.86-1.24.653-.262 1.48-.392 2.48-.392h1.469a.85.85 0 01.62.26.848.848 0 01.261.62v2.155c0 .24-.087.446-.261.62a.848.848 0 01-.62.26h-2.121c-1.306 0-2.247.29-2.823.866zm-111.694-.86c-.485.14-1.02.142-1.52.12-.583-.024-1.2-.098-1.737-.337-.443-.196-.798-.55-.612-1.063.131-.361.421-.684.757-.866.377-.205.791-.171 1.169.014.424.207.776.545 1.095.886.168.179.328.364.486.552.072.086.566.579.362.694zm8.07.176c-.746-.174-1.628-.112-2.377-.231-1.179-.189-2.935-1.564-3.887-2.961-.662-.971-.978-1.96-1.483-3.165-.353-.842-1.123-3.502-2.2-2.257-.442.513-.938 2.201-1.3 2.178-.27.062-.313-.461-.398-.685-.154-.406-.236-.876-.443-1.258-.165-.306-.382-.673-.714-.822-.592-.304-1.305.613-1.66 1.7-.15.584-1.168 1.714-1.611 1.987C4.46 6.28.413 7.59 0 11.955c-.001.019 0 .074.069.024.483-.35 5.957-4.292 2.444 3.33-2.153 4.669 8.24 7.643 8.774 7.655.072.001.067-.031.07-.053.829-7.453 9.021-6.668 10.93-8.453 1.89-1.769 1.928-3.48.264-3.91z"/></g><defs><clipPath id="clip0"><path fill="#fff" d="M0 0h132v24H0z"/></clipPath></defs></svg>