<svg width="146" height="57" fill="none" xmlns="http://www.w3.org/2000/svg"><path d="M5.858 22.212h2.889v10.127h6.258v2.353H5.858v-12.48zm20.424 10.162v2.318h-9.664v-12.48h9.432v2.318h-6.561v2.71h5.794v2.246H19.49v2.888h6.793zm10.517-.356h-5.794l-1.106 2.674h-2.96l5.563-12.48h2.853l5.58 12.48h-3.03l-1.106-2.674zm-.91-2.193l-1.978-4.778-1.98 4.778h3.959zm10.887-.035l-1.675 1.747v3.155h-2.87v-12.48h2.87v5.83l5.526-5.83h3.21l-5.17 5.563 5.473 6.917h-3.37l-3.994-4.903zm7.454-1.23h5.046v2.228h-5.045v-2.229zm7.43-6.348h2.89v10.127h6.257v2.353h-9.146v-12.48zm16.596 12.694c-1.296 0-2.466-.28-3.512-.838a6.321 6.321 0 01-2.443-2.3c-.582-.986-.874-2.092-.874-3.316 0-1.224.292-2.324.874-3.298a6.278 6.278 0 012.443-2.318c1.046-.559 2.216-.838 3.512-.838 1.296 0 2.46.28 3.494.838a6.278 6.278 0 012.443 2.318c.594.974.891 2.074.891 3.298 0 1.224-.297 2.33-.891 3.316a6.321 6.321 0 01-2.443 2.3c-1.034.559-2.198.838-3.494.838zm0-2.46c.737 0 1.403-.167 1.997-.5a3.646 3.646 0 001.39-1.426c.345-.606.517-1.295.517-2.068 0-.773-.172-1.462-.516-2.068a3.524 3.524 0 00-1.391-1.409 3.907 3.907 0 00-1.997-.517c-.737 0-1.403.173-1.997.518a3.646 3.646 0 00-1.408 1.408c-.333.606-.5 1.296-.5 2.068 0 .773.167 1.462.5 2.068a3.774 3.774 0 001.408 1.427c.594.332 1.26.499 1.997.499zm15.044 2.46c-1.296 0-2.467-.28-3.513-.838a6.32 6.32 0 01-2.443-2.3c-.582-.986-.873-2.092-.873-3.316 0-1.224.29-2.324.873-3.298a6.278 6.278 0 012.443-2.318c1.046-.559 2.216-.838 3.512-.838 1.296 0 2.46.28 3.495.838a6.278 6.278 0 012.442 2.318c.594.974.892 2.074.892 3.298 0 1.224-.298 2.33-.892 3.316a6.321 6.321 0 01-2.442 2.3c-1.034.559-2.2.838-3.495.838zm0-2.46c.736 0 1.402-.167 1.996-.5a3.646 3.646 0 001.39-1.426c.345-.606.518-1.295.518-2.068 0-.773-.173-1.462-.517-2.068a3.524 3.524 0 00-1.391-1.409 3.907 3.907 0 00-1.997-.517c-.737 0-1.402.173-1.997.518a3.646 3.646 0 00-1.408 1.408c-.333.606-.5 1.296-.5 2.068 0 .773.167 1.462.5 2.068a3.774 3.774 0 001.408 1.427c.595.332 1.26.499 1.997.499zm13.545-2.656l-1.676 1.747v3.155h-2.871v-12.48h2.871v5.83l5.527-5.83h3.209l-5.17 5.563 5.473 6.917h-3.37l-3.993-4.903zm14.022 5.116c-1.783 0-3.174-.493-4.172-1.48-.987-.986-1.48-2.395-1.48-4.225v-6.989h2.888v6.882c0 2.234.927 3.352 2.781 3.352.904 0 1.593-.268 2.069-.802.475-.547.713-1.397.713-2.55v-6.882h2.852v6.989c0 1.83-.499 3.239-1.497 4.225-.987.987-2.372 1.48-4.154 1.48zm13.908-12.694c1.105 0 2.062.184 2.87.553.82.368 1.45.891 1.89 1.569.44.677.66 1.48.66 2.407 0 .915-.22 1.717-.66 2.406-.44.678-1.07 1.2-1.89 1.57-.808.356-1.765.534-2.87.534h-2.514v3.441h-2.889v-12.48h5.403zm-.161 6.686c.868 0 1.528-.184 1.979-.553.452-.38.678-.915.678-1.604 0-.702-.226-1.237-.678-1.605-.451-.38-1.111-.57-1.979-.57h-2.353v4.332h2.353z" fill="#fff"/></svg>