<svg width="160" height="73" fill="none" xmlns="http://www.w3.org/2000/svg"><path d="M14.796 22.352v27.056h2.603V26.521h.077L33.4 49.408h2.91V22.352h-2.603V45.24h-.077L17.705 22.352h-2.91zm34.879 8.943c1.149 0 2.157.24 3.025.72a6.426 6.426 0 012.143 1.895 8.015 8.015 0 011.302 2.69c.306.986.46 1.996.46 3.032a10.53 10.53 0 01-.46 3.07 8.063 8.063 0 01-1.302 2.652 6.427 6.427 0 01-2.144 1.894c-.867.48-1.875.72-3.024.72-1.148 0-2.156-.24-3.024-.72a6.818 6.818 0 01-2.182-1.894 9.201 9.201 0 01-1.302-2.653 11.413 11.413 0 01-.42-3.07c0-1.035.14-2.045.42-3.03a9.11 9.11 0 011.302-2.691 6.817 6.817 0 012.182-1.895c.868-.48 1.876-.72 3.024-.72zm0-2.008c-1.506 0-2.845.278-4.02.834a8.757 8.757 0 00-2.909 2.235c-.791.935-1.39 2.034-1.8 3.297-.408 1.238-.612 2.564-.612 3.979s.204 2.753.613 4.017a9.676 9.676 0 001.8 3.258 8.756 8.756 0 002.909 2.236c1.174.53 2.513.796 4.02.796 1.505 0 2.832-.266 3.98-.796 1.175-.556 2.157-1.301 2.948-2.236a9.677 9.677 0 001.8-3.258c.408-1.264.612-2.602.612-4.017 0-1.415-.204-2.741-.612-3.979-.409-1.263-1.009-2.362-1.8-3.297-.79-.934-1.773-1.68-2.947-2.235-1.149-.556-2.476-.834-3.982-.834zm16.755.568v-5.873h-2.412v5.873h-3.445v2.009h3.445V45.24c-.025 1.667.281 2.817.92 3.448.637.607 1.76.91 3.368.91.357 0 .715-.013 1.072-.038.357-.025.715-.038 1.072-.038v-2.008c-.69.075-1.378.113-2.068.113-.867-.05-1.416-.29-1.646-.72-.204-.454-.306-1.073-.306-1.856V31.864h4.02v-2.009h-4.02zm7.461-7.503v27.056h2.412V38.002c.026-.96.179-1.844.46-2.652.306-.834.714-1.541 1.225-2.122a5.507 5.507 0 011.914-1.402c.765-.354 1.633-.53 2.603-.53.97 0 1.774.15 2.412.454.663.303 1.186.72 1.57 1.25.382.531.65 1.163.803 1.895.153.707.23 1.478.23 2.312v12.201h2.412v-12.58c0-1.162-.115-2.21-.345-3.145-.23-.935-.625-1.718-1.187-2.35-.561-.657-1.314-1.162-2.258-1.515-.919-.354-2.067-.531-3.446-.531a7.161 7.161 0 00-3.866 1.099c-1.174.707-1.99 1.655-2.45 2.842h-.077V22.352h-2.412zm20.639 0v3.828h2.412v-3.828H94.53zm0 7.503v19.553h2.412V29.855H94.53zm6.989 0v19.553h2.412V38.002c.025-.96.179-1.844.459-2.652.307-.834.715-1.541 1.225-2.122a5.509 5.509 0 011.914-1.402c.766-.354 1.634-.53 2.604-.53.969 0 1.773.15 2.411.454.664.303 1.187.72 1.57 1.25.383.531.651 1.163.804 1.895.153.707.23 1.478.23 2.312v12.201h2.411v-12.58c0-1.162-.114-2.21-.344-3.145-.23-.935-.625-1.718-1.187-2.35-.561-.657-1.314-1.162-2.258-1.515-.919-.354-2.068-.531-3.446-.531a7.159 7.159 0 00-3.866 1.099c-1.174.707-1.991 1.655-2.451 2.842h-.076v-3.373h-2.412zm20.6-7.503v27.056h2.412v-7.427l3.905-3.22 7.81 10.647h3.024l-8.997-12.315 8.423-7.238h-3.216l-10.949 9.474V22.352h-2.412zm19.869 27.056h3.216v-4.016h-3.216v4.016zm.306-18.984l.574 12.24h1.455l.574-12.24v-8.072h-2.603v8.072z" fill="#fff"/></svg>