<svg width="329" height="336" fill="none" xmlns="http://www.w3.org/2000/svg"><g clip-path="url(#clip0)"><path opacity=".5" d="M186.887 262.515c-8.228 0-14.496 6.681-14.496 14.54 0 8.253 6.66 14.541 14.496 14.541 8.228 0 14.497-6.681 14.497-14.541 0-7.859-6.661-14.54-14.497-14.54zm0 44.011c-8.228 0-14.496 6.68-14.496 14.54 0 8.252 6.66 14.54 14.496 14.54 8.228 0 14.497-6.681 14.497-14.54 0-7.86-6.661-14.54-14.497-14.54zm0-277.446c8.228 0 14.497-6.68 14.497-14.54 0-8.252-6.661-14.54-14.497-14.54-8.228 0-14.496 6.68-14.496 14.54 0 8.253 6.268 14.54 14.496 14.54zm81.496 236.968c-8.227 0-14.496 6.681-14.496 14.54 0 8.253 6.66 14.541 14.496 14.541 8.228 0 14.497-6.681 14.497-14.541 0-7.859-6.661-14.54-14.497-14.54zm4.313-135.183c-8.228 0-14.497 6.68-14.497 14.54 0 8.253 6.661 14.54 14.497 14.54 8.228 0 14.497-6.68 14.497-14.54 0-8.253-6.269-14.54-14.497-14.54zm41.141 45.193c-8.228 0-14.497 6.681-14.497 14.54 0 8.253 6.661 14.541 14.497 14.541 8.228 0 14.496-6.681 14.496-14.541 0-8.252-6.268-14.54-14.496-14.54zm-6.27 47.158c-8.228 0-14.497 6.681-14.497 14.54 0 8.253 6.661 14.541 14.497 14.541 8.228 0 14.497-6.681 14.497-14.541.392-7.859-6.269-14.54-14.497-14.54zm-5.489-77.811c0 8.253 6.661 14.54 14.497 14.54 8.228 0 14.497-6.68 14.497-14.54 0-8.253-6.661-14.54-14.497-14.54s-14.497 6.287-14.497 14.54zm5.489-30.653c8.228 0 14.497-6.68 14.497-14.54 0-8.252-6.661-14.54-14.497-14.54-8.228 0-14.497 6.68-14.497 14.54 0 8.253 6.661 14.54 14.497 14.54zM144.575 262.515c8.228 0 14.497 6.681 14.497 14.54 0 8.253-6.661 14.541-14.497 14.541-8.228 0-14.497-6.681-14.497-14.541 0-7.859 6.269-14.54 14.497-14.54zm0 44.011c8.228 0 14.497 6.68 14.497 14.54 0 8.252-6.661 14.54-14.497 14.54-8.228 0-14.497-6.681-14.497-14.54 0-7.86 6.269-14.54 14.497-14.54zm0-277.446c8.006 0 14.497-6.51 14.497-14.54S152.581 0 144.575 0s-14.497 6.51-14.497 14.54 6.491 14.54 14.497 14.54zM63.083 266.048c8.228 0 14.496 6.681 14.496 14.54 0 8.253-6.66 14.541-14.496 14.541-8.228 0-14.497-6.681-14.497-14.541 0-7.859 6.269-14.54 14.497-14.54zm-4.312-135.183c8.228 0 14.497 6.68 14.497 14.54 0 8.253-6.66 14.54-14.497 14.54-8.228 0-14.497-6.68-14.497-14.54-.392-8.253 6.27-14.54 14.497-14.54zM17.63 176.058c8.227 0 14.496 6.681 14.496 14.54 0 8.253-6.66 14.541-14.496 14.541-8.228 0-14.497-6.681-14.497-14.541 0-8.252 6.269-14.54 14.497-14.54zm5.879 47.158c8.227 0 14.496 6.681 14.496 14.54 0 8.253-6.66 14.541-14.497 14.541-8.227 0-14.496-6.681-14.496-14.541 0-7.859 6.66-14.54 14.497-14.54zm5.485-77.811c0 8.253-6.661 14.54-14.497 14.54S0 153.265 0 145.405c0-8.253 6.66-14.54 14.497-14.54 8.228 0 14.497 6.287 14.497 14.54zm-5.485-30.653c-8.228 0-14.497-6.68-14.497-14.54 0-8.252 6.66-14.54 14.497-14.54 8.227 0 14.496 6.68 14.496 14.54.392 8.253-6.269 14.54-14.497 14.54z" fill="#67D4FF"/><path d="M279.356 228.321c-2.351-2.751-3.918-6.288-3.918-9.825v-8.252c0-3.537 1.175-7.074 3.918-9.825 3.526-3.537 5.093-8.646 3.134-14.54-1.175-4.323-4.702-7.86-9.011-9.432-2.743-.786-5.486-.786-7.836-.393-3.918.786-7.837.393-10.971-1.179l-2.743-1.572c-3.526-1.965-5.877-5.501-7.052-9.038-.784-2.358-2.351-4.716-4.702-5.895-5.093-3.144-9.795-3.93-14.105-2.358-3.134 1.179-6.269.786-9.403-.393-3.918-1.572-9.403-3.93-12.538-6.681-1.567-1.179-1.175-3.536.392-4.715 3.526-1.965 8.62-5.109 12.93-7.467 3.134-1.965 6.66-2.358 10.187-1.572.783.393 1.959.393 2.742.393 6.269 0 11.754-3.93 13.713-9.825 1.176-3.143 3.527-6.287 6.661-7.859l3.918-1.965c3.134-1.965 7.053-1.965 10.971-1.179 2.35.393 5.093.393 7.836-.393 4.309-1.572 7.836-5.109 9.011-9.432 1.567-5.501 0-10.61-3.134-14.147-2.351-2.75-3.918-6.288-3.918-9.825v-6.287c0-3.537 1.175-7.074 3.526-9.825 3.134-3.144 4.701-7.467 3.918-12.575-1.176-5.895-5.877-10.61-11.754-11.79-9.404-1.572-17.24 5.502-17.24 14.54 0 3.537 1.568 7.074 3.527 9.825 2.35 2.751 3.918 6.288 3.918 9.825v5.108c0 3.537-1.176 7.467-3.527 10.218-2.35 2.75-3.918 6.288-3.918 10.218 0 1.571-9.011 5.108-9.011 5.108-3.135 1.965-7.053 2.358-10.579 1.572-1.175-.393-2.742-.393-3.918-.393-8.228 0-14.497 6.681-14.497 14.541v.786s-12.537 9.824-19.198 11.789c-1.567.393-3.526-.786-3.526-2.751-.392-3.537.392-9.038.392-9.038 0-3.537 1.567-7.074 3.918-9.825 2.35-2.751 3.526-5.895 3.526-9.825 0-3.143 15.672-11.789 15.672-11.789 3.134-1.965 6.661-2.358 10.187-1.965 2.351.393 5.093 0 7.836-1.179 3.918-1.572 7.444-5.109 8.228-9.431 1.175-5.11 0-10.218-3.526-13.755-2.351-2.75-3.918-6.288-3.918-9.824v-7.86c0-3.537 1.175-7.074 3.526-9.825 3.134-3.144 4.702-7.466 3.918-12.575-1.176-5.895-5.877-10.61-11.754-11.79-9.404-1.572-17.24 5.502-17.24 14.54 0 3.538 1.568 7.075 3.527 9.825 2.35 2.751 3.918 6.288 3.918 9.825v7.467c0 3.536-1.176 7.466-3.527 9.824-2.35 2.751-3.918 6.288-3.918 10.218 0 3.537-16.064 12.182-16.064 12.182-1.959 1.18-4.701 0-4.701-2.358v-5.502c0-3.536 1.175-7.073 3.526-9.824 3.134-3.144 4.702-7.467 3.918-12.575-1.175-5.895-5.877-10.611-11.754-11.79-8.62-1.572-16.456 5.502-16.456 14.54 0 3.537 1.567 7.074 3.526 9.825 2.351 2.75 3.918 6.288 3.918 9.825v4.322c0 3.537-1.567 7.074-3.918 10.218-2.35 2.358-3.526 5.895-3.526 9.431 0 3.537 1.567 7.074 3.526 9.825 2.351 2.751 3.918 6.288 3.918 9.825v4.322c0 3.537-1.567 7.074-3.918 9.825-1.175 1.179-2.742 1.965-4.701 1.965h-10.971c-1.959 0-3.526-.786-4.701-1.965-2.351-2.751-3.918-6.288-3.918-9.825v-4.322c0-3.537 1.567-7.074 3.918-9.825 2.35-2.751 3.526-5.895 3.526-9.825 0-3.536-1.567-7.073-3.526-9.824-2.351-2.751-3.918-6.288-3.918-10.218v-4.323c0-3.536 1.567-7.073 3.918-9.824 2.35-2.75 3.526-5.895 3.526-9.825 0-9.038-7.836-16.112-17.239-14.54-5.878 1.179-10.579 5.895-11.755 11.79-.783 4.715.784 9.431 3.527 12.575 2.35 2.75 3.526 6.288 3.526 9.825v5.501c0 2.358-2.743 3.93-4.702 2.358 0 0-16.064-8.645-16.064-12.182 0-3.93-1.567-7.467-3.918-10.218-2.351-2.75-3.526-6.288-3.526-9.824v-7.467c0-3.537 1.567-7.074 3.918-9.825 2.351-2.75 3.526-5.894 3.526-9.824 0-9.039-7.836-16.112-17.24-14.54-5.876 1.178-10.578 5.894-11.753 11.789-.784 4.716.783 9.431 3.918 12.575 2.35 2.751 3.526 6.288 3.526 9.825v7.86c0 3.536-1.175 7.073-3.918 9.824-3.134 3.537-4.702 8.253-3.526 13.755 1.175 4.322 4.31 7.86 8.228 9.431 2.742 1.18 5.485 1.572 7.836 1.18 3.526-.394 7.052 0 10.187 1.964 0 0 15.28 8.646 15.672 11.789 0 3.537 1.567 7.074 3.526 9.825 2.351 2.751 3.918 6.288 3.918 9.825 0 0 .784 5.501.392 9.038 0 1.572-1.959 3.144-3.526 2.751-7.053-1.965-19.199-11.789-19.199-11.789v-.786c0-8.253-6.66-14.541-14.497-14.541-1.175 0-2.742 0-3.918.393-3.526 1.179-7.444.393-10.578-1.572 0 0-8.62-3.537-9.012-5.108-.391-3.93-1.567-7.467-3.918-10.218-2.742-2.75-3.526-6.288-3.526-10.218v-4.715c0-3.537 1.567-7.074 3.918-9.825 2.35-2.75 3.526-5.895 3.526-9.824 0-9.039-7.836-16.113-17.24-14.54-5.876 1.178-10.578 5.894-11.753 11.789-.784 4.715.783 9.431 3.526 12.575 2.35 2.751 3.526 6.288 3.526 9.825v5.894c0 3.537-1.175 7.074-3.918 9.825-3.134 3.537-4.701 8.646-3.134 14.147 1.175 4.323 4.701 7.86 9.011 9.432 2.743.786 5.486 1.179 7.836.393 3.527-.786 7.445-.393 10.97 1.179l3.919 1.965c3.134 1.572 5.485 4.323 6.66 7.859 1.96 5.502 7.445 9.825 13.714 9.825 1.175 0 1.959 0 3.134-.393 3.526-.786 7.053-.393 10.187 1.572 4.31 2.358 9.795 5.502 12.93 7.467 1.567.786 1.959 3.536.391 4.715-3.134 2.358-8.619 4.716-12.537 6.681-2.743 1.179-6.269 1.572-9.012.393-4.31-1.572-9.011-1.179-14.105 2.358-2.35 1.572-3.526 3.537-4.701 5.895-1.176 3.93-3.527 7.073-7.053 9.038l-2.742 1.572c-3.527 1.965-7.445 1.965-10.971 1.179-2.35-.393-5.093-.393-7.836.393-4.31 1.572-7.836 5.109-9.012 9.432-1.567 5.502 0 10.61 3.135 14.54 2.35 2.751 3.918 6.288 3.918 9.825v8.252c0 3.537-1.567 7.074-3.918 9.825-2.351 2.751-3.526 5.895-3.526 9.824 0 9.039 7.836 16.113 17.239 14.541 5.877-1.179 10.579-5.895 11.754-11.79.784-4.715-.784-9.431-3.918-12.575-2.35-2.751-3.526-6.288-3.526-9.825v-8.252c0-3.537 1.567-7.074 3.918-9.825 1.175-1.572 2.35-3.144 3.134-5.109 1.176-3.536 3.526-6.287 6.66-7.859 1.96-1.179 3.135-1.965 3.135-1.965 3.135-1.965 7.053-1.965 10.97-1.179 3.919.786 8.229.393 12.93-2.751 2.351-1.572 4.31-4.323 4.702-7.074.784-3.537 2.743-6.287 5.877-8.252 4.31-2.751 9.795-6.288 13.713-7.467 1.567-.393 3.135.786 3.526 2.358.392 3.537-.391 9.431-.391 9.431 0 3.537-1.568 7.074-3.918 9.825-2.351 2.751-3.527 5.895-3.527 9.825 0 1.964-8.227 6.68-14.496 9.824-3.135 1.572-7.053 1.965-10.579 1.179-2.351-.393-5.094-.393-7.836.786-4.31 1.572-7.836 5.109-9.012 9.432-1.567 5.501 0 10.61 3.135 14.147 2.35 2.751 3.918 6.288 3.918 9.825v7.859c0 3.537-1.567 7.074-3.918 9.825-2.351 2.751-3.526 5.895-3.526 9.824 0 3.537 1.567 7.074 3.526 9.825 2.35 2.751 3.918 6.288 3.918 9.824v7.467c0 3.537-1.567 7.074-3.918 9.825-2.351 2.751-3.526 5.894-3.526 9.824 0 9.039 7.836 16.113 17.239 14.541 5.877-1.179 10.579-5.895 11.754-11.79.784-4.716-.784-9.431-3.918-12.575-2.351-2.751-3.526-6.288-3.526-9.825v-7.467c0-3.536 1.567-7.073 3.918-9.824 2.351-2.751 3.526-5.895 3.526-9.825 0-3.536-1.567-7.073-3.526-9.824-2.351-2.751-3.918-6.288-3.918-10.218v-7.859c0-3.537 1.567-7.074 3.918-9.825 2.351-2.751 3.526-5.895 3.918-9.825 0-2.357 10.97-9.824 17.631-12.182 1.959-.786 3.526.786 3.918 2.751 0 3.537-.784 8.253-.784 8.253 0 3.536-1.567 7.073-3.918 9.824-2.35 2.751-3.526 5.895-3.526 9.825 0 9.038 8.228 16.112 17.24 14.54 5.877-1.179 10.578-5.895 11.754-11.789.783-4.716-.784-9.432-3.918-12.576-2.351-2.751-3.918-6.288-3.918-9.824v-4.323c0-3.537 1.567-7.074 3.918-10.218 2.35-2.751 3.526-5.895 3.526-9.824 0-3.537-1.567-7.074-3.526-9.825-2.351-2.751-3.918-6.288-3.918-10.218v-3.929c0-3.93 1.175-7.467 3.918-10.218.391-.393.783-.786.783-1.179 1.176-1.572 3.135-2.358 5.094-2.358h8.619c1.959 0 3.918 1.179 5.094 2.751l.392.393c2.35 2.751 3.918 6.288 3.918 10.218v4.322c0 3.537-1.568 7.074-3.918 10.218-2.351 2.751-3.527 5.895-3.527 9.825 0 3.536 1.568 7.073 3.527 9.824 2.35 2.751 3.918 6.288 3.918 10.218v4.323c0 3.536-1.176 7.073-3.918 9.824-3.135 3.144-4.702 7.467-3.918 12.576 1.175 5.894 5.877 10.61 11.754 11.789 9.403 1.572 17.239-5.502 17.239-14.54 0-3.537-1.567-7.074-3.526-9.825-2.351-2.751-3.918-6.288-3.918-9.824 0 0-.784-4.716-.784-8.253 0-1.965 1.959-3.144 3.918-2.751 6.661 2.358 17.631 10.218 17.631 12.182 0 3.93 1.568 7.074 3.918 9.825 2.351 2.751 3.918 6.288 3.918 9.825v7.859c0 3.537-1.567 7.074-3.918 9.825-2.35 2.751-3.526 5.895-3.526 9.824 0 3.537 1.567 7.074 3.526 9.825 2.351 2.751 3.918 6.288 3.918 9.824v7.467c0 3.537-1.175 7.074-3.526 9.825-3.134 3.144-4.701 7.466-3.918 12.575 1.176 5.895 5.877 10.611 11.754 11.79 9.404 1.572 17.24-5.502 17.24-14.541 0-3.537-1.568-7.073-3.527-9.824-2.35-2.751-3.918-6.288-3.918-9.825v-7.467c0-3.536 1.568-7.073 3.918-9.824 2.351-2.751 3.527-5.895 3.527-9.825 0-3.537-1.568-7.073-3.527-9.824-2.35-2.751-3.918-6.288-3.918-9.825v-7.859c0-3.537 1.176-7.074 3.918-9.825 3.135-3.537 4.702-8.646 3.135-14.147-1.176-4.323-4.702-7.86-9.012-9.432-2.742-1.179-5.485-1.179-7.836-.786-3.526.786-7.052.393-10.578-1.179-5.877-3.144-14.105-7.859-14.497-9.824-.392-3.537-1.567-7.074-3.526-9.825-2.351-2.751-3.918-6.288-3.918-9.825 0 0-.784-5.894-.392-9.431 0-1.572 1.959-2.751 3.526-2.358 3.918 1.179 9.403 4.716 13.713 7.467 2.743 1.965 5.094 4.715 5.877 8.252.784 2.751 2.351 5.502 4.702 7.074 4.31 3.144 9.011 3.537 12.929 2.751 3.527-.786 7.445-.393 10.971 1.179 0 0 1.567.786 3.134 1.965 3.135 1.572 5.486 4.716 6.661 7.859.784 1.965 1.567 3.537 3.134 5.109 2.351 2.751 3.919 6.288 3.919 9.825v8.252c0 3.537-1.176 7.074-3.527 9.825-3.134 3.144-4.701 7.467-3.918 12.575 1.176 5.895 5.877 10.611 11.754 11.79 9.404 1.572 17.24-5.502 17.24-14.541-.392-3.143-1.959-6.287-3.918-9.038z" fill="#079DD9"/></g><defs><clipPath id="clip0"><path fill="#fff" d="M0 0h329v336H0z"/></clipPath></defs></svg>