<svg width="47" height="47" fill="none" xmlns="http://www.w3.org/2000/svg"><path d="M43.847 12.279c-2.101-3.6-4.952-6.451-8.552-8.553-3.6-2.1-7.531-3.151-11.795-3.151s-8.196 1.05-11.796 3.151c-3.6 2.102-6.45 4.952-8.552 8.553C1.05 15.879 0 19.81 0 24.074c0 5.12 1.494 9.725 4.483 13.815 2.988 4.09 6.849 6.92 11.581 8.49.55.103.959.031 1.224-.213.265-.245.398-.551.398-.918l-.016-1.652c-.01-1.04-.015-1.948-.015-2.723l-.704.122c-.449.082-1.015.117-1.698.107a12.945 12.945 0 01-2.127-.214 4.752 4.752 0 01-2.05-.917 3.883 3.883 0 01-1.346-1.882l-.306-.704c-.204-.469-.525-.99-.964-1.56-.439-.572-.882-.96-1.33-1.163l-.215-.153a2.251 2.251 0 01-.398-.368 1.679 1.679 0 01-.275-.428c-.061-.143-.01-.26.153-.353.163-.092.459-.136.887-.136l.612.09c.408.083.913.327 1.515.735a4.938 4.938 0 011.484 1.59c.469.837 1.035 1.475 1.698 1.913.663.44 1.33.658 2.004.658a8.7 8.7 0 001.744-.153c.49-.102.948-.255 1.377-.459.183-1.367.683-2.417 1.499-3.152a20.953 20.953 0 01-3.136-.55c-.928-.245-1.887-.643-2.876-1.194-.99-.55-1.811-1.234-2.464-2.05-.652-.816-1.188-1.887-1.606-3.213-.418-1.326-.627-2.856-.627-4.59 0-2.468.806-4.57 2.418-6.303-.755-1.856-.684-3.937.213-6.242.592-.184 1.47-.046 2.632.413 1.163.459 2.014.852 2.555 1.178.54.326.974.602 1.3.826a21.726 21.726 0 015.875-.795c2.02 0 3.978.265 5.876.795l1.163-.734c.795-.49 1.734-.938 2.814-1.346 1.081-.408 1.908-.52 2.48-.337.917 2.306.999 4.386.244 6.242 1.611 1.734 2.417 3.835 2.417 6.304 0 1.733-.21 3.268-.627 4.604-.418 1.337-.958 2.407-1.62 3.213-.664.806-1.49 1.484-2.48 2.035-.99.55-1.948.948-2.876 1.193a20.93 20.93 0 01-3.137.552c1.06.917 1.591 2.366 1.591 4.345v6.455c0 .367.128.673.383.918.255.244.657.316 1.208.214 4.733-1.57 8.594-4.401 11.582-8.491C45.505 33.798 47 29.194 47 24.073c-.001-4.262-1.053-8.194-3.153-11.794z" fill="#fff"/></svg>