<svg width="160" height="63" fill="none" xmlns="http://www.w3.org/2000/svg"><g clip-path="url(#clip0)"><path d="M29.117 30.031h-5.274l1.142-5.241h4.878c1.606 0 2.55.876 2.55 2.154 0 1.684-1.218 3.087-3.296 3.087zm8.704-3.604c0-3.6-2.74-6.242-7.528-6.242h-9.747l-4.77 22.019h5.431l1.644-7.563h3.178l3.16 7.563h5.416l-3.367-7.927c4.037-.641 6.583-3.925 6.583-7.85zm9.369 7.534l4.656-8.118 1.761 8.118H47.19zm2.455-13.776L37.027 42.204h5.417l2.11-3.652h10.05l.793 3.652h5.417l-4.756-22.02h-6.413zm26.72 9.846h-4.818l1.134-5.241h4.193c1.653 0 2.668.799 2.668 2.154 0 1.684-1.251 3.087-3.173 3.087h-.005zm1.062-9.846h-9.185l-4.77 22.019h5.421l1.653-7.573H76.6c5.176 0 8.312-3.954 8.312-8.123 0-3.715-2.858-6.319-7.49-6.319m17.982-.004h-5.43l-4.78 22.019h5.431l4.78-22.02z" fill="#fff"/><path d="M134.297 20.185h-17.123c.26.268.52.545.756.837 1.917 2.355 2.928 5.314 2.928 8.569 0 5.026-2.088 9.559-5.441 12.613h10.484l4.982-12.551h-6.233l1.038-4.868h12.382l-6.502 17.419h2.55c5.936.038 9.95-4.96 9.95-11.029 0-6.07-3.825-10.99-9.775-10.99" fill="#E95F26"/><path d="M104.065 37.609h-2.999l2.786-12.82h2.834c3.107 0 4.85 2.36 4.85 5.314 0 3.973-2.796 7.506-7.462 7.506h-.009zm10.88-13.834c-1.861-2.298-4.935-3.59-8.561-3.59h-6.961l-4.784 22.019h8.76c3.4 0 6.016-.766 8.014-1.986 4.061-2.5 5.501-6.894 5.501-10.627 0-2.327-.718-4.299-1.964-5.816" fill="#fff"/></g><defs><clipPath id="clip0"><path fill="#fff" transform="translate(15.777 20.185)" d="M0 0h128.447v22.019H0z"/></clipPath></defs></svg>