<svg width="146" height="59" fill="none" xmlns="http://www.w3.org/2000/svg"><g clip-path="url(#clip0)"><path d="M26.759 16.832L10.082 28.377v2.416l16.677 11.595V16.833z" fill="#465C6B"/><path d="M26.759 19.163L9.99 28.41v2.33l16.769 9.317V19.163z" fill="#748087"/><path d="M26.759 21.286L9.99 28.72v1.645L26.76 37.8V21.286z" fill="#fff"/><path d="M6.809 30.314H.6l-.117-.199v-1.122l.07-.17h6.256s.916-.446 1.281-.446h1.987v2.416h-2.16s-1.024-.327-1.108-.479z" fill="#A5B3BB"/><path d="M4.571 29.42H3.133v.344h1.438v-.344zm2.238-.597h-.763v1.49h.763v-1.49zm-5.667 0v1.49H.605l-.122-.206v-1.114l.07-.17h.589zm8.334-.446h-.919v2.416h.919v-2.416z" fill="#262B30"/><path d="M33.38 36.94V22.279h4.373a6.939 6.939 0 013.477.867 5.921 5.921 0 012.36 2.455 7.735 7.735 0 01.834 3.646v.737a7.717 7.717 0 01-.84 3.665 5.867 5.867 0 01-2.394 2.436 7.244 7.244 0 01-3.56.856h-4.25zm2.575-12.607V34.89h1.682c1.35 0 2.388-.417 3.111-1.252.724-.834 1.092-2.032 1.105-3.592v-.82c0-1.586-.349-2.799-1.047-3.638-.7-.84-1.717-1.258-3.053-1.255h-1.798zM53.354 36.94a3.748 3.748 0 01-.285-1.016 4.194 4.194 0 01-5.603.28 2.998 2.998 0 01-.784-1.043 2.966 2.966 0 01-.264-1.273c0-1.162.436-2.053 1.309-2.673.872-.62 2.12-.93 3.742-.93h1.518v-.718a1.899 1.899 0 00-.477-1.352c-.32-.34-.806-.509-1.458-.509a2.205 2.205 0 00-1.386.418 1.295 1.295 0 00-.539 1.063h-2.483c.004-.61.216-1.2.6-1.677a4.016 4.016 0 011.635-1.228 5.825 5.825 0 012.307-.442c1.292 0 2.32.321 3.087.963.767.641 1.16 1.542 1.182 2.7v4.91c-.031.807.114 1.61.428 2.355v.172h-2.529zm-2.72-1.763a2.84 2.84 0 001.382-.353 2.36 2.36 0 00.97-.945v-2.046h-1.325c-.916 0-1.606.158-2.07.474a1.52 1.52 0 00-.693 1.34 1.42 1.42 0 00.475 1.123c.355.286.805.431 1.262.407zm13.196-6.898a6.41 6.41 0 00-1.008-.079c-1.133 0-1.897.43-2.293 1.29v7.45h-2.483V26.046h2.362l.062 1.227c.6-.944 1.427-1.417 2.483-1.419a2.34 2.34 0 01.874.14l.003 2.286zm5.14 3.99l-1.1 1.117v3.555h-2.483V21.473h2.483v8.922l.773-.957 3.047-3.393h2.98l-4.093 4.542 4.525 6.354H72.24l-3.269-4.672z" fill="#fff"/><path d="M84.269 33.164a1.747 1.747 0 00-.688-1.49c-.457-.349-1.285-.701-2.484-1.058a12.04 12.04 0 01-2.853-1.189c-1.351-.84-2.027-1.933-2.027-3.282a3.54 3.54 0 01.375-1.635 3.586 3.586 0 011.088-1.287c.974-.762 2.238-1.145 3.792-1.146a6.447 6.447 0 012.762.564 4.52 4.52 0 011.905 1.606c.459.685.7 1.49.693 2.31h-2.563a2.25 2.25 0 00-.728-1.782c-.496-.43-1.18-.643-2.084-.643-.842 0-1.495.176-1.959.53-.23.173-.412.4-.534.658a1.745 1.745 0 00-.164.827 1.592 1.592 0 00.745 1.338c.497.359 1.325.707 2.484 1.044.975.26 1.91.65 2.781 1.156.63.364 1.158.876 1.537 1.49.339.6.51 1.278.497 1.965a3.458 3.458 0 01-.341 1.63 3.5 3.5 0 01-1.067 1.289c-.949.722-2.234 1.083-3.857 1.083a7.305 7.305 0 01-2.958-.59 4.959 4.959 0 01-2.098-1.625 4.026 4.026 0 01-.745-2.418h2.578a2.353 2.353 0 00.834 1.934c.56.457 1.358.685 2.394.685.897 0 1.572-.181 2.022-.54a1.739 1.739 0 00.663-1.424zm9.451 3.978c-1.567 0-2.839-.491-3.814-1.473-.975-.982-1.462-2.283-1.46-3.902v-.294a6.48 6.48 0 01.636-2.917 4.818 4.818 0 011.788-1.998 4.774 4.774 0 012.568-.715c1.5 0 2.659.473 3.477 1.42.817.945 1.227 2.285 1.229 4.018v.982h-7.202c.03.798.354 1.557.911 2.134a2.735 2.735 0 002.012.785 3.377 3.377 0 001.553-.344c.482-.237.9-.585 1.216-1.016l1.336 1.26a4.441 4.441 0 01-1.768 1.515 5.561 5.561 0 01-2.481.545zm-.295-9.33a2.1 2.1 0 00-1.644.705 3.64 3.64 0 00-.8 1.964h4.72v-.182c-.055-.818-.276-1.438-.661-1.858a2.07 2.07 0 00-1.615-.634v.005zm13.223 9.128a3.832 3.832 0 01-.286-1.016 4.192 4.192 0 01-5.6.28 2.989 2.989 0 01-.786-1.042 2.96 2.96 0 01-.265-1.273c0-1.162.437-2.053 1.309-2.674.873-.62 2.121-.93 3.745-.93h1.518v-.717a1.9 1.9 0 00-.482-1.353c-.321-.339-.805-.508-1.458-.508a2.191 2.191 0 00-1.383.417 1.294 1.294 0 00-.542 1.063h-2.483c.004-.61.216-1.2.601-1.677a4.026 4.026 0 011.636-1.227 5.813 5.813 0 012.308-.442c1.288 0 2.317.32 3.087.962.77.642 1.163 1.542 1.179 2.701v4.91a5.477 5.477 0 00.42 2.347v.172l-2.518.008zm-2.732-1.762c.486.003.964-.12 1.388-.354.411-.214.75-.542.974-.945v-2.045h-1.336c-.918 0-1.606.158-2.067.474a1.532 1.532 0 00-.693 1.34 1.419 1.419 0 00.475 1.122c.357.29.811.435 1.271.408h-.012zm13.204-6.9a6.448 6.448 0 00-1.008-.078c-1.136 0-1.9.43-2.292 1.289v7.451h-2.484V26.044h2.365l.059 1.228c.6-.945 1.427-1.418 2.484-1.42.298-.008.596.04.876.14v2.286zm5.898 6.91c.562.02 1.111-.17 1.538-.533a1.808 1.808 0 00.65-1.32h2.335a3.564 3.564 0 01-.631 1.9 4.208 4.208 0 01-1.629 1.394 4.916 4.916 0 01-2.22.513c-1.542 0-2.764-.491-3.668-1.473-.904-.982-1.356-2.345-1.354-4.088v-.246c0-1.656.448-2.983 1.344-3.982.895-.998 2.118-1.497 3.668-1.495 1.308 0 2.376.377 3.203 1.132a4.023 4.023 0 011.299 2.976h-2.334a2.224 2.224 0 00-.646-1.54 2.102 2.102 0 00-1.542-.604 2.204 2.204 0 00-1.036.201c-.323.15-.605.376-.819.658-.434.575-.655 1.446-.663 2.615v.393c0 1.18.216 2.06.648 2.642a2.193 2.193 0 001.857.857zm8.832-7.955a3.87 3.87 0 011.371-1.042c.531-.24 1.11-.36 1.693-.348 2.35 0 3.542 1.326 3.577 3.978v7.12h-2.484v-7.03c0-.75-.165-1.283-.496-1.595a2.034 2.034 0 00-1.451-.47 2.406 2.406 0 00-1.305.332 2.369 2.369 0 00-.915.977v7.786h-2.484V21.473h2.484l.01 5.76z" fill="#A5B3BB"/></g><defs><clipPath id="clip0"><path fill="#fff" transform="translate(.252 16.612)" d="M0 0h145.495v25.777H0z"/></clipPath></defs></svg>