<svg width="140" height="57" fill="none" xmlns="http://www.w3.org/2000/svg"><g clip-path="url(#clip0)"><path d="M4.582 38.07V18.502h6.02c1.72 0 3.257.39 4.61 1.17 1.362.77 2.424 1.872 3.185 3.305.762 1.425 1.143 3.047 1.143 4.866v.9c0 1.819-.377 3.436-1.13 4.852-.743 1.415-1.796 2.513-3.157 3.292-1.362.78-2.899 1.174-4.61 1.183H4.582zm4.031-16.302V34.83h1.95c1.576 0 2.781-.515 3.614-1.546.834-1.03 1.26-2.504 1.277-4.421v-1.035c0-1.989-.412-3.494-1.236-4.516-.825-1.03-2.03-1.545-3.616-1.545H8.613zm21.114 9.139h-3.212v7.163h-4.032V18.502h7.27c2.313 0 4.096.515 5.35 1.546 1.254 1.03 1.881 2.486 1.881 4.367 0 1.335-.29 2.45-.873 3.347-.574.887-1.447 1.595-2.62 2.123l4.233 7.997v.188h-4.328l-3.669-7.163zm-3.212-3.266h3.252c1.013 0 1.797-.255 2.352-.766.556-.52.834-1.232.834-2.137 0-.923-.265-1.649-.793-2.177-.52-.529-1.322-.793-2.406-.793h-3.24v5.873z" opacity=".75" fill="#569164"/><path opacity=".75" fill-rule="evenodd" clip-rule="evenodd" d="M3.93 17.85h6.672c1.822 0 3.472.414 4.933 1.255 1.473.834 2.62 2.028 3.437 3.566.818 1.53 1.219 3.26 1.219 5.172v.9c0 1.91-.396 3.635-1.204 5.156a8.643 8.643 0 01-3.411 3.554c-1.468.84-3.117 1.26-4.93 1.269H3.93V17.85zm1.303 1.304v18.265h5.408c1.608-.009 3.032-.378 4.288-1.097a7.343 7.343 0 002.905-3.03l.001-.003c.696-1.31 1.053-2.82 1.053-4.546v-.9c0-1.726-.36-3.24-1.066-4.558v-.002c-.706-1.328-1.681-2.338-2.93-3.045l-.005-.002c-1.245-.717-2.667-1.082-4.285-1.082h-5.37zM21.83 17.85h7.922c2.4 0 4.352.534 5.763 1.693 1.43 1.175 2.12 2.83 2.12 4.872 0 1.43-.313 2.676-.98 3.701-.543.84-1.311 1.521-2.278 2.053l3.997 7.55v1.002h-5.378l-3.669-7.164h-2.162v7.164H21.83V17.85zm1.303 1.303v18.265h2.73v-7.164h4.261l3.669 7.164h2.947l-4.152-7.842.633-.286c1.085-.488 1.85-1.122 2.341-1.883l.001-.001c.499-.767.769-1.751.769-2.991 0-1.722-.565-2.979-1.644-3.865-1.097-.901-2.712-1.397-4.936-1.397h-6.619zM7.962 21.116h2.64c1.739 0 3.15.574 4.123 1.79.955 1.183 1.38 2.86 1.38 4.923v1.041c-.018 2-.462 3.64-1.421 4.825-.981 1.213-2.39 1.788-4.122 1.788h-2.6V21.116zm1.303 1.303v11.76h1.297c1.422 0 2.423-.455 3.109-1.303.707-.874 1.114-2.182 1.131-4.015v-1.032c0-1.913-.398-3.247-1.092-4.106l-.001-.002c-.676-.845-1.675-1.302-3.107-1.302H9.265zm16.598-1.303h3.89c1.177 0 2.18.287 2.869.986.677.678.982 1.584.982 2.636 0 1.048-.328 1.947-1.04 2.613l-.004.004c-.712.654-1.674.938-2.793.938h-3.904v-7.177zm1.303 1.303v4.57h2.601c.904 0 1.51-.226 1.909-.592.398-.373.625-.898.625-1.659 0-.793-.223-1.337-.603-1.716l-.003-.004c-.35-.357-.951-.599-1.942-.599h-2.587z" fill="#484848"/><path d="M54.026 39.406c6.176 0 11.182-5.007 11.182-11.182 0-6.176-5.006-11.182-11.181-11.182-6.176 0-11.182 5.006-11.182 11.182 0 6.175 5.006 11.182 11.181 11.182z" fill="#357B00"/><path d="M54.026 37.542a9.318 9.318 0 100-18.636 9.318 9.318 0 000 18.636z" fill="url(#paint0_linear)"/><path d="M54.027 34.746a6.523 6.523 0 100-13.045 6.523 6.523 0 000 13.045z" stroke="#84D000" stroke-width=".74"/><path d="M54.026 31.02a2.795 2.795 0 100-5.591 2.795 2.795 0 000 5.59z" stroke="#84D000" stroke-width=".471"/><path d="M38.185 28.224h29.819M54.026 13.315v29.818" stroke="#679F00" stroke-opacity=".8" stroke-width=".471"/><path d="M86.861 38.07H82.83l-7.848-12.875V38.07H70.95V18.502h4.032l7.862 12.902V18.502h4.018V38.07zm15.294-8.48h-7.74v5.241h9.084v3.239H90.382V18.502h13.091v3.266h-9.059v4.663h7.741v3.159zm3.71 8.48V18.502h6.854c2.374 0 4.175.457 5.403 1.37 1.227.906 1.841 2.236 1.841 3.992 0 .959-.246 1.806-.739 2.54-.493.726-1.178 1.26-2.057 1.6 1.004.25 1.792.757 2.366 1.518.582.762.873 1.694.873 2.796 0 1.881-.6 3.306-1.801 4.274-1.2.967-2.911 1.46-5.133 1.478h-7.607zm4.032-8.52v5.281h3.454c.949 0 1.689-.224 2.217-.672.538-.457.807-1.084.807-1.881 0-1.792-.928-2.702-2.782-2.729h-3.696zm0-2.85h2.983c2.034-.036 3.051-.847 3.051-2.433 0-.886-.26-1.523-.779-1.908-.511-.394-1.322-.591-2.433-.591h-2.822V26.7zm17.579 8.131h8.561v3.239h-12.593V18.502h4.032v16.33z" opacity=".75" fill="#5AAA6C"/><path opacity=".75" fill-rule="evenodd" clip-rule="evenodd" d="M70.297 17.85h5.05l6.844 11.233V17.85h5.321v20.87h-5.049l-6.831-11.206v11.207h-5.335V17.85zm1.303 1.304v18.265h2.729V22.875l8.866 14.544h3.014V19.154h-2.715v14.571l-8.88-14.571H71.6zm18.13-1.303h14.394v4.568h-9.059v3.36h7.742v4.462h-7.742v3.939h9.086v4.542h-14.42V17.85zm1.303 1.303v18.265h11.815v-1.936h-9.086v-6.545h7.742v-1.855h-7.742v-5.967h9.059v-1.962H91.034zm14.18-1.303h7.506c2.441 0 4.404.467 5.79 1.498 1.42 1.048 2.105 2.589 2.105 4.515 0 1.077-.279 2.052-.85 2.903l-.002.004a4.776 4.776 0 01-1.084 1.14c.533.308.994.714 1.374 1.218.68.891 1.006 1.967 1.006 3.189 0 2.03-.656 3.663-2.044 4.781-1.356 1.093-3.232 1.604-5.538 1.623h-8.263V17.85zm1.303 1.303v18.265h6.952c2.137-.018 3.683-.492 4.728-1.334 1.014-.817 1.559-2.035 1.559-3.767 0-.981-.257-1.768-.74-2.4l-.003-.004c-.476-.632-1.131-1.06-2.003-1.278l-1.991-.498 1.914-.742c.763-.296 1.338-.748 1.751-1.356.414-.618.628-1.335.628-2.175 0-1.585-.542-2.705-1.576-3.468l-.003-.002c-1.068-.795-2.707-1.241-5.013-1.241h-6.203zm16.276-1.303h5.335V34.18h8.561v4.542h-13.896V17.85zm1.303 1.303v18.265h11.29v-1.936h-8.561v-16.33h-2.729zm-14.85 1.962h3.474c1.158 0 2.144.2 2.825.724.739.55 1.038 1.419 1.038 2.428 0 .943-.31 1.75-1.008 2.307-.668.533-1.598.758-2.683.777h-3.646v-6.236zm1.303 1.303v3.63h2.326c.946-.018 1.54-.216 1.888-.493.319-.255.517-.646.517-1.288 0-.763-.219-1.165-.516-1.385l-.01-.008c-.34-.262-.974-.456-2.034-.456h-2.171zm-1.303 6.479h4.357c1.023.015 1.907.275 2.533.889.63.617.891 1.488.891 2.49 0 .961-.333 1.78-1.036 2.379-.684.579-1.593.827-2.64.827h-4.105v-6.585zm1.303 1.303v3.979h2.802c.852 0 1.422-.2 1.796-.517m-4.598-3.462h3.039c.829.013 1.335.22 1.636.516.297.291.5.772.5 1.56 0 .634-.206 1.07-.577 1.386" fill="#484848"/></g><defs><linearGradient id="paint0_linear" x1="44.708" y1="18.906" x2="44.708" y2="37.542" gradientUnits="userSpaceOnUse"><stop stop-color="#2BBD49"/><stop offset=".6" stop-color="#1B602D"/></linearGradient><clipPath id="clip0"><path fill="#fff" transform="translate(2.633 13.315)" d="M0 0h134.181v29.818H0z"/></clipPath></defs></svg>