<svg width="138" height="23" fill="none" xmlns="http://www.w3.org/2000/svg"><path fill-rule="evenodd" clip-rule="evenodd" d="M11.63 23v-4.416c4.779 0 8.474-4.638 6.65-9.564-.676-1.824-2.161-3.28-4.022-3.942-5.024-1.787-9.753 1.835-9.754 6.52l-.001.001H0C0 4.134 7.356-1.679 15.335.763c3.487 1.067 6.258 3.784 7.347 7.202C25.172 15.788 19.244 23 11.629 23z" fill="#086EFF"/><path fill-rule="evenodd" clip-rule="evenodd" d="M11.64 18.596H7.148v-4.402h4.49v4.402zm-4.492 3.382h-3.45v-3.382h3.45v3.382zm-3.447-3.382H.809l-.002-.001V15.76l.002-.002H3.7l.002.001v2.836zM34.725 7.642h1.323c1.472 0 2.684.284 3.602.844 1.02.603 1.538 1.75 1.538 3.41 0 1.71-.519 2.908-1.541 3.564-.88.571-2.085.86-3.58.86h-1.342V7.642zm6.678-.852c-1.331-.905-2.988-1.364-4.925-1.364h-4.215v13.111h4.215c1.932 0 3.59-.485 4.927-1.44.728-.506 1.3-1.214 1.7-2.103.398-.883.6-1.926.6-3.098 0-1.158-.202-2.187-.6-3.059-.4-.876-.973-1.564-1.701-2.046zm5.236-1.526a1.43 1.43 0 00-1.035.417 1.318 1.318 0 00-.43 1c0 .398.145.74.428 1.018.283.277.632.418 1.037.418.405 0 .754-.14 1.037-.418.284-.279.428-.62.428-1.017a1.32 1.32 0 00-.428-1 1.434 1.434 0 00-1.037-.418zm-1.208 13.273h2.37V9.302h-2.37v9.235zm10.356-3.01c-.414.462-.946.686-1.626.686-.68 0-1.208-.224-1.616-.685-.407-.458-.613-1.066-.613-1.806 0-.752.206-1.367.613-1.829.403-.457.946-.688 1.616-.688.68 0 1.212.225 1.626.69.413.46.622 1.076.622 1.827 0 .74-.21 1.347-.622 1.806zm.622-5.453c-.715-.623-1.513-.987-2.376-.987-1.308 0-2.396.444-3.231 1.318-.847.867-1.277 1.983-1.277 3.317 0 1.304.423 2.416 1.258 3.308.843.863 1.936 1.3 3.25 1.3.914 0 1.7-.249 2.34-.742v.213c0 .766-.21 1.362-.622 1.772-.413.408-.984.615-1.7.615-1.093 0-1.78-.421-2.614-1.527l-1.614 1.52.044.06c.348.48.882.95 1.587 1.395.705.445 1.591.67 2.634.67 1.407 0 2.546-.425 3.384-1.263.843-.843 1.27-1.972 1.27-3.354V9.302H56.41v.772zm4.362 8.463h2.37V9.302h-2.37v9.235zm1.208-13.273a1.43 1.43 0 00-1.036.417 1.318 1.318 0 00-.429 1c0 .398.144.74.427 1.018.283.277.632.418 1.038.418.404 0 .754-.14 1.037-.418.284-.279.427-.62.427-1.017a1.32 1.32 0 00-.427-1 1.433 1.433 0 00-1.037-.418zm6.357 1.543h-2.334v2.495h-1.355v2.118h1.355v3.836c0 1.2.245 2.06.728 2.552.484.496 1.343.747 2.554.747.385 0 .772-.012 1.151-.037l.107-.007v-2.116l-.813.042c-.564 0-.94-.098-1.12-.289-.181-.194-.273-.605-.273-1.221V11.42h2.206V9.302h-2.206V6.807zm13.32 11.73h2.37V5.426h-2.37v13.111zm26.315-3.302c-.424.466-.858.87-1.192 1.08-.328.206-.741.31-1.229.31-.698 0-1.26-.249-1.717-.762-.455-.511-.686-1.168-.686-1.952 0-.785.228-1.44.677-1.948.451-.51 1.01-.758 1.708-.758.763 0 1.568.465 2.258 1.264l1.566-1.472c-1.021-1.304-2.324-1.91-3.879-1.91-1.301 0-2.43.465-3.353 1.38-.918.91-1.384 2.069-1.384 3.444 0 1.374.465 2.536 1.383 3.451.918.917 2.047 1.382 3.354 1.382 1.716 0 3.101-.727 4.035-2.057l-1.541-1.452zm4.547-2.468a2.28 2.28 0 01.619-1.096c.322-.31.74-.466 1.243-.466.574 0 1.019.16 1.322.477.28.293.438.658.472 1.085h-3.656zm5.181-2.175a3.544 3.544 0 00-1.361-1.098c-.566-.27-1.225-.407-1.959-.407-1.323 0-2.405.479-3.218 1.423-.789.938-1.189 2.103-1.189 3.463 0 1.4.439 2.558 1.304 3.443.861.88 2.013 1.328 3.424 1.328 1.598 0 2.91-.634 3.898-1.884l.053-.067-1.546-1.457c-.144.17-.346.361-.532.533a2.915 2.915 0 01-.689.498 2.687 2.687 0 01-1.196.259c-.657 0-1.2-.19-1.616-.563-.389-.35-.616-.82-.677-1.403h6.28l.021-.848c0-.6-.083-1.179-.248-1.72a4.99 4.99 0 00-.749-1.5zm4.894 4.416c.269-.184.648-.276 1.129-.276.57 0 1.176.112 1.799.334v.905c-.515.47-1.203.708-2.046.708-.41 0-.729-.09-.948-.266a.815.815 0 01-.32-.672.83.83 0 01.386-.733zm4.208-5.015c-.718-.6-1.711-.906-2.951-.906a4.88 4.88 0 00-2.193.501c-.617.307-1.223.815-1.608 1.48l.024.029 1.517 1.424c.625-.977 1.32-1.316 2.242-1.316.495 0 .907.13 1.222.387.314.255.467.58.467.99v.449a6.103 6.103 0 00-1.744-.264c-1.179 0-2.139.272-2.852.808-.722.543-1.088 1.32-1.088 2.31 0 .868.308 1.572.919 2.096.616.506 1.386.762 2.289.762.902 0 1.746-.356 2.513-.966v.76h2.334V12.6c0-1.124-.367-2-1.091-2.607zm10.208.181c-.66-.72-1.587-1.087-2.757-1.087-.941 0-1.704.265-2.275.787v-.572h-2.325v9.235h2.37v-5.093c0-.7.17-1.255.505-1.652.334-.395.794-.587 1.404-.587.537 0 .944.171 1.244.525.302.354.455.843.455 1.454v5.353H138v-5.353c0-1.28-.333-2.291-.991-3.01zm-62.54 4.834c.268-.184.648-.276 1.129-.276.57 0 1.175.112 1.799.334v.905c-.515.47-1.203.708-2.046.708-.41 0-.73-.09-.948-.266a.814.814 0 01-.32-.672.83.83 0 01.385-.733zm4.208-5.015c-.719-.6-1.712-.906-2.951-.906-.789 0-1.526.17-2.194.501-.617.307-1.223.815-1.608 1.48l.024.029 1.518 1.424c.625-.977 1.32-1.316 2.242-1.316.495 0 .906.13 1.222.387.314.255.467.58.467.99v.449a6.107 6.107 0 00-1.744-.264c-1.18 0-2.14.272-2.853.808-.722.543-1.088 1.32-1.088 2.31 0 .868.309 1.572.92 2.096.616.506 1.386.762 2.288.762.903 0 1.747-.356 2.513-.966v.76h2.334V12.6c0-1.124-.367-2-1.09-2.607zm13.948-2.395c-2.461 0-4.464 1.964-4.464 4.377 0 2.414 2.003 4.377 4.464 4.377 2.462 0 4.465-1.963 4.465-4.377 0-2.413-2.003-4.377-4.465-4.377zm0 11.136c-3.801 0-6.894-3.032-6.894-6.759 0-3.727 3.093-6.759 6.894-6.759 3.802 0 6.894 3.032 6.894 6.76 0 3.726-3.092 6.758-6.894 6.758z" fill="#086EFF"/></svg>