<svg width="137" height="17" fill="none" xmlns="http://www.w3.org/2000/svg"><path d="M7.697 10.405l-.044.265c-.309 1.455-1.058 3.791-3.152 3.791-1.852 0-2.403-1.278-1.323-6.349 1.058-5.07 2.138-6.216 3.99-6.216 1.83-.066 1.918 1.61 1.61 3.064l-.067.265h2.513l.066-.287C11.643 3.307 12.085 0 7.61 0 3.619 0 1.833 2.557.643 8.179c-1.19 5.621-.507 8.178 3.46 8.178 3.704 0 5.446-2.777 6.041-5.621l.066-.33H7.697zm2.966 5.644h2.514l3.35-15.74h-2.513l-3.35 15.74zm4.997 0h2.381L20.6 4.012h.044l2.006 12.037h3.064l3.35-15.74h-2.38l-2.491 11.728h-.044L22.076.309H19.01l-3.35 15.74zm13.122-4.872l-.088.375c-.463 2.204-.133 4.805 3.77 4.805 3.174 0 5.489-1.389 6.216-4.74.463-2.16-.264-3.372-2.315-4.166L34.8 6.834c-1.543-.64-2.072-1.323-1.785-2.668.352-1.675 1.499-2.27 2.579-2.27 1.565 0 2.028.838 1.741 2.27l-.088.331h2.513l.088-.353c.353-1.63.463-4.144-3.57-4.144-2.955 0-5.247 1.587-5.843 4.453-.485 2.249.265 3.439 2.36 4.32l1.586.596c1.323.419 2.006 1.146 1.654 2.8a2.882 2.882 0 01-2.866 2.292c-1.742 0-2.359-.97-1.962-2.888l.088-.396h-2.513z" fill="#F34A4A"/><path d="M49.25 7.65l.11-.53c.309-1.477 0-3.24-3.02-3.24-2.447 0-4.277 1.036-4.74 3.263-.396 1.895.155 2.8 1.808 3.417l1.786.683c.793.286 1.124.86.948 1.741-.243 1.08-1.014 1.742-2.315 1.742-1.367 0-1.697-.75-1.41-2.116l.087-.375h-2.116l-.088.44c-.507 2.293.11 3.682 3.108 3.682 2.403 0 4.475-1.08 5.026-3.615.397-1.874-.22-2.822-1.851-3.417l-1.411-.53c-1.169-.44-1.5-.815-1.3-1.74.22-1.103 1.08-1.544 2.027-1.544 1.235 0 1.367.882 1.169 1.83l-.066.309h2.248zm6.917 4.078c-.397 1.786-1.102 2.888-2.425 2.866-1.72 0-1.63-1.852-1.08-4.475.551-2.624 1.257-4.476 2.976-4.476 1.411-.044 1.411 1.39 1.169 2.492h2.38c.331-1.477.397-4.3-3.174-4.255-3.439 0-4.938 2.557-5.732 6.239-.771 3.681-.352 6.238 3.087 6.238 2.932 0 4.276-1.785 5.048-4.63h-2.249zm3.91-1.609c-.772 3.681-.199 6.238 3.086 6.238 3.307 0 4.982-2.557 5.754-6.238.793-3.682.352-6.24-3.109-6.24-3.439 0-4.938 2.558-5.731 6.24zm2.38 0c.552-2.624 1.257-4.476 2.976-4.476 1.742 0 1.654 1.852 1.103 4.476-.64 3.02-1.257 4.475-2.998 4.475-1.72 0-1.72-1.455-1.08-4.475zm7.03 5.93h2.381l1.5-7.099c.484-2.204 1.873-2.69 2.953-2.69.397 0 .816.089.97.133l.507-2.425a1.58 1.58 0 00-.55-.088c-1.346 0-2.404.838-3.22 2.16h-.044l.397-1.851h-2.38l-2.514 11.86zm13.504-4.321c-.397 1.786-1.102 2.888-2.425 2.866-1.72 0-1.63-1.852-1.08-4.475.551-2.624 1.257-4.476 2.976-4.476 1.411-.044 1.411 1.39 1.169 2.492h2.38c.331-1.477.397-4.3-3.174-4.255-3.439 0-4.938 2.557-5.732 6.239-.771 3.681-.352 6.238 3.087 6.238 2.932 0 4.276-1.785 5.048-4.63h-2.25zm12.551-1.301l.265-1.256c.705-3.307.242-5.291-3.064-5.291-3.726 0-5.093 3.307-5.754 6.415-1.147 5.49 1.124 6.062 3.064 6.062 2.58 0 4.52-1.653 5.07-4.276h-2.248c-.154.705-.75 2.645-2.447 2.645-1.786 0-1.565-2.028-1.213-3.615l.133-.684h6.194zM89.7 8.796l.044-.243c.331-1.543 1.125-3.042 2.646-3.042 1.345 0 1.587 1.147 1.256 2.646l-.132.639H89.7zm6.036 7.253h2.513l.617-2.91h-2.513l-.617 2.91zm11.733-4.321c-.397 1.786-1.102 2.888-2.425 2.866-1.72 0-1.631-1.852-1.08-4.475.551-2.624 1.256-4.476 2.976-4.476 1.411-.044 1.411 1.39 1.168 2.492h2.381c.331-1.477.397-4.3-3.175-4.255-3.438 0-4.938 2.557-5.731 6.239-.772 3.681-.353 6.238 3.086 6.238 2.932 0 4.277-1.785 5.048-4.63h-2.248zm3.909-1.609c-.771 3.681-.198 6.238 3.086 6.238 3.307 0 4.983-2.557 5.754-6.238.794-3.682.353-6.24-3.108-6.24-3.439 0-4.938 2.558-5.732 6.24zm2.381 0c.551-2.624 1.257-4.476 2.976-4.476 1.742 0 1.653 1.852 1.102 4.476-.639 3.02-1.256 4.475-2.998 4.475-1.719 0-1.719-1.455-1.08-4.475zm7.14 5.93h2.381l1.697-7.959c.331-1.543 1.411-2.314 2.359-2.314.992 0 1.323.595.992 2.138l-1.719 8.135h2.381l1.697-7.959c.331-1.543 1.411-2.314 2.381-2.314.97 0 1.3.595.97 2.138l-1.72 8.135h2.381l1.918-9.017c.485-2.292-.551-3.152-2.227-3.152-1.432 0-2.446.661-3.372 1.808-.155-.992-.684-1.808-2.381-1.808-1.124 0-2.381.64-3.197 1.697h-.066l.287-1.388h-2.249l-2.513 11.86z" fill="#fff"/></svg>