<svg width="148" height="57" fill="none" xmlns="http://www.w3.org/2000/svg"><g clip-path="url(#clip0)"><path d="M21.04 23.274h.767l2.188-2.14.107-.91a9.911 9.911 0 00-4.4-2.184 10.038 10.038 0 00-4.93.182 9.872 9.872 0 00-4.218 2.503 9.573 9.573 0 00-2.445 4.194c.244-.098.513-.114.767-.045l4.375-.706s.222-.36.337-.338a5.502 5.502 0 013.621-1.73 5.537 5.537 0 013.846 1.174h-.015z" fill="#EA4335"/><path d="M27.11 24.919a9.615 9.615 0 00-2.97-4.687l-3.07 3.005a5.358 5.358 0 011.5 1.892c.347.734.52 1.535.504 2.343v.534a2.753 2.753 0 011.932.783c.253.248.455.543.592.867a2.624 2.624 0 010 2.047 2.676 2.676 0 01-.592.867 2.737 2.737 0 01-.887.58 2.785 2.785 0 01-1.045.203H17.61l-.545.54v3.208l.545.533h5.464a7.212 7.212 0 004.247-1.339 6.962 6.962 0 002.595-3.552 6.814 6.814 0 00-.081-4.366 6.977 6.977 0 00-2.725-3.458z" fill="#4285F4"/><path d="M12.138 37.604h5.464v-4.281h-5.464c-.39 0-.774-.082-1.128-.24l-.768.232-2.202 2.14-.192.752a7.17 7.17 0 004.29 1.397z" fill="#34A853"/><path d="M12.138 23.717a7.211 7.211 0 00-4.121 1.318 6.967 6.967 0 00-2.571 3.417 6.813 6.813 0 00-.064 4.242 6.955 6.955 0 002.466 3.49l3.17-3.102a2.724 2.724 0 01-1.028-.79 2.619 2.619 0 01-.456-2.443c.132-.413.364-.788.677-1.094a2.743 2.743 0 011.118-.662 2.789 2.789 0 012.496.446c.348.267.625.612.807 1.006l3.17-3.102a7.067 7.067 0 00-2.505-2.013 7.226 7.226 0 00-3.159-.713z" fill="#FBBC05"/><path d="M44.784 34.615a7.122 7.122 0 01-2.745-.513 7 7 0 01-2.32-1.523 6.608 6.608 0 01-1.589-2.23 6.486 6.486 0 01-.537-2.666 6.495 6.495 0 01.538-2.667 6.615 6.615 0 011.588-2.23 7 7 0 012.316-1.544 7.124 7.124 0 012.749-.529 6.915 6.915 0 012.625.48 6.8 6.8 0 012.233 1.435l-1.366 1.36a4.978 4.978 0 00-3.492-1.352 4.955 4.955 0 00-1.965.38c-.62.258-1.18.64-1.642 1.122a4.897 4.897 0 00-1.113 1.635 4.812 4.812 0 00-.368 1.932 4.813 4.813 0 00.377 1.908c.254.605.63 1.154 1.104 1.615a5.206 5.206 0 003.575 1.47 5.211 5.211 0 003.608-1.388 3.955 3.955 0 001.052-2.336h-4.605v-1.922h6.515c.064.387.09.78.077 1.171a5.892 5.892 0 01-.376 2.385 5.99 5.99 0 01-1.305 2.046 6.538 6.538 0 01-2.253 1.495 6.656 6.656 0 01-2.681.466zm15.149-1.277a4.752 4.752 0 01-3.25 1.278 4.752 4.752 0 01-3.25-1.278 4.278 4.278 0 01-1.007-1.46 4.2 4.2 0 01-.32-1.732 4.208 4.208 0 01.321-1.732 4.285 4.285 0 011.006-1.46 4.76 4.76 0 013.25-1.275 4.76 4.76 0 013.25 1.275c.435.413.777.91 1.006 1.46.228.55.338 1.14.322 1.732a4.201 4.201 0 01-.325 1.733 4.277 4.277 0 01-1.01 1.459h.007zm-5.065-1.254c.232.243.514.437.826.569a2.532 2.532 0 002.804-.57 2.67 2.67 0 00.584-.892c.132-.333.194-.688.183-1.045a2.628 2.628 0 00-.182-1.049 2.674 2.674 0 00-.585-.896 2.526 2.526 0 00-.832-.563 2.572 2.572 0 00-2.813.563 2.674 2.674 0 00-.585.896 2.63 2.63 0 00-.183 1.05c-.01.356.054.712.187 1.045.133.332.333.636.588.892h.008zm15.057 1.254a4.752 4.752 0 01-3.25 1.278 4.752 4.752 0 01-3.25-1.278 4.278 4.278 0 01-1.007-1.46 4.2 4.2 0 01-.321-1.732 4.208 4.208 0 01.322-1.732 4.285 4.285 0 011.006-1.46 4.752 4.752 0 013.25-1.278c1.21 0 2.375.458 3.25 1.278.434.413.777.91 1.005 1.46.23.55.339 1.14.322 1.732a4.2 4.2 0 01-.32 1.732 4.278 4.278 0 01-1.007 1.46zm-5.065-1.254c.232.243.513.437.826.569a2.532 2.532 0 002.804-.57 2.632 2.632 0 00.767-1.937 2.628 2.628 0 00-.183-1.049 2.674 2.674 0 00-.584-.896 2.526 2.526 0 00-.832-.563 2.572 2.572 0 00-2.814.563 2.674 2.674 0 00-.584.896 2.63 2.63 0 00-.183 1.05c-.01.356.054.712.187 1.045.133.332.333.636.588.892h.008zm11.634 6.541a4.081 4.081 0 01-2.556-.796 4.62 4.62 0 01-1.489-1.847l1.75-.714c.19.437.489.822.867 1.12.406.32.915.487 1.435.472a2.34 2.34 0 001.789-.676 2.7 2.7 0 00.636-1.952v-.646h-.069a2.92 2.92 0 01-1.078.784c-.417.176-.87.255-1.324.23a4.244 4.244 0 01-1.674-.339 4.167 4.167 0 01-1.395-.968 4.315 4.315 0 01-.986-1.442 4.237 4.237 0 01-.327-1.705c-.01-.588.1-1.171.326-1.716a4.358 4.358 0 01.987-1.453 4.16 4.16 0 011.393-.973 4.238 4.238 0 011.676-.342c.489 0 .97.105 1.413.308.382.164.722.407.997.714h.07v-.714h1.902v7.999a4.571 4.571 0 01-.242 1.87c-.21.6-.542 1.152-.978 1.622a4.314 4.314 0 01-1.441.892c-.537.2-1.109.292-1.682.272zm.138-5.768c.328.007.653-.056.953-.186.3-.13.566-.323.781-.565a2.743 2.743 0 00.699-1.922 2.801 2.801 0 00-.699-1.96 2.222 2.222 0 00-.781-.566c-.3-.13-.625-.193-.953-.186a2.416 2.416 0 00-.98.187 2.37 2.37 0 00-.816.564 2.709 2.709 0 00-.767 1.946 2.645 2.645 0 00.767 1.922 2.396 2.396 0 001.796.766zm7.59-11.64v13.127h-2.003V21.216h2.003zm5.494 13.398a4.442 4.442 0 01-1.752-.312 4.366 4.366 0 01-1.478-.972 4.34 4.34 0 01-.983-1.462 4.266 4.266 0 01-.314-1.723c-.023-.59.076-1.18.29-1.732a4.39 4.39 0 01.96-1.482 4.12 4.12 0 011.4-.945 4.19 4.19 0 011.67-.31 3.948 3.948 0 011.535.293c.438.173.837.428 1.174.751.29.274.547.579.768.91.178.278.33.572.452.878l.208.51-6.14 2.471c.186.418.496.77.891 1.012.395.241.855.36 1.32.34a2.638 2.638 0 002.248-1.239l1.535 1.014a5.014 5.014 0 01-1.474 1.367 4.243 4.243 0 01-2.31.63zm-2.563-4.604l4.083-1.66a1.393 1.393 0 00-.637-.683 2.115 2.115 0 00-1.051-.263 2.395 2.395 0 00-1.65.713c-.26.243-.46.538-.589.865a2.335 2.335 0 00-.156 1.028zm16.983 4.604a6.441 6.441 0 01-2.487-.453 6.339 6.339 0 01-2.106-1.372 6.177 6.177 0 01-1.39-2.07 6.07 6.07 0 01-.448-2.436 6.071 6.071 0 01.449-2.437 6.179 6.179 0 011.389-2.07 6.339 6.339 0 012.106-1.371 6.445 6.445 0 012.487-.454 5.838 5.838 0 012.508.482 5.715 5.715 0 012.043 1.501l-1.105 1.052a4.16 4.16 0 00-1.531-1.173 4.253 4.253 0 00-1.907-.367 4.78 4.78 0 00-1.847.327 4.7 4.7 0 00-1.568 1.01 4.67 4.67 0 00-1.068 1.608 4.596 4.596 0 00-.321 1.892c-.028.645.082 1.29.32 1.892.24.602.603 1.15 1.069 1.608.448.436.981.78 1.568 1.01a4.78 4.78 0 001.847.326 4.976 4.976 0 002.124-.45 4.865 4.865 0 001.713-1.307l1.105 1.081a6.014 6.014 0 01-2.126 1.585c-.884.4-1.849.6-2.824.586zm7.92-.27h-1.589v-12.13h1.589v12.13zm2.594-7.301a4.493 4.493 0 013.131-1.263c1.173 0 2.299.454 3.131 1.263.407.42.725.916.936 1.457a4.31 4.31 0 01.292 1.698 4.304 4.304 0 01-.292 1.697 4.388 4.388 0 01-.936 1.457 4.493 4.493 0 01-3.131 1.263 4.493 4.493 0 01-3.131-1.263 4.388 4.388 0 01-.936-1.457 4.304 4.304 0 01-.292-1.697 4.303 4.303 0 01.292-1.698 4.387 4.387 0 01.936-1.457zm1.182 5.333c.25.259.552.465.886.606a2.731 2.731 0 002.118 0 2.67 2.67 0 00.886-.606 2.957 2.957 0 00.822-2.178 2.956 2.956 0 00-.822-2.178 2.67 2.67 0 00-.886-.606 2.728 2.728 0 00-3.004.606 2.99 2.99 0 00-.635 1.008 2.938 2.938 0 00-.186 1.17 2.985 2.985 0 00.828 2.17l-.007.008zm15.11 1.967h-1.535v-1.149h-.046c-.273.437-.66.794-1.12 1.037a3.185 3.185 0 01-1.574.413c-.448.03-.898-.04-1.315-.204a2.989 2.989 0 01-1.094-.743 3.695 3.695 0 01-.821-2.538v-5.107h1.588v4.821c0 1.548.699 2.321 2.095 2.321.311.01.619-.054.899-.184s.525-.325.713-.567c.412-.51.631-1.145.621-1.795v-4.596h1.589v8.291zm5.395.271a3.8 3.8 0 01-1.562-.33 3.716 3.716 0 01-1.277-.94 4.45 4.45 0 01-1.19-3.146 4.45 4.45 0 011.19-3.147c.351-.4.787-.72 1.277-.94a3.8 3.8 0 011.562-.33c.604-.009 1.2.13 1.735.406a2.92 2.92 0 011.151 1.014h.069l-.069-1.149v-3.838h1.588v12.13h-1.534v-1.15h-.07a2.912 2.912 0 01-1.151 1.014 3.66 3.66 0 01-1.719.406zm.261-1.42a2.567 2.567 0 001.911-.811c.54-.6.815-1.386.768-2.185a3.004 3.004 0 00-.768-2.186 2.587 2.587 0 00-.87-.613 2.638 2.638 0 00-2.967.613 2.954 2.954 0 00-.767 2.178 2.953 2.953 0 00.767 2.178c.242.265.539.476.871.618.333.143.692.214 1.055.209z" fill="#fff"/></g><defs><clipPath id="clip0"><path fill="#fff" transform="translate(4.272 17.709)" d="M0 0h138.903v21.029H0z"/></clipPath></defs></svg>