<svg width="36" height="36" fill="none" xmlns="http://www.w3.org/2000/svg"><path d="M1.219 23.277l4.375 7.817c.273.51.93.906 1.531.906.219 0 .602-.057.875-.227l5.633-3.398h7.492c1.914 0 3.445-1.586 3.5-3.625h.875c.93 0 1.75-.793 1.75-1.813v-3.625h.438c.71 0 1.312-.566 1.312-1.302v-2.776c0-.736-.602-1.359-1.313-1.359H19.32v3.172c0 2.265-1.75 4.078-3.937 4.078-2.133 0-3.938-1.813-3.938-4.078v-6.854l-3.5 2.21c-.984.566-1.695 1.982-1.695 3.115v2.662l-4.375 2.605c-.492.283-.875 1.02-.875 1.586 0 .283.055.68.219.906z" fill="#1FA5EA"/><path d="M13.25 17.047c0 1.303.93 2.265 2.188 2.265 1.203 0 2.187-.962 2.187-2.265v-4.985h10.063c1.64 0 3.062 1.473 3.062 3.172v1.643l4.375-2.605c.438-.284.875-1.02.875-1.587 0-.283-.11-.68-.273-.906l-4.375-7.873c-.274-.453-.93-.906-1.477-.906-.273 0-.656.113-.875.283l-5.688 3.342h-5.578c-.547.057-1.367.283-1.859.566l-1.805 1.19c-.492.283-.82.963-.82 1.53v7.136z" fill="#1FA5EA"/></svg>