<svg width="36" height="36" fill="none" xmlns="http://www.w3.org/2000/svg"><path d="M13.552 18.364c.083.417-.063.77-.438 1.062-.375.25-.75.25-1.126 0l-2.501-1.561-3.19 5.059c-.416.666-.437 1.353-.062 2.061.375.666.96 1 1.751 1h3.252c.5 0 .75.25.75.749v2.498c0 .5-.25.75-.75.75H7.986c-1.5 0-2.814-.5-3.94-1.5-1.125-.999-1.792-2.165-2-3.497-.167-1.374.125-2.769.875-4.185l3.19-5.059-2.565-1.624c-.375-.208-.542-.52-.5-.937.083-.458.354-.75.813-.874l6.879-1.562c.25-.083.5-.041.75.125a.78.78 0 01.438.625l1.626 6.87zm6.128-11.43c-.375-.624-.938-.937-1.689-.937-.75 0-1.313.313-1.688.937l-1.126 1.812c-.25.416-.604.5-1.063.25L11.988 7.62c-.417-.25-.48-.583-.187-.999l1.125-1.811C14.094 2.937 15.782 2 17.991 2c2.21 0 3.898.937 5.066 2.81l2.626 4.123 2.501-1.561c.376-.25.75-.23 1.126.062.375.25.5.583.375 1l-1.563 6.87a1.2 1.2 0 01-.5.687.793.793 0 01-.688.062l-6.879-1.561c-.459-.125-.73-.396-.813-.812-.041-.458.125-.791.5-1l2.502-1.623-2.564-4.123zM33.062 20.8A5.6 5.6 0 0134 23.923c0 1.083-.25 2.082-.75 2.998-.5.875-1.23 1.603-2.19 2.186-.916.583-1.938.875-3.063.875h-6.003v2.998c0 .458-.209.77-.626.937-.417.166-.771.083-1.063-.25l-5.002-4.997c-.5-.458-.5-.916 0-1.374l5.002-4.997c.292-.333.646-.416 1.063-.25.417.167.626.48.626.937v2.998h6.003c.792 0 1.375-.333 1.75-.999.376-.708.355-1.395-.062-2.061l-1.688-2.748c-.292-.417-.23-.77.187-1.062l2.127-1.312c.416-.25.77-.166 1.063.25l1.688 2.748z" fill="#1FA5EA"/></svg>