<svg width="14" height="16" fill="none" xmlns="http://www.w3.org/2000/svg"><path d="M8.467 6.713c-.456 0-.816.395-.816.887 0 .493.368.888.816.888.456 0 .815-.395.815-.888 0-.492-.367-.887-.815-.887zm-2.919 0c-.455 0-.815.395-.815.887 0 .493.368.888.815.888.456 0 .816-.395.816-.888.008-.492-.36-.887-.816-.887z" fill="#fff"/><path d="M12.352 0H1.64A1.65 1.65 0 00-.001 1.654v10.812a1.65 1.65 0 001.64 1.654h9.066l-.423-1.476 1.023.952.968.895L13.998 16V1.654A1.66 1.66 0 0012.352 0zM9.266 10.449s-.288-.347-.527-.646c1.047-.298 1.447-.952 1.447-.952a4.56 4.56 0 01-.92.476c-.4.17-.783.275-1.16.347a5.551 5.551 0 01-2.07-.008 6.045 6.045 0 01-1.175-.347 4.665 4.665 0 01-.584-.274c-.024-.016-.048-.024-.072-.04-.016-.009-.024-.017-.032-.017-.144-.08-.224-.137-.224-.137s.384.638 1.4.944c-.24.307-.536.662-.536.662-1.767-.057-2.439-1.218-2.439-1.218 0-2.574 1.151-4.664 1.151-4.664 1.152-.863 2.24-.84 2.24-.84l.08.098c-1.44.411-2.096 1.048-2.096 1.048s.176-.096.472-.225a6.22 6.22 0 011.815-.509c.048-.008.088-.016.136-.016a6.705 6.705 0 011.615-.016c.76.089 1.575.315 2.407.766 0 0-.632-.605-1.991-1.016l.112-.13s1.095-.023 2.239.84c0 0 1.15 2.09 1.15 4.664 0-.009-.67 1.153-2.438 1.21z" fill="#fff"/></svg>