<svg width="11" height="11" fill="none" xmlns="http://www.w3.org/2000/svg"><path d="M2.344 11H.164V3.992h2.18V11zM1.266 3.031c-.344 0-.641-.125-.891-.375A1.217 1.217 0 010 1.766c0-.344.125-.641.375-.891S.922.5 1.265.5c.344 0 .641.125.891.375a1.217 1.217 0 01.188 1.523 1.36 1.36 0 01-.469.47c-.188.109-.39.163-.61.163zM10.5 11H8.32V7.578c0-.266-.008-.476-.023-.633a2.785 2.785 0 00-.117-.562.827.827 0 00-.352-.492c-.156-.11-.367-.164-.633-.164-.515 0-.867.164-1.054.492-.172.328-.258.765-.258 1.312V11h-2.18V3.992h2.11v.961h.023c.156-.312.414-.578.773-.797.36-.234.79-.351 1.29-.351.53 0 .968.086 1.312.257.36.157.625.399.797.727.187.313.312.656.375 1.031.078.375.117.82.117 1.336V11z" fill="#fff"/></svg>