<svg width="16" height="17" fill="none" xmlns="http://www.w3.org/2000/svg"><circle cx="8" cy="8.5" r="8" fill="#0089CF"/><path d="M8 12.5c-.258 0-.476-.071-.653-.214-.17-.15-.255-.37-.255-.662V7.95c0-.292.085-.51.255-.652A.977.977 0 018 7.074c.258 0 .473.075.643.224.177.143.265.36.265.652v3.674c0 .292-.088.513-.265.662A.967.967 0 018 12.5zm0-6.174c-.306 0-.551-.081-.735-.245C7.088 5.91 7 5.686 7 5.408s.088-.499.265-.662C7.45 4.582 7.694 4.5 8 4.5c.3 0 .54.082.724.246.184.163.276.384.276.662a.876.876 0 01-.276.673c-.176.164-.418.245-.724.245z" fill="#fff"/></svg>