<svg width="329" height="336" viewBox="0 0 329 336" fill="none" xmlns="http://www.w3.org/2000/svg">
<g clip-path="url(#clip0)">
<path opacity="0.5" d="M186.887 262.515C178.659 262.515 172.391 269.196 172.391 277.055C172.391 285.308 179.051 291.596 186.887 291.596C195.115 291.596 201.384 284.915 201.384 277.055C201.384 269.196 194.723 262.515 186.887 262.515Z" fill="#67D4FF"/>
<path opacity="0.5" d="M186.887 306.526C178.659 306.526 172.391 313.206 172.391 321.066C172.391 329.318 179.051 335.606 186.887 335.606C195.115 335.606 201.384 328.925 201.384 321.066C201.384 313.206 194.723 306.526 186.887 306.526Z" fill="#67D4FF"/>
<path opacity="0.5" d="M186.887 29.0807C195.115 29.0807 201.384 22.4 201.384 14.5404C201.384 6.28772 194.723 0 186.887 0C178.659 0 172.391 6.6807 172.391 14.5404C172.391 22.793 178.659 29.0807 186.887 29.0807Z" fill="#67D4FF"/>
<path opacity="0.5" d="M268.383 266.048C260.156 266.048 253.887 272.729 253.887 280.588C253.887 288.841 260.547 295.129 268.383 295.129C276.611 295.129 282.88 288.448 282.88 280.588C282.88 272.729 276.219 266.048 268.383 266.048Z" fill="#67D4FF"/>
<path opacity="0.5" d="M272.696 130.865C264.468 130.865 258.199 137.545 258.199 145.405C258.199 153.658 264.86 159.945 272.696 159.945C280.924 159.945 287.193 153.265 287.193 145.405C287.193 137.152 280.924 130.865 272.696 130.865Z" fill="#67D4FF"/>
<path opacity="0.5" d="M313.837 176.058C305.609 176.058 299.34 182.739 299.34 190.598C299.34 198.851 306.001 205.139 313.837 205.139C322.065 205.139 328.333 198.458 328.333 190.598C328.333 182.346 322.065 176.058 313.837 176.058Z" fill="#67D4FF"/>
<path opacity="0.5" d="M307.567 223.216C299.339 223.216 293.07 229.897 293.07 237.756C293.07 246.009 299.731 252.297 307.567 252.297C315.795 252.297 322.064 245.616 322.064 237.756C322.456 229.897 315.795 223.216 307.567 223.216Z" fill="#67D4FF"/>
<path opacity="0.5" d="M302.078 145.405C302.078 153.658 308.739 159.945 316.575 159.945C324.803 159.945 331.072 153.265 331.072 145.405C331.072 137.152 324.411 130.865 316.575 130.865C308.739 130.865 302.078 137.152 302.078 145.405Z" fill="#67D4FF"/>
<path opacity="0.5" d="M307.567 114.752C315.795 114.752 322.064 108.072 322.064 100.212C322.064 91.9595 315.403 85.6717 307.567 85.6717C299.339 85.6717 293.07 92.3524 293.07 100.212C293.07 108.465 299.731 114.752 307.567 114.752Z" fill="#67D4FF"/>
<path opacity="0.5" d="M144.575 262.515C152.803 262.515 159.072 269.196 159.072 277.055C159.072 285.308 152.411 291.596 144.575 291.596C136.347 291.596 130.078 284.915 130.078 277.055C130.078 269.196 136.347 262.515 144.575 262.515Z" fill="#67D4FF"/>
<path opacity="0.5" d="M144.575 306.526C152.803 306.526 159.072 313.206 159.072 321.066C159.072 329.318 152.411 335.606 144.575 335.606C136.347 335.606 130.078 328.925 130.078 321.066C130.078 313.206 136.347 306.526 144.575 306.526Z" fill="#67D4FF"/>
<path opacity="0.5" d="M144.575 29.0807C152.581 29.0807 159.072 22.5708 159.072 14.5404C159.072 6.50994 152.581 0 144.575 0C136.569 0 130.078 6.50994 130.078 14.5404C130.078 22.5708 136.569 29.0807 144.575 29.0807Z" fill="#67D4FF"/>
<path opacity="0.5" d="M63.0827 266.048C71.3106 266.048 77.5794 272.729 77.5794 280.588C77.5794 288.841 70.9188 295.129 63.0827 295.129C54.8548 295.129 48.5859 288.448 48.5859 280.588C48.5859 272.729 54.8548 266.048 63.0827 266.048Z" fill="#67D4FF"/>
<path opacity="0.5" d="M58.771 130.865C66.9989 130.865 73.2677 137.545 73.2677 145.405C73.2677 153.658 66.6071 159.945 58.771 159.945C50.5431 159.945 44.2743 153.265 44.2743 145.405C43.8825 137.152 50.5431 130.865 58.771 130.865Z" fill="#67D4FF"/>
<path opacity="0.5" d="M17.6296 176.058C25.8574 176.058 32.1263 182.739 32.1263 190.598C32.1263 198.851 25.4656 205.139 17.6296 205.139C9.40167 205.139 3.13281 198.458 3.13281 190.598C3.13281 182.346 9.40167 176.058 17.6296 176.058Z" fill="#67D4FF"/>
<path opacity="0.5" d="M23.5085 223.216C31.7363 223.216 38.0052 229.897 38.0052 237.756C38.0052 246.009 31.3445 252.297 23.5085 252.297C15.2806 252.297 9.01172 245.616 9.01172 237.756C9.01172 229.897 15.6724 223.216 23.5085 223.216Z" fill="#67D4FF"/>
<path opacity="0.5" d="M28.9935 145.405C28.9935 153.658 22.3328 159.945 14.4967 159.945C6.66067 159.945 0 153.265 0 145.405C0 137.152 6.66067 130.865 14.4967 130.865C22.7246 130.865 28.9935 137.152 28.9935 145.405Z" fill="#67D4FF"/>
<path opacity="0.5" d="M23.5085 114.752C15.2806 114.752 9.01172 108.072 9.01172 100.212C9.01172 91.9595 15.6724 85.6717 23.5085 85.6717C31.7363 85.6717 38.0052 92.3524 38.0052 100.212C38.397 108.465 31.7363 114.752 23.5085 114.752Z" fill="#67D4FF"/>
<path d="M279.356 228.321C277.005 225.57 275.438 222.033 275.438 218.496V210.244C275.438 206.707 276.613 203.17 279.356 200.419C282.882 196.882 284.449 191.773 282.49 185.879C281.315 181.556 277.788 178.019 273.479 176.447C270.736 175.661 267.993 175.661 265.643 176.054C261.725 176.84 257.806 176.447 254.672 174.875L251.929 173.303C248.403 171.338 246.052 167.802 244.877 164.265C244.093 161.907 242.526 159.549 240.175 158.37C235.082 155.226 230.38 154.44 226.07 156.012C222.936 157.191 219.801 156.798 216.667 155.619C212.749 154.047 207.264 151.689 204.129 148.938C202.562 147.759 202.954 145.402 204.521 144.223C208.047 142.258 213.141 139.114 217.451 136.756C220.585 134.791 224.111 134.398 227.638 135.184C228.421 135.577 229.597 135.577 230.38 135.577C236.649 135.577 242.134 131.647 244.093 125.752C245.269 122.609 247.62 119.465 250.754 117.893L254.672 115.928C257.806 113.963 261.725 113.963 265.643 114.749C267.993 115.142 270.736 115.142 273.479 114.356C277.788 112.784 281.315 109.247 282.49 104.924C284.057 99.4226 282.49 94.3138 279.356 90.777C277.005 88.0261 275.438 84.4893 275.438 80.9524V74.6647C275.438 71.1278 276.613 67.591 278.964 64.8401C282.098 61.6963 283.665 57.3735 282.882 52.2647C281.706 46.37 277.005 41.6542 271.128 40.4752C261.724 38.9033 253.888 45.977 253.888 55.0156C253.888 58.5524 255.456 62.0893 257.415 64.8401C259.765 67.591 261.333 71.1278 261.333 74.6647V79.7735C261.333 83.3103 260.157 87.2401 257.806 89.991C255.456 92.7419 253.888 96.2787 253.888 100.209C253.888 101.78 244.877 105.317 244.877 105.317C241.742 107.282 237.824 107.675 234.298 106.889C233.123 106.496 231.556 106.496 230.38 106.496C222.152 106.496 215.883 113.177 215.883 121.037C215.883 121.43 215.883 121.43 215.883 121.823C215.883 121.823 203.346 131.647 196.685 133.612C195.118 134.005 193.159 132.826 193.159 130.861C192.767 127.324 193.551 121.823 193.551 121.823C193.551 118.286 195.118 114.749 197.469 111.998C199.819 109.247 200.995 106.103 200.995 102.173C200.995 99.0296 216.667 90.384 216.667 90.384C219.801 88.4191 223.328 88.0261 226.854 88.4191C229.205 88.8121 231.947 88.4191 234.69 87.2401C238.608 85.6682 242.134 82.1314 242.918 77.8085C244.093 72.6998 242.918 67.591 239.392 64.0542C237.041 61.3033 235.474 57.7664 235.474 54.2296V46.37C235.474 42.8331 236.649 39.2963 239 36.5454C242.134 33.4015 243.702 29.0787 242.918 23.9699C241.742 18.0752 237.041 13.3594 231.164 12.1805C221.76 10.6085 213.924 17.6822 213.924 26.7208C213.924 30.2577 215.492 33.7945 217.451 36.5454C219.801 39.2963 221.369 42.8331 221.369 46.37V53.8366C221.369 57.3735 220.193 61.3033 217.842 63.6612C215.492 66.4121 213.924 69.9489 213.924 73.8787C213.924 77.4156 197.86 86.0612 197.86 86.0612C195.901 87.2401 193.159 86.0612 193.159 83.7033V78.2015C193.159 74.6647 194.334 71.1278 196.685 68.377C199.819 65.2331 201.387 60.9103 200.603 55.8015C199.428 49.9068 194.726 45.191 188.849 44.0121C180.229 42.4401 172.393 49.5138 172.393 58.5524C172.393 62.0892 173.96 65.6261 175.919 68.377C178.27 71.1278 179.837 74.6647 179.837 78.2015V82.5243C179.837 86.0612 178.27 89.598 175.919 92.7419C173.569 95.0998 172.393 98.6366 172.393 102.173C172.393 105.71 173.96 109.247 175.919 111.998C178.27 114.749 179.837 118.286 179.837 121.823V126.145C179.837 129.682 178.27 133.219 175.919 135.97C174.744 137.149 173.177 137.935 171.218 137.935H160.247C158.288 137.935 156.721 137.149 155.546 135.97C153.195 133.219 151.628 129.682 151.628 126.145V121.823C151.628 118.286 153.195 114.749 155.546 111.998C157.896 109.247 159.072 106.103 159.072 102.173C159.072 98.6366 157.505 95.0998 155.546 92.3489C153.195 89.598 151.628 86.0612 151.628 82.1314V77.8085C151.628 74.2717 153.195 70.7349 155.546 67.984C157.896 65.2331 159.072 62.0893 159.072 58.1594C159.072 49.1208 151.236 42.0471 141.833 43.6191C135.955 44.798 131.254 49.5138 130.078 55.4086C129.295 60.1243 130.862 64.8401 133.605 67.984C135.955 70.7349 137.131 74.2717 137.131 77.8085V83.3103C137.131 85.6682 134.388 87.2401 132.429 85.6682C132.429 85.6682 116.365 77.0226 116.365 73.4857C116.365 69.5559 114.798 66.0191 112.447 63.2682C110.096 60.5173 108.921 56.9805 108.921 53.4436V45.977C108.921 42.4401 110.488 38.9033 112.839 36.1524C115.19 33.4015 116.365 30.2577 116.365 26.3278C116.365 17.2892 108.529 10.2156 99.1259 11.7875C93.2488 12.9664 88.5472 17.6822 87.3718 23.577C86.5882 28.2928 88.1554 33.0085 91.2898 36.1524C93.6406 38.9033 94.8161 42.4401 94.8161 45.977V53.8366C94.8161 57.3735 93.6406 60.9103 90.898 63.6612C87.7636 67.198 86.1964 71.9138 87.3718 77.4156C88.5472 81.7384 91.6816 85.2752 95.5997 86.8472C98.3423 88.0261 101.085 88.4191 103.436 88.0261C106.962 87.6331 110.488 88.0261 113.623 89.991C113.623 89.991 128.903 98.6366 129.295 101.78C129.295 105.317 130.862 108.854 132.821 111.605C135.172 114.356 136.739 117.893 136.739 121.43C136.739 121.43 137.523 126.931 137.131 130.468C137.131 132.04 135.172 133.612 133.605 133.219C126.552 131.254 114.406 121.43 114.406 121.43C114.406 121.037 114.406 121.037 114.406 120.644C114.406 112.391 107.746 106.103 99.9095 106.103C98.7341 106.103 97.1669 106.103 95.9915 106.496C92.4652 107.675 88.5472 106.889 85.4128 104.924C85.4128 104.924 76.7931 101.387 76.4013 99.8156C76.0095 95.8857 74.8341 92.3489 72.4832 89.598C69.7406 86.8471 68.957 83.3103 68.957 79.3805V74.6647C68.957 71.1278 70.5242 67.591 72.875 64.8401C75.2259 62.0893 76.4013 58.9454 76.4013 55.0156C76.4013 45.977 68.5652 38.9033 59.1619 40.4752C53.2849 41.6542 48.5832 46.37 47.4078 52.2647C46.6242 56.9805 48.1914 61.6963 50.934 64.8401C53.2849 67.591 54.4603 71.1278 54.4603 74.6647V80.5594C54.4603 84.0963 53.2848 87.6331 50.5422 90.384C47.4078 93.9208 45.8406 99.0296 47.4078 104.531C48.5832 108.854 52.1094 112.391 56.4193 113.963C59.1619 114.749 61.9045 115.142 64.2554 114.356C67.7816 113.57 71.6996 113.963 75.2259 115.535L79.1439 117.5C82.2783 119.072 84.6292 121.823 85.8046 125.359C87.7636 130.861 93.2488 135.184 99.5177 135.184C100.693 135.184 101.477 135.184 102.652 134.791C106.178 134.005 109.705 134.398 112.839 136.363C117.149 138.721 122.634 141.865 125.769 143.83C127.336 144.616 127.728 147.366 126.16 148.545C123.026 150.903 117.541 153.261 113.623 155.226C110.88 156.405 107.354 156.798 104.611 155.619C100.301 154.047 95.5997 154.44 90.5062 157.977C88.1554 159.549 86.98 161.514 85.8046 163.872C84.6292 167.802 82.2783 170.945 78.7521 172.91L76.0095 174.482C72.4832 176.447 68.5652 176.447 65.039 175.661C62.6881 175.268 59.9455 175.268 57.2029 176.054C52.893 177.626 49.3668 181.163 48.1914 185.486C46.6242 190.988 48.1914 196.096 51.3258 200.026C53.6767 202.777 55.2439 206.314 55.2439 209.851V218.103C55.2439 221.64 53.6767 225.177 51.3258 227.928C48.975 230.679 47.7996 233.823 47.7996 237.752C47.7996 246.791 55.6357 253.865 65.039 252.293C70.916 251.114 75.6177 246.398 76.7931 240.503C77.5767 235.788 76.0095 231.072 72.875 227.928C70.5242 225.177 69.3488 221.64 69.3488 218.103V209.851C69.3488 206.314 70.916 202.777 73.2668 200.026C74.4423 198.454 75.6177 196.882 76.4013 194.917C77.5767 191.381 79.9275 188.63 83.0619 187.058C85.021 185.879 86.1964 185.093 86.1964 185.093C89.3308 183.128 93.2488 183.128 97.1669 183.914C101.085 184.7 105.395 184.307 110.096 181.163C112.447 179.591 114.406 176.84 114.798 174.089C115.582 170.552 117.541 167.802 120.675 165.837C124.985 163.086 130.47 159.549 134.388 158.37C135.955 157.977 137.523 159.156 137.914 160.728C138.306 164.265 137.523 170.159 137.523 170.159C137.523 173.696 135.955 177.233 133.605 179.984C131.254 182.735 130.078 185.879 130.078 189.809C130.078 191.773 121.851 196.489 115.582 199.633C112.447 201.205 108.529 201.598 105.003 200.812C102.652 200.419 99.9095 200.419 97.1669 201.598C92.857 203.17 89.3308 206.707 88.1554 211.03C86.5882 216.531 88.1554 221.64 91.2898 225.177C93.6406 227.928 95.2079 231.465 95.2079 235.002V242.861C95.2079 246.398 93.6406 249.935 91.2898 252.686C88.939 255.437 87.7636 258.581 87.7636 262.51C87.7636 266.047 89.3308 269.584 91.2898 272.335C93.6406 275.086 95.2079 278.623 95.2079 282.159V289.626C95.2079 293.163 93.6406 296.7 91.2898 299.451C88.939 302.202 87.7636 305.345 87.7636 309.275C87.7636 318.314 95.5997 325.388 105.003 323.816C110.88 322.637 115.582 317.921 116.757 312.026C117.541 307.31 115.973 302.595 112.839 299.451C110.488 296.7 109.313 293.163 109.313 289.626V282.159C109.313 278.623 110.88 275.086 113.231 272.335C115.582 269.584 116.757 266.44 116.757 262.51C116.757 258.974 115.19 255.437 113.231 252.686C110.88 249.935 109.313 246.398 109.313 242.468V234.609C109.313 231.072 110.88 227.535 113.231 224.784C115.582 222.033 116.757 218.889 117.149 214.959C117.149 212.602 128.119 205.135 134.78 202.777C136.739 201.991 138.306 203.563 138.698 205.528C138.698 209.065 137.914 213.781 137.914 213.781C137.914 217.317 136.347 220.854 133.996 223.605C131.646 226.356 130.47 229.5 130.47 233.43C130.47 242.468 138.698 249.542 147.71 247.97C153.587 246.791 158.288 242.075 159.464 236.181C160.247 231.465 158.68 226.749 155.546 223.605C153.195 220.854 151.628 217.317 151.628 213.781V209.458C151.628 205.921 153.195 202.384 155.546 199.24C157.896 196.489 159.072 193.345 159.072 189.416C159.072 185.879 157.505 182.342 155.546 179.591C153.195 176.84 151.628 173.303 151.628 169.373V165.444C151.628 161.514 152.803 157.977 155.546 155.226C155.937 154.833 156.329 154.44 156.329 154.047C157.505 152.475 159.464 151.689 161.423 151.689H170.042C172.001 151.689 173.96 152.868 175.136 154.44L175.528 154.833C177.878 157.584 179.446 161.121 179.446 165.051V169.373C179.446 172.91 177.878 176.447 175.528 179.591C173.177 182.342 172.001 185.486 172.001 189.416C172.001 192.952 173.569 196.489 175.528 199.24C177.878 201.991 179.446 205.528 179.446 209.458V213.781C179.446 217.317 178.27 220.854 175.528 223.605C172.393 226.749 170.826 231.072 171.61 236.181C172.785 242.075 177.487 246.791 183.364 247.97C192.767 249.542 200.603 242.468 200.603 233.43C200.603 229.893 199.036 226.356 197.077 223.605C194.726 220.854 193.159 217.317 193.159 213.781C193.159 213.781 192.375 209.065 192.375 205.528C192.375 203.563 194.334 202.384 196.293 202.777C202.954 205.135 213.924 212.995 213.924 214.959C213.924 218.889 215.492 222.033 217.842 224.784C220.193 227.535 221.76 231.072 221.76 234.609V242.468C221.76 246.005 220.193 249.542 217.842 252.293C215.492 255.044 214.316 258.188 214.316 262.117C214.316 265.654 215.883 269.191 217.842 271.942C220.193 274.693 221.76 278.23 221.76 281.766V289.233C221.76 292.77 220.585 296.307 218.234 299.058C215.1 302.202 213.533 306.524 214.316 311.633C215.492 317.528 220.193 322.244 226.07 323.423C235.474 324.995 243.31 317.921 243.31 308.882C243.31 305.345 241.742 301.809 239.783 299.058C237.433 296.307 235.865 292.77 235.865 289.233V281.766C235.865 278.23 237.433 274.693 239.783 271.942C242.134 269.191 243.31 266.047 243.31 262.117C243.31 258.58 241.742 255.044 239.783 252.293C237.433 249.542 235.865 246.005 235.865 242.468V234.609C235.865 231.072 237.041 227.535 239.783 224.784C242.918 221.247 244.485 216.138 242.918 210.637C241.742 206.314 238.216 202.777 233.906 201.205C231.164 200.026 228.421 200.026 226.07 200.419C222.544 201.205 219.018 200.812 215.492 199.24C209.615 196.096 201.387 191.381 200.995 189.416C200.603 185.879 199.428 182.342 197.469 179.591C195.118 176.84 193.551 173.303 193.551 169.766C193.551 169.766 192.767 163.872 193.159 160.335C193.159 158.763 195.118 157.584 196.685 157.977C200.603 159.156 206.088 162.693 210.398 165.444C213.141 167.409 215.492 170.159 216.275 173.696C217.059 176.447 218.626 179.198 220.977 180.77C225.287 183.914 229.988 184.307 233.906 183.521C237.433 182.735 241.351 183.128 244.877 184.7C244.877 184.7 246.444 185.486 248.011 186.665C251.146 188.237 253.497 191.381 254.672 194.524C255.456 196.489 256.239 198.061 257.806 199.633C260.157 202.384 261.725 205.921 261.725 209.458V217.71C261.725 221.247 260.549 224.784 258.198 227.535C255.064 230.679 253.497 235.002 254.28 240.11C255.456 246.005 260.157 250.721 266.034 251.9C275.438 253.472 283.274 246.398 283.274 237.359C282.882 234.216 281.315 231.072 279.356 228.321Z" fill="#079DD9"/>
</g>
<defs>
<clipPath id="clip0">
<rect width="329" height="336" fill="white"/>
</clipPath>
</defs>
</svg>
