<svg width="88" height="52" viewBox="0 0 88 52" fill="none" xmlns="http://www.w3.org/2000/svg">
<path d="M25.0105 18.9716C25.0105 20.0287 25.1263 20.8859 25.3289 21.5145C25.5605 22.143 25.85 22.8287 26.2552 23.5716C26.4 23.8002 26.4579 24.0287 26.4579 24.2287C26.4579 24.5145 26.2842 24.8002 25.9079 25.0859L24.0842 26.2859C23.8236 26.4573 23.5631 26.543 23.3315 26.543C23.0421 26.543 22.7526 26.4002 22.4631 26.143C22.0579 25.7144 21.7105 25.2573 21.421 24.8002C21.1315 24.3145 20.8421 23.7716 20.5236 23.1145C18.2658 25.743 15.4289 27.0573 12.0131 27.0573C9.58154 27.0573 7.64207 26.3716 6.22365 25.0002C4.80523 23.6287 4.08154 21.8002 4.08154 19.5145C4.08154 17.0859 4.94996 15.1145 6.71575 13.6287C8.48154 12.143 10.8263 11.4002 13.8079 11.4002C14.7921 11.4002 15.8052 11.4859 16.8763 11.6287C17.9473 11.7716 19.0473 12.0002 20.2052 12.2573V10.1716C20.2052 8.00017 19.7421 6.48588 18.8447 5.60017C17.9184 4.71445 16.3552 4.28588 14.1263 4.28588C13.1131 4.28588 12.071 4.40017 11 4.65731C9.92891 4.91445 8.88681 5.22874 7.87365 5.62874C7.41049 5.82874 7.06312 5.94302 6.86049 6.00017C6.65786 6.05731 6.51312 6.08588 6.39733 6.08588C5.99207 6.08588 5.78944 5.80017 5.78944 5.20017V3.80017C5.78944 3.34302 5.84733 3.00017 5.99207 2.80017C6.13681 2.60017 6.39733 2.40017 6.8026 2.20017C7.81575 1.68588 9.03154 1.25731 10.45 0.914453C11.8684 0.543024 13.3736 0.371596 14.9658 0.371596C18.4105 0.371596 20.9289 1.14302 22.55 2.68588C24.1421 4.22874 24.9526 6.5716 24.9526 9.71445V18.9716H25.0105ZM13.2579 23.3144C14.2131 23.3144 15.1973 23.143 16.2394 22.8002C17.2815 22.4573 18.2079 21.8287 18.9894 20.9716C19.4526 20.4287 19.8 19.8287 19.9736 19.143C20.1473 18.4573 20.2631 17.6287 20.2631 16.6573V15.4573C19.4236 15.2573 18.5263 15.0859 17.6 14.9716C16.6736 14.8573 15.7763 14.8002 14.8789 14.8002C12.9394 14.8002 11.521 15.1716 10.5658 15.943C9.61049 16.7145 9.14733 17.8002 9.14733 19.2287C9.14733 20.5716 9.4947 21.5716 10.2184 22.2573C10.9131 22.9716 11.9263 23.3144 13.2579 23.3144ZM36.5026 26.4002C35.9815 26.4002 35.6342 26.3144 35.4026 26.1145C35.171 25.943 34.9684 25.543 34.7947 25.0002L27.9921 2.91445C27.8184 2.34302 27.7315 1.9716 27.7315 1.7716C27.7315 1.31445 27.9631 1.05731 28.4263 1.05731H31.2631C31.8131 1.05731 32.1894 1.14302 32.3921 1.34302C32.6236 1.51445 32.7973 1.91445 32.971 2.45731L37.8342 21.3716L42.35 2.45731C42.4947 1.88588 42.6684 1.51445 42.9 1.34302C43.1315 1.1716 43.5368 1.05731 44.0578 1.05731H46.3736C46.9236 1.05731 47.3 1.14302 47.5315 1.34302C47.7631 1.51445 47.9657 1.91445 48.0815 2.45731L52.6552 21.6002L57.6631 2.45731C57.8368 1.88588 58.0394 1.51445 58.2421 1.34302C58.4736 1.1716 58.85 1.05731 59.371 1.05731H62.0631C62.5263 1.05731 62.7868 1.28588 62.7868 1.7716C62.7868 1.91445 62.7579 2.05731 62.7289 2.22874C62.7 2.40017 62.6421 2.62874 62.5263 2.94302L55.55 25.0287C55.3763 25.6002 55.1736 25.9716 54.9421 26.143C54.7105 26.3144 54.3342 26.4287 53.8421 26.4287H51.3526C50.8026 26.4287 50.4263 26.343 50.1947 26.143C49.9631 25.943 49.7605 25.5716 49.6447 25.0002L45.1579 6.57159L40.7 24.9716C40.5552 25.543 40.3815 25.9144 40.15 26.1145C39.9184 26.3144 39.5131 26.4002 38.9921 26.4002H36.5026ZM73.7 27.1716C72.1947 27.1716 70.6894 27.0002 69.2421 26.6573C67.7947 26.3144 66.6657 25.943 65.9131 25.5145C65.45 25.2573 65.1315 24.9716 65.0157 24.7144C64.9 24.4573 64.8421 24.1716 64.8421 23.9144V22.4573C64.8421 21.8573 65.0736 21.5716 65.5079 21.5716C65.6815 21.5716 65.8552 21.6002 66.0289 21.6573C66.2026 21.7145 66.4631 21.8287 66.7526 21.943C67.7368 22.3716 68.8079 22.7145 69.9368 22.943C71.0947 23.1716 72.2236 23.2859 73.3815 23.2859C75.2052 23.2859 76.6236 22.9716 77.6078 22.343C78.5921 21.7144 79.1131 20.8002 79.1131 19.6287C79.1131 18.8287 78.8526 18.1716 78.3315 17.6287C77.8105 17.0859 76.8263 16.6002 75.4079 16.143L71.2105 14.8573C69.0973 14.2002 67.5342 13.2287 66.5789 11.943C65.6236 10.6859 65.1315 9.28588 65.1315 7.80017C65.1315 6.60017 65.3921 5.54302 65.9131 4.62874C66.4342 3.71445 67.1289 2.91445 67.9973 2.28588C68.8657 1.62874 69.85 1.14302 71.0079 0.800167C72.1657 0.45731 73.3815 0.314453 74.6552 0.314453C75.2921 0.314453 75.9578 0.343025 76.5947 0.428739C77.2605 0.514453 77.8684 0.628739 78.4763 0.743024C79.0552 0.885882 79.6052 1.02874 80.1263 1.20017C80.6473 1.3716 81.0526 1.54302 81.3421 1.71445C81.7473 1.94302 82.0368 2.1716 82.2105 2.42874C82.3842 2.65731 82.471 2.9716 82.471 3.3716V4.71445C82.471 5.31445 82.2394 5.62874 81.8052 5.62874C81.5736 5.62874 81.1973 5.51445 80.7052 5.28588C79.0552 4.54302 77.2026 4.1716 75.1473 4.1716C73.4973 4.1716 72.1947 4.42874 71.2973 4.97159C70.4 5.51445 69.9368 6.34302 69.9368 7.51445C69.9368 8.31445 70.2263 9.00017 70.8052 9.54302C71.3842 10.0859 72.4552 10.6287 73.9894 11.1145L78.1 12.4002C80.1842 13.0573 81.6894 13.9716 82.5868 15.143C83.4842 16.3145 83.9184 17.6573 83.9184 19.143C83.9184 20.3716 83.6578 21.4859 83.1657 22.4573C82.6447 23.4287 81.95 24.2859 81.0526 24.9716C80.1552 25.6859 79.0842 26.2002 77.8394 26.5716C76.5368 26.9716 75.1763 27.1716 73.7 27.1716Z" fill="white"/>
<path fill-rule="evenodd" clip-rule="evenodd" d="M79.1711 41.0573C69.6474 48.0002 55.8106 51.6859 43.9132 51.6859C27.2395 51.6859 12.2159 45.6002 0.868494 35.4859C-0.0288744 34.6859 0.781652 33.6002 1.8527 34.2287C14.1264 41.2573 29.2659 45.5145 44.9264 45.5145C55.4922 45.5145 67.1001 43.343 77.7817 38.8859C79.3738 38.1716 80.7343 39.9145 79.1711 41.0573Z" fill="#FF9900"/>
<path fill-rule="evenodd" clip-rule="evenodd" d="M83.1367 36.6002C81.9209 35.0573 75.0894 35.8573 71.992 36.2287C71.0657 36.343 70.9209 35.543 71.7604 34.943C77.2025 31.1716 86.1473 32.2573 87.1894 33.5145C88.2315 34.8002 86.8999 43.6287 81.8052 47.8573C81.0236 48.5145 80.2709 48.1716 80.6183 47.3145C81.7762 44.4859 84.3525 38.1145 83.1367 36.6002Z" fill="#FF9900"/>
</svg>
