<svg width="120" height="60" viewBox="0 0 120 60" fill="none" xmlns="http://www.w3.org/2000/svg">
<path d="M19.5001 46.685H23.7401V48.812H17.0601V40.038H19.5001V46.685ZM26.2561 44.45V44.42C26.2561 41.902 28.2891 39.853 30.9961 39.853C33.7031 39.853 35.7041 41.871 35.7041 44.389V44.419C35.7041 46.937 33.6711 48.986 30.9641 48.986C28.2571 48.986 26.2561 46.968 26.2561 44.45ZM33.2321 44.45V44.42C33.2321 43.153 32.3251 42.058 30.9801 42.058C29.6501 42.058 28.7601 43.138 28.7601 44.404V44.434C28.7601 45.701 29.6671 46.796 30.9971 46.796C32.3421 46.796 33.2341 45.716 33.2341 44.45H33.2321ZM38.7001 44.965V40.038H41.1701V44.918C41.1701 46.185 41.8101 46.778 42.7701 46.778C43.7301 46.778 44.3701 46.198 44.3701 44.978V40.036H46.8401V44.9C46.8401 47.73 45.2401 48.967 42.7271 48.967C40.2401 48.967 38.6771 47.717 38.6771 44.963L38.7001 44.965ZM50.5571 40.038H53.9351C57.0631 40.038 58.8931 41.838 58.8931 44.37V44.4C58.8931 46.934 57.0471 48.8 53.8881 48.8H50.5581V40.026L50.5571 40.038ZM53.9821 46.654C55.4371 46.654 56.4061 45.856 56.4061 44.434V44.404C56.4061 42.996 55.4361 42.184 53.9821 42.184H52.9971V46.642H53.9821V46.654ZM62.4481 40.038H69.4711V42.165H64.8731V43.667H69.0331V45.685H64.8731V48.813H62.4501L62.4481 40.038ZM75.2731 46.685H79.5271V48.812H72.8471V40.038H75.2711L75.2731 46.685ZM85.8771 39.985H88.2231L91.9611 48.822H89.3611L88.7211 47.258H85.3411L84.7151 48.822H82.1651L85.8871 39.985H85.8771ZM88.0201 45.365L87.0501 42.878L86.0651 45.365H88.0201ZM95.1001 40.048H99.2451C100.59 40.048 101.513 40.392 102.107 41.002C102.623 41.502 102.889 42.175 102.889 43.052V43.082C102.889 44.427 102.169 45.319 101.089 45.782L103.185 48.848H100.37L98.6031 46.188H97.5301V48.848H95.1001V40.048ZM99.1351 44.255C99.9651 44.255 100.433 43.848 100.433 43.223V43.193C100.433 42.505 99.9331 42.161 99.1191 42.161H97.5241V44.257H99.1241L99.1351 44.255ZM108.8 46.748H113.508V48.813H106.392V40.04H113.446V42.105H108.8V43.435H113.007V45.359H108.8V46.748ZM11.7401 45.48C11.3961 46.246 10.6761 46.794 9.73809 46.794C8.40809 46.794 7.50109 45.694 7.50109 44.432V44.402C7.50109 43.135 8.39309 42.056 9.72109 42.056C10.7211 42.056 11.4881 42.656 11.8011 43.511H14.3661C13.9591 41.415 12.1141 39.867 9.73609 39.867C7.03009 39.867 4.99609 41.917 4.99609 44.434V44.464C5.00009 46.982 7.00209 49 9.70809 49C12.0231 49 13.8381 47.498 14.3061 45.496L11.7411 45.48H11.7401Z" fill="white"/>
<path d="M102.7 21.7002L75.25 21.8882V35.8242H110.566V26.0402L103.866 22.1922L102.7 21.7002Z" fill="white"/>
<path d="M98.343 34.5322C98.671 33.4062 98.546 32.3742 97.999 31.6072C97.499 30.9032 96.654 30.5072 95.637 30.4502L76.383 30.2002C76.258 30.2002 76.148 30.1372 76.086 30.0442C76.024 29.9512 76.008 29.8242 76.039 29.7002C76.0741 29.6056 76.1354 29.523 76.2159 29.4621C76.2963 29.4011 76.3924 29.3644 76.493 29.3562L95.919 29.1062C98.219 29.0062 100.721 27.1362 101.597 24.8522L102.697 21.9582C102.746 21.8395 102.757 21.7084 102.728 21.5832C101.478 15.9212 96.425 11.6982 90.388 11.6982C87.7443 11.6982 85.1669 12.5265 83.0181 14.0666C80.8694 15.6068 79.2571 17.7816 78.408 20.2852C77.313 19.4722 75.921 19.0352 74.42 19.1852C73.1179 19.32 71.9019 19.8988 70.9762 20.8245C70.0506 21.7501 69.4717 22.9661 69.337 24.2682C69.2722 24.9334 69.3195 25.6047 69.477 26.2542C67.3728 26.3136 65.3748 27.1919 63.9083 28.7021C62.4418 30.2123 61.6226 32.2352 61.625 34.3402C61.6276 34.7324 61.6537 35.1241 61.703 35.5132C61.733 35.7012 61.891 35.8412 62.078 35.8412H97.613C97.816 35.8412 98.013 35.7012 98.067 35.4972L98.333 34.5432L98.343 34.5322Z" fill="#F38020"/>
<path d="M104.474 22.1602L103.942 22.1762C103.817 22.1762 103.707 22.2702 103.66 22.3962L102.91 25.0082C102.582 26.1342 102.707 27.1662 103.254 27.9332C103.754 28.6372 104.599 29.0332 105.616 29.0902L109.714 29.3402C109.839 29.3402 109.949 29.4032 110.011 29.4962C110.042 29.5473 110.062 29.6042 110.07 29.6633C110.078 29.7225 110.074 29.7827 110.058 29.8402C110.023 29.9348 109.962 30.0174 109.881 30.0784C109.801 30.1393 109.705 30.176 109.604 30.1842L105.334 30.4342C103.019 30.5342 100.532 32.4042 99.6561 34.6882L99.3431 35.4862C99.2801 35.6422 99.3901 35.7992 99.5631 35.7992H114.233C114.405 35.7992 114.561 35.6992 114.608 35.5172C114.866 34.5901 114.998 33.6325 114.999 32.6702C114.991 29.8822 113.88 27.2109 111.907 25.241C109.934 23.271 107.261 22.1629 104.473 22.1592" fill="#FAAE40"/>
</svg>
