<svg width="47" height="47" viewBox="0 0 47 47" fill="none" xmlns="http://www.w3.org/2000/svg">
<path d="M43.8473 12.2787C41.7459 8.67817 38.8955 5.82762 35.2953 3.72641C31.6945 1.6251 27.7636 0.574707 23.4996 0.574707C19.2362 0.574707 15.304 1.62542 11.704 3.72641C8.10346 5.82751 5.25312 8.67817 3.1517 12.2787C1.0506 15.8791 0 19.8108 0 24.0737C0 29.1943 1.49397 33.799 4.48267 37.8888C7.47104 41.9789 11.3316 44.809 16.064 46.3796C16.6148 46.4819 17.0226 46.41 17.2877 46.1657C17.553 45.9212 17.6855 45.6149 17.6855 45.2481C17.6855 45.1869 17.6802 44.6364 17.67 43.5959C17.6595 42.5553 17.6546 41.6476 17.6546 40.8731L16.9508 40.9948C16.5021 41.077 15.936 41.1118 15.2526 41.102C14.5694 41.0924 13.8603 41.0208 13.1261 40.8877C12.3915 40.7558 11.7083 40.4498 11.0759 39.9705C10.4438 39.4911 9.99504 38.8636 9.72979 38.0889L9.42381 37.3848C9.21987 36.9161 8.89878 36.3953 8.46013 35.8245C8.02147 35.2532 7.57789 34.8659 7.12916 34.6619L6.91493 34.5086C6.77217 34.4066 6.63971 34.2837 6.51721 34.1411C6.39482 33.9984 6.30319 33.8557 6.242 33.7127C6.18069 33.5696 6.23149 33.4523 6.39493 33.3602C6.55837 33.2682 6.85373 33.2235 7.28231 33.2235L7.89405 33.3149C8.30205 33.3967 8.80672 33.6409 9.4087 34.0491C10.0104 34.457 10.505 34.9873 10.8926 35.6398C11.362 36.4763 11.9276 37.1138 12.5908 37.5524C13.2536 37.9911 13.9218 38.2101 14.5948 38.2101C15.2679 38.2101 15.8492 38.159 16.339 38.0575C16.8282 37.9555 17.2872 37.8022 17.7158 37.5983C17.8994 36.231 18.3992 35.1806 19.2149 34.4464C18.0523 34.3242 17.0071 34.1402 16.0786 33.8955C15.1507 33.6505 14.1919 33.2529 13.2027 32.7016C12.213 32.1511 11.3919 31.4675 10.7393 30.6519C10.0867 29.8359 9.55103 28.7646 9.13316 27.439C8.71509 26.1128 8.506 24.5831 8.506 22.8493C8.506 20.3806 9.31193 18.2798 10.9235 16.5457C10.1685 14.6897 10.2398 12.6091 11.1375 10.3041C11.7291 10.1203 12.6064 10.2582 13.769 10.717C14.9318 11.176 15.7832 11.5692 16.3239 11.8952C16.8647 12.2212 17.298 12.4973 17.6245 12.7213C19.522 12.1911 21.4801 11.926 23.4994 11.926C25.5187 11.926 27.4773 12.1911 29.3749 12.7213L30.5376 11.9873C31.3327 11.4975 32.2716 11.0487 33.3521 10.6407C34.4333 10.2329 35.26 10.1206 35.8314 10.3044C36.749 12.6095 36.8308 14.6901 36.0757 16.5461C37.6871 18.2801 38.4934 20.3814 38.4934 22.8496C38.4934 24.5834 38.2835 26.118 37.8661 27.4543C37.4481 28.7908 36.9079 29.8611 36.2451 30.6672C35.5816 31.4732 34.7553 32.1515 33.7661 32.702C32.7767 33.2528 31.8175 33.6504 30.8896 33.8954C29.9613 34.1404 28.9161 34.3245 27.7535 34.4469C28.8138 35.3645 29.3441 36.813 29.3441 38.7916V45.2473C29.3441 45.614 29.4717 45.9202 29.7269 46.1649C29.9819 46.4091 30.3845 46.481 30.9354 46.3787C35.6684 44.8083 39.529 41.978 42.5172 37.8879C45.5052 33.7981 46.9997 29.1935 46.9997 24.0728C46.9986 19.8105 45.9475 15.8791 43.8473 12.2787Z" fill="white"/>
</svg>
