<svg width="138" height="23" viewBox="0 0 138 23" fill="none" xmlns="http://www.w3.org/2000/svg">
<path fill-rule="evenodd" clip-rule="evenodd" d="M11.6291 22.9998V18.5843C16.4087 18.5843 20.1043 13.9464 18.2797 9.02027C17.6037 7.19566 16.119 5.74039 14.258 5.07807C9.2338 3.29089 4.50458 6.91292 4.50385 11.5979C4.50385 11.5979 4.50337 11.599 4.50273 11.599H0C0 4.13372 7.35628 -1.67893 15.3355 0.763113C18.8223 1.83039 21.5931 4.54685 22.6817 7.96529C25.1723 15.788 19.2438 22.9998 11.6291 22.9998Z" fill="#086EFF"/>
<path fill-rule="evenodd" clip-rule="evenodd" d="M11.6392 18.5956H7.14879V14.1946C7.14879 14.1946 7.14919 14.1938 7.14967 14.1938H11.6386C11.6391 14.1938 11.6393 14.1942 11.6393 14.1942V18.5956H11.6392ZM7.14799 21.9782H3.69895L3.69799 21.9772V18.5956H7.14871V21.9772L7.14799 21.9782ZM3.70056 18.5956H0.809215C0.808012 18.5956 0.807129 18.5946 0.807129 18.5946V15.7613C0.807129 15.7613 0.808012 15.7594 0.809215 15.7594H3.69839C3.69959 15.7594 3.70056 15.7602 3.70056 15.7602V18.5956ZM34.725 7.64194H36.048C37.5199 7.64194 38.7318 7.92587 39.6504 8.48635C40.6705 9.08935 41.188 10.2367 41.188 11.896C41.188 13.6054 40.6693 14.8044 39.647 15.4604H39.6463C38.7661 16.0311 37.5618 16.3205 36.0664 16.3205H34.725V7.64194ZM41.4035 6.79046C40.0718 5.88474 38.4147 5.42553 36.4783 5.42553H32.2631V18.537H36.4783C38.4098 18.537 40.0676 18.0522 41.4051 17.097C42.1328 16.5908 42.7046 15.8832 43.1048 14.9945C43.503 14.1106 43.7049 13.0682 43.7049 11.8961C43.7049 10.7377 43.503 9.70868 43.1046 8.83706C42.7044 7.96148 42.1322 7.27306 41.4035 6.79054V6.79046ZM46.6393 5.26413C46.234 5.26413 45.8848 5.40507 45.6038 5.68083C45.3193 5.94652 45.1748 6.28335 45.1748 6.68157C45.1748 7.07891 45.3185 7.4209 45.6017 7.69872C45.8848 7.97631 46.2339 8.11748 46.6393 8.11748C47.0438 8.11748 47.393 7.97631 47.6765 7.69872C47.9601 7.4205 48.1037 7.07844 48.1037 6.68157C48.1037 6.28383 47.9592 5.94715 47.6765 5.68289C47.393 5.40507 47.0438 5.26413 46.6393 5.26413ZM45.4313 18.537H47.8012V9.30246H45.4313V18.537ZM55.7872 15.5278C55.373 15.9889 54.841 16.2126 54.1614 16.2126C53.4817 16.2126 52.9527 15.989 52.5447 15.5282C52.1383 15.07 51.9319 14.4623 51.9319 13.722C51.9319 12.9702 52.1383 12.3549 52.5449 11.8933C52.9477 11.4365 53.4913 11.2046 54.1614 11.2046C54.8405 11.2046 55.3726 11.4299 55.787 11.8942C56.1996 12.3558 56.4089 12.9707 56.4089 13.722C56.4089 14.4618 56.1996 15.0693 55.7872 15.5278ZM56.409 10.0738C55.6943 9.45061 54.896 9.08689 54.033 9.08689C52.7248 9.08689 51.6373 9.53087 50.8016 10.405C49.9547 11.2721 49.5253 12.3883 49.5253 13.722C49.5253 15.0259 49.948 16.1381 50.7833 17.03C51.6256 17.8929 52.7188 18.3304 54.033 18.3304C54.9468 18.3304 55.7325 18.081 56.3723 17.5883V17.8009C56.3723 18.5672 56.1631 19.1631 55.7505 19.5727C55.3383 19.9814 54.7668 20.1884 54.0517 20.1884C52.9576 20.1884 52.2719 19.767 51.437 18.6608L49.8231 20.1811L49.8666 20.2409C50.2153 20.7208 50.7492 21.1903 51.454 21.6363C52.159 22.0807 53.0452 22.3063 54.0882 22.3063C55.4952 22.3063 56.6337 21.8809 57.4718 21.0426C58.3147 20.1997 58.7422 19.071 58.7422 17.6889V9.30246H56.4089V10.0738H56.409ZM60.7707 18.537H63.1408V9.30246H60.7707V18.537ZM61.9787 5.26413C61.5733 5.26413 61.2245 5.40507 60.9432 5.68083C60.6586 5.94652 60.5144 6.28335 60.5144 6.68157C60.5144 7.07891 60.658 7.4209 60.9413 7.69872C61.2245 7.97631 61.5733 8.11748 61.9787 8.11748C62.3834 8.11748 62.7325 7.97631 63.0159 7.69872C63.2995 7.4205 63.443 7.07844 63.443 6.68157C63.443 6.28383 63.2988 5.94715 63.0159 5.68289C62.7325 5.40507 62.3834 5.26413 61.9786 5.26413H61.9787ZM68.3358 6.80712H66.0025V9.30246H64.6475V11.4202H66.0025V15.256C66.0025 16.4563 66.247 17.3153 66.7297 17.8083C67.2136 18.3038 68.0729 18.555 69.2836 18.555C69.6687 18.555 70.0562 18.5426 70.4353 18.5182L70.542 18.5113V16.395L69.7292 16.4367C69.1649 16.4367 68.7882 16.3395 68.6091 16.1483C68.4278 15.954 68.3358 15.5427 68.3358 14.9266V11.4203H70.542V9.30246H68.3358V6.80704V6.80712ZM81.6553 18.537H84.0257V5.42561H81.6553V18.537ZM107.971 15.2349C107.547 15.7007 107.113 16.1046 106.779 16.3145V16.3149C106.451 16.521 106.038 16.6257 105.55 16.6257C104.852 16.6257 104.29 16.3763 103.833 15.8626C103.378 15.3519 103.147 14.6955 103.147 13.9105C103.147 13.1256 103.375 12.4701 103.824 11.963C104.275 11.4527 104.834 11.2046 105.532 11.2046C106.295 11.2046 107.1 11.6701 107.79 12.4694L109.356 10.9968C108.335 9.69346 107.032 9.08689 105.477 9.08689C104.176 9.08689 103.047 9.55181 102.124 10.4678C101.206 11.3775 100.74 12.5357 100.74 13.9105C100.74 15.2854 101.205 16.4467 102.123 17.3621C103.041 18.2787 104.17 18.7435 105.477 18.7435C107.193 18.7435 108.578 18.0172 109.512 16.6866L107.971 15.2349ZM112.518 12.7667C112.632 12.3251 112.84 11.9571 113.137 11.6714C113.459 11.3616 113.877 11.2046 114.38 11.2046C114.954 11.2046 115.399 11.3648 115.702 11.6816C115.982 11.9747 116.14 12.3396 116.174 12.7666H112.518V12.7667ZM117.699 10.5924C117.363 10.1334 116.905 9.7638 116.338 9.49367C115.772 9.2237 115.113 9.08681 114.379 9.08681C113.056 9.08681 111.974 9.56561 111.161 10.5101C110.372 11.4476 109.972 12.6126 109.972 13.9732C109.972 15.3729 110.411 16.5312 111.276 17.4161C112.137 18.2968 113.289 18.7435 114.7 18.7435C116.298 18.7435 117.61 18.1098 118.598 16.8597L118.651 16.7925L117.105 15.3356C116.961 15.5052 116.759 15.6973 116.573 15.8687C116.339 16.0852 116.119 16.2527 115.884 16.3675C115.53 16.5404 115.132 16.6257 114.688 16.6257C114.031 16.6257 113.488 16.4363 113.072 16.0626C112.683 15.7134 112.456 15.2421 112.395 14.6601H118.675L118.696 13.812C118.696 13.2117 118.613 12.6333 118.448 12.0928C118.285 11.5547 118.032 11.0475 117.699 10.5924H117.699ZM122.593 15.008C122.862 14.8242 123.241 14.7318 123.722 14.7318C124.292 14.7318 124.898 14.8439 125.521 15.0657V15.9715C125.006 16.441 124.318 16.6791 123.475 16.6791C123.065 16.6791 122.746 16.5898 122.527 16.413C122.312 16.2401 122.207 16.02 122.207 15.7413C122.207 15.4245 122.333 15.1844 122.593 15.008H122.593ZM126.801 9.99333H126.801C126.083 9.39216 125.09 9.08681 123.85 9.08681C123.061 9.08681 122.324 9.25685 121.657 9.58837C121.04 9.8953 120.434 10.4033 120.049 11.0685L120.073 11.0969L121.59 12.5213C122.215 11.544 122.91 11.2047 123.832 11.2047C124.327 11.2047 124.739 11.335 125.054 11.5918C125.368 11.8469 125.521 12.1711 125.521 12.5824V13.0307C124.934 12.8554 124.347 12.7666 123.777 12.7666C122.598 12.7666 121.638 13.0388 120.925 13.575C120.203 14.1184 119.837 14.8955 119.837 15.8849C119.837 16.7526 120.145 17.4575 120.756 17.9813C121.372 18.4867 122.142 18.7435 123.045 18.7435C123.947 18.7435 124.791 18.387 125.558 17.7766V18.537H127.892V12.6004C127.892 11.4764 127.525 10.5994 126.801 9.99333ZM137.009 10.1742C136.349 9.45307 135.422 9.08681 134.252 9.08681C133.311 9.08681 132.548 9.35155 131.977 9.87405V9.30246H129.652V18.537H132.022V13.444C132.022 12.7443 132.192 12.1887 132.527 11.7923C132.861 11.3968 133.321 11.2046 133.931 11.2046C134.468 11.2046 134.875 11.3765 135.175 11.7297C135.477 12.0845 135.63 12.5734 135.63 13.1838V18.537H138V13.1838C138 11.9048 137.667 10.8925 137.009 10.1742ZM74.4683 15.008C74.7372 14.8242 75.1171 14.7318 75.5976 14.7318C76.1682 14.7318 76.7731 14.8439 77.3969 15.0657V15.9715C76.8817 16.441 76.1936 16.6791 75.3508 16.6791C74.9405 16.6791 74.6217 16.5898 74.4025 16.413C74.1873 16.2401 74.0826 16.02 74.0826 15.7413C74.0826 15.4245 74.2088 15.1844 74.4683 15.008ZM78.6766 9.99333H78.6763C77.9581 9.39216 76.9651 9.08681 75.7257 9.08681C74.937 9.08681 74.1997 9.25685 73.5324 9.58837C72.9151 9.8953 72.3091 10.4033 71.9243 11.0685L71.948 11.0969L73.4657 12.5213C74.0909 11.544 74.7862 11.2047 75.7075 11.2047C76.2027 11.2047 76.614 11.335 76.9298 11.5918C77.2439 11.8469 77.3969 12.1711 77.3969 12.5824V13.0307C76.809 12.8554 76.223 12.7666 75.6526 12.7666C74.4732 12.7666 73.5133 13.0388 72.8004 13.575C72.0783 14.1184 71.7122 14.8955 71.7122 15.8849C71.7122 16.7526 72.0209 17.4575 72.6319 17.9813C73.2479 18.4867 74.0177 18.7435 74.9205 18.7435C75.8228 18.7435 76.6668 18.387 77.4332 17.7766V18.537H79.767V12.6004C79.767 11.4764 79.4004 10.5994 78.6767 9.99333H78.6766ZM92.6254 7.59839C90.1637 7.59839 88.1609 9.56172 88.1609 11.9754C88.1609 14.389 90.1637 16.3524 92.6254 16.3524C95.0871 16.3524 97.09 14.389 97.09 11.9754C97.09 9.56172 95.0871 7.59839 92.6254 7.59839ZM92.6254 18.7342C88.8238 18.7342 85.7312 15.7023 85.7312 11.9754C85.7312 8.24826 88.8238 5.21631 92.6254 5.21631C96.4268 5.21631 99.5194 8.24826 99.5194 11.9754C99.5194 15.7023 96.4268 18.7342 92.6254 18.7342Z" fill="#086EFF"/>
</svg>
