<svg width="160" height="73" viewBox="0 0 160 73" fill="none" xmlns="http://www.w3.org/2000/svg">
<path d="M14.7959 22.3525V49.4083H17.3991V26.5208H17.4757L33.4012 49.4083H36.3107V22.3525H33.7075V45.24H33.6309L17.7054 22.3525H14.7959Z" fill="white"/>
<path d="M49.6752 31.2953C50.8237 31.2953 51.8318 31.5353 52.6995 32.0153C53.5673 32.4953 54.2819 33.1268 54.8434 33.91C55.4304 34.6931 55.8642 35.5899 56.145 36.6004C56.4512 37.5856 56.6044 38.5961 56.6044 39.6318C56.6044 40.6676 56.4512 41.6907 56.145 42.7012C55.8642 43.6864 55.4304 44.5706 54.8434 45.3537C54.2819 46.1368 53.5673 46.7684 52.6995 47.2484C51.8318 47.7284 50.8237 47.9684 49.6752 47.9684C48.5267 47.9684 47.5186 47.7284 46.6509 47.2484C45.7831 46.7684 45.0558 46.1368 44.4688 45.3537C43.9073 44.5706 43.4734 43.6864 43.1672 42.7012C42.8864 41.6907 42.7461 40.6676 42.7461 39.6318C42.7461 38.5961 42.8864 37.5856 43.1672 36.6004C43.4734 35.5899 43.9073 34.6931 44.4688 33.91C45.0558 33.1268 45.7831 32.4953 46.6509 32.0153C47.5186 31.5353 48.5267 31.2953 49.6752 31.2953ZM49.6752 29.287C48.1694 29.287 46.8295 29.5649 45.6555 30.1206C44.5071 30.6764 43.5372 31.4216 42.7461 32.3563C41.9549 33.291 41.3551 34.3899 40.9468 35.6531C40.5384 36.8909 40.3343 38.2172 40.3343 39.6318C40.3343 41.0465 40.5384 42.3854 40.9468 43.6485C41.3551 44.8864 41.9549 45.9726 42.7461 46.9073C43.5372 47.842 44.5071 48.5873 45.6555 49.143C46.8295 49.6735 48.1694 49.9388 49.6752 49.9388C51.181 49.9388 52.5081 49.6735 53.6566 49.143C54.8306 48.5873 55.8132 47.842 56.6044 46.9073C57.3955 45.9726 57.9953 44.8864 58.4036 43.6485C58.812 42.3854 59.0162 41.0465 59.0162 39.6318C59.0162 38.2172 58.812 36.8909 58.4036 35.6531C57.9953 34.3899 57.3955 33.291 56.6044 32.3563C55.8132 31.4216 54.8306 30.6764 53.6566 30.1206C52.5081 29.5649 51.181 29.287 49.6752 29.287Z" fill="white"/>
<path d="M66.4301 29.8554V23.9819H64.0183V29.8554H60.5729V31.8637H64.0183V45.24C63.9928 46.9073 64.299 48.0568 64.9371 48.6883C65.5751 49.2946 66.6981 49.5978 68.306 49.5978C68.6633 49.5978 69.0206 49.5851 69.3779 49.5599C69.7352 49.5346 70.0925 49.522 70.4498 49.522V47.5136C69.7607 47.5894 69.0716 47.6273 68.3825 47.6273C67.5148 47.5768 66.9661 47.3368 66.7364 46.9073C66.5322 46.4526 66.4301 45.8337 66.4301 45.0506V31.8637H70.4498V29.8554H66.4301Z" fill="white"/>
<path d="M73.8913 22.3525V49.4083H76.3031V38.0024C76.3287 37.0425 76.4818 36.1583 76.7625 35.3499C77.0688 34.5163 77.4771 33.8089 77.9876 33.2279C78.5235 32.6216 79.1616 32.1543 79.9017 31.8258C80.6673 31.4722 81.5351 31.2953 82.5049 31.2953C83.4747 31.2953 84.2787 31.4469 84.9167 31.7501C85.5803 32.0532 86.1035 32.47 86.4863 33.0005C86.8691 33.531 87.1371 34.1626 87.2902 34.8952C87.4434 35.6025 87.5199 36.373 87.5199 37.2067V49.4083H89.9317V36.8277C89.9317 35.6657 89.8169 34.6173 89.5872 33.6826C89.3575 32.7479 88.9619 31.9648 88.4004 31.3332C87.8389 30.6764 87.0861 30.1712 86.1417 29.8175C85.223 29.4638 84.0745 29.287 82.6963 29.287C81.2926 29.287 80.0038 29.6533 78.8298 30.3859C77.6558 31.0932 76.8391 32.0406 76.3797 33.2279H76.3031V22.3525H73.8913Z" fill="white"/>
<path d="M94.5298 22.3525V26.1798H96.9416V22.3525H94.5298ZM94.5298 29.8554V49.4083H96.9416V29.8554H94.5298Z" fill="white"/>
<path d="M101.519 29.8554V49.4083H103.931V38.0024C103.956 37.0425 104.11 36.1583 104.39 35.3499C104.697 34.5163 105.105 33.8089 105.615 33.2279C106.151 32.6216 106.789 32.1543 107.529 31.8258C108.295 31.4722 109.163 31.2953 110.133 31.2953C111.102 31.2953 111.906 31.4469 112.544 31.7501C113.208 32.0532 113.731 32.47 114.114 33.0005C114.497 33.531 114.765 34.1626 114.918 34.8952C115.071 35.6025 115.148 36.373 115.148 37.2067V49.4083H117.559V36.8277C117.559 35.6657 117.445 34.6173 117.215 33.6826C116.985 32.7479 116.59 31.9648 116.028 31.3332C115.467 30.6764 114.714 30.1712 113.77 29.8175C112.851 29.4638 111.702 29.287 110.324 29.287C108.92 29.287 107.632 29.6533 106.458 30.3859C105.284 31.0932 104.467 32.0406 104.007 33.2279H103.931V29.8554H101.519Z" fill="white"/>
<path d="M122.119 22.3525V49.4083H124.531V41.9812L128.436 38.7603L136.246 49.4083H139.27L130.273 37.093L138.696 29.8554H135.48L124.531 39.3287V22.3525H122.119Z" fill="white"/>
<path d="M141.988 49.4083H145.204V45.3916H141.988V49.4083ZM142.294 30.4238L142.868 42.6633H144.323L144.897 30.4238V22.3525H142.294V30.4238Z" fill="white"/>
</svg>
