<svg width="132" height="24" viewBox="0 0 132 24" fill="none" xmlns="http://www.w3.org/2000/svg">
<g clip-path="url(#clip0)">
<path d="M48.2646 23.1598C48.0902 23.3343 47.8838 23.4209 47.6445 23.4209H45.1643C44.9247 23.4209 44.7183 23.3343 44.5445 23.1598C44.3699 22.9859 44.2833 22.7795 44.2833 22.5398V14.2511C44.2833 12.9025 43.9678 11.8475 43.3369 11.0857C42.7057 10.3244 41.7814 9.94355 40.5633 9.94355C39.4317 9.94355 38.5286 10.3351 37.8546 11.1184C37.1801 11.9016 36.8429 12.9457 36.8429 14.2511V22.5398C36.8429 22.7795 36.7559 22.9859 36.5821 23.1598C36.4077 23.3343 36.201 23.4209 35.962 23.4209H33.4818C33.2422 23.4209 33.0355 23.3343 32.8617 23.1598C32.6874 22.9859 32.6006 22.7795 32.6006 22.5398V1.13274C32.6006 0.893566 32.6874 0.687029 32.8617 0.512693C33.0355 0.338791 33.2422 0.251501 33.4818 0.251501H35.962C36.201 0.251501 36.4077 0.338791 36.5821 0.512693C36.7559 0.687029 36.8429 0.893566 36.8429 1.13274V8.08354C38.1484 6.77817 39.7146 6.12549 41.5421 6.12549C44.0004 6.12549 45.7788 6.8328 46.8777 8.24669C47.9759 9.66101 48.5257 11.4992 48.5257 13.7617V22.5398C48.5257 22.7795 48.4384 22.9859 48.2646 23.1598Z" fill="#FF5722"/>
<path d="M51.9838 6.71263C52.1576 6.53894 52.3643 6.45168 52.6039 6.45168H55.084C55.3231 6.45168 55.5298 6.53894 55.7041 6.71263C55.878 6.88707 55.965 7.09361 55.965 7.33268V15.6216C55.965 16.9921 56.2531 18.0527 56.8298 18.8032C57.406 19.5538 58.3034 19.9291 59.522 19.9291C60.6531 19.9291 61.5289 19.5431 62.149 18.7705C62.7691 17.9986 63.0791 16.9487 63.0791 15.6216V7.33268C63.0791 7.09361 63.1658 6.88707 63.3402 6.71263C63.514 6.53894 63.7205 6.45168 63.96 6.45168H66.4402C66.6795 6.45168 66.8859 6.53894 67.0603 6.71263C67.2341 6.88707 67.3214 7.09361 67.3214 7.33268V22.5396C67.3214 22.7793 67.2341 22.9858 67.0603 23.1597C66.8859 23.3341 66.6795 23.4207 66.4402 23.4207H63.96C63.7205 23.4207 63.514 23.3341 63.3402 23.1597C63.1658 22.9858 63.0791 22.7793 63.0791 22.5396V21.7891C61.817 23.0944 60.3052 23.7471 58.543 23.7471C56.0844 23.7471 54.3335 23.0454 53.2892 21.6423C52.2449 20.2391 51.7227 18.3953 51.7227 16.111V7.33268C51.7227 7.09361 51.8094 6.88707 51.9838 6.71263Z" fill="#FF5722"/>
<path d="M86.5092 23.1598C86.3348 23.3343 86.1281 23.4209 85.8891 23.4209H83.4089C83.1694 23.4209 82.9629 23.3343 82.7888 23.1598C82.6145 22.9859 82.528 22.7795 82.528 22.5398V14.2511C82.528 12.9025 82.2124 11.8475 81.5815 11.0857C80.9504 10.3244 80.0257 9.94355 78.8079 9.94355C77.6763 9.94355 76.7732 10.3351 76.0992 11.1184C75.4247 11.9016 75.0876 12.9457 75.0876 14.2511V22.5398C75.0876 22.7795 75.0005 22.9859 74.8267 23.1598C74.6521 23.3343 74.4456 23.4209 74.2066 23.4209H71.7265C71.4869 23.4209 71.2802 23.3343 71.1064 23.1598C70.932 22.9859 70.8452 22.7795 70.8452 22.5398V7.33284C70.8452 7.09377 70.932 6.88724 71.1064 6.71279C71.2802 6.53911 71.4869 6.45185 71.7265 6.45185H74.2066C74.4456 6.45185 74.6521 6.53911 74.8267 6.71279C75.0005 6.88724 75.0876 7.09377 75.0876 7.33284V8.08354C76.393 6.77817 77.9593 6.12549 79.7867 6.12549C82.245 6.12549 84.0234 6.8328 85.1221 8.24669C86.2206 9.66101 86.7701 11.4992 86.7701 13.7617V22.5398C86.7701 22.7795 86.683 22.9859 86.5092 23.1598Z" fill="#FF5722"/>
<path d="M96.2505 18.934C96.6308 19.3147 97.2891 19.5049 98.2248 19.5049H100.215C100.455 19.5049 100.661 19.5921 100.835 19.766C101.009 19.9404 101.097 20.147 101.097 20.386V22.5398C101.097 22.7795 101.009 22.9859 100.835 23.1598C100.661 23.3343 100.455 23.4209 100.215 23.4209H97.8006C95.7333 23.4209 94.1563 22.9151 93.0686 21.9034C91.9807 20.8919 91.4371 19.3857 91.4371 17.3839V10.3678H89.2833C89.0437 10.3678 88.837 10.281 88.6632 10.1067C88.4888 9.93293 88.4023 9.72636 88.4023 9.48668V7.33284C88.4023 7.09377 88.4888 6.88724 88.6632 6.71279C88.837 6.53911 89.0437 6.45185 89.2833 6.45185H91.4371V1.13274C91.4371 0.893566 91.5236 0.687029 91.6982 0.512693C91.8721 0.338791 92.0785 0.251501 92.3181 0.251501H94.7982C95.0375 0.251501 95.2439 0.338791 95.4183 0.512693C95.5921 0.687029 95.6795 0.893566 95.6795 1.13274V6.45185H99.8889C100.128 6.45185 100.335 6.53911 100.509 6.71279C100.683 6.88724 100.77 7.09377 100.77 7.33284V9.48668C100.77 9.72636 100.683 9.93293 100.509 10.1067C100.335 10.281 100.128 10.3678 99.8889 10.3678H95.6795V17.2859C95.6795 18.0039 95.8694 18.5535 96.2505 18.934Z" fill="#FF5722"/>
<path d="M114.084 13.0435C113.844 11.0422 112.637 10.0414 110.462 10.0414C109.33 10.0414 108.444 10.3461 107.802 10.955C107.16 11.5642 106.796 12.2603 106.709 13.0435H114.084ZM114.672 7.25121C115.89 8.00166 116.83 9.00827 117.494 10.2697C118.157 11.5318 118.489 12.9129 118.489 14.414V15.8826C118.489 16.1221 118.402 16.3288 118.228 16.5027C118.054 16.677 117.848 16.7636 117.608 16.7636H106.709C106.709 17.6994 107.079 18.4442 107.819 18.999C108.558 19.5538 109.439 19.8311 110.462 19.8311C111.658 19.8311 112.583 19.5813 113.236 19.0805C113.475 18.9067 113.671 18.7868 113.823 18.7217C113.975 18.6564 114.182 18.6238 114.443 18.6238H117.054C117.293 18.6238 117.499 18.7054 117.674 18.8685C117.848 19.0316 117.935 19.2223 117.935 19.4395C117.935 19.8965 117.635 20.4732 117.037 21.1692C116.439 21.8657 115.574 22.4693 114.443 22.9803C113.311 23.4912 111.984 23.7471 110.462 23.7471C108.852 23.7471 107.443 23.3774 106.236 22.6376C105.028 21.8983 104.098 20.8647 103.446 19.5375C102.793 18.2108 102.467 16.677 102.467 14.9363C102.467 13.3046 102.793 11.8198 103.446 10.4819C104.098 9.14396 105.033 8.08337 106.252 7.30014C107.47 6.51695 108.873 6.12532 110.462 6.12532C112.05 6.12532 113.453 6.50062 114.672 7.25121Z" fill="#FF5722"/>
<path d="M126.174 11.2326C125.597 11.8093 125.309 12.7501 125.309 14.0553V22.5398C125.309 22.7795 125.222 22.9859 125.048 23.1598C124.874 23.3343 124.667 23.4209 124.428 23.4209H121.948C121.708 23.4209 121.502 23.3343 121.328 23.1598C121.154 22.9859 121.067 22.7795 121.067 22.5398V7.33284C121.067 7.09377 121.154 6.88724 121.328 6.7128C121.502 6.53911 121.708 6.45185 121.948 6.45185H124.428C124.667 6.45185 124.874 6.53911 125.048 6.7128C125.222 6.88724 125.309 7.09377 125.309 7.33284V8.08354C125.896 7.51812 126.517 7.1045 127.169 6.84344C127.822 6.58236 128.649 6.45185 129.649 6.45185H131.118C131.357 6.45185 131.563 6.53911 131.738 6.7128C131.912 6.88724 131.999 7.09377 131.999 7.33284V9.48668C131.999 9.72636 131.912 9.93293 131.738 10.1067C131.563 10.281 131.357 10.3678 131.118 10.3678H128.997C127.691 10.3678 126.75 10.6563 126.174 11.2326Z" fill="#FF5722"/>
<path d="M14.4805 10.3727C13.995 10.5124 13.4597 10.5147 12.9591 10.4936C12.3769 10.469 11.7603 10.3954 11.2227 10.1564C10.7803 9.95985 10.4255 9.6052 10.6112 9.09295C10.7421 8.73167 11.0324 8.40893 11.3679 8.22702C11.745 8.02237 12.1595 8.05562 12.5369 8.24057C12.9606 8.44827 13.3131 8.78611 13.6325 9.12696C13.8 9.30572 13.9598 9.49131 14.1175 9.67869C14.1903 9.7649 14.6837 10.2577 14.4805 10.3727ZM22.5507 10.5489C21.8041 10.3751 20.9218 10.4374 20.1732 10.3177C18.9941 10.129 17.2378 8.7542 16.2857 7.35675C15.6242 6.38572 15.3085 5.39671 14.8027 4.19156C14.4498 3.35037 13.6801 0.689754 12.6039 1.9351C12.1607 2.44798 11.6645 4.13632 11.3021 4.11252C11.0336 4.17493 10.9898 3.65174 10.9049 3.42814C10.7507 3.02213 10.6689 2.5524 10.4622 2.16953C10.2971 1.86353 10.0802 1.49696 9.74808 1.34823C9.15636 1.04397 8.44293 1.961 8.0889 3.04843C7.93753 3.63153 6.91987 4.76184 6.47669 5.03521C4.46024 6.27951 0.413116 7.59042 0.000351242 11.9556C-0.00133309 11.9737 0.00035124 12.0287 0.0688823 11.9792C0.551546 11.6297 6.02623 7.68655 2.51274 15.3084C0.360271 19.978 10.7528 22.9517 11.287 22.9638C11.359 22.9654 11.3538 22.9327 11.3562 22.9111C12.1855 15.4581 20.3783 16.2427 22.2862 14.4578C24.177 12.6891 24.2155 10.9771 22.5507 10.5489Z" fill="#FF5722"/>
</g>
<defs>
<clipPath id="clip0">
<rect width="132" height="24" fill="white"/>
</clipPath>
</defs>
</svg>
