<svg width="137" height="17" viewBox="0 0 137 17" fill="none" xmlns="http://www.w3.org/2000/svg">
<path d="M7.69716 10.4051L7.65307 10.6697C7.34444 12.1246 6.59492 14.4614 4.50066 14.4614C2.6489 14.4614 2.09778 13.1828 3.17798 8.11248C4.23613 3.04218 5.31632 1.89585 7.16808 1.89585C8.9978 1.82972 9.08598 3.50512 8.77735 4.96008L8.71122 5.22461H11.2243L11.2905 4.93803C11.6432 3.30672 12.0841 0 7.60898 0C3.61887 0 1.83324 2.5572 0.642825 8.17862C-0.547593 13.8 0.135795 16.3572 4.10386 16.3572C7.80738 16.3572 9.54892 13.5796 10.1441 10.7358L10.2103 10.4051H7.69716Z" fill="#F34A4A"/>
<path d="M10.6634 16.0486H13.1765L16.5273 0.308627H14.0142L10.6634 16.0486Z" fill="#F34A4A"/>
<path d="M15.6605 16.0486H18.0413L20.5985 4.01215H20.6426L22.6487 16.0486H25.7129L29.0637 0.308627H26.6829L24.1918 12.0365H24.1477L22.0755 0.308627H19.0113L15.6605 16.0486Z" fill="#F34A4A"/>
<path d="M28.782 11.1767L28.6938 11.5515C28.2308 13.7559 28.5615 16.3572 32.4634 16.3572C35.6379 16.3572 37.9526 14.9684 38.6801 11.6176C39.143 9.45721 38.4155 8.24475 36.3654 7.45114L34.8002 6.83388C33.2571 6.19458 32.728 5.5112 33.0146 4.16646C33.3673 2.49106 34.5136 1.89585 35.5938 1.89585C37.159 1.89585 37.6219 2.73355 37.3353 4.16646L37.2472 4.49714H39.7603L39.8484 4.14442C40.2012 2.51311 40.3114 0 36.2772 0C33.3232 0 31.0305 1.58723 30.4353 4.45305C29.9503 6.70161 30.6999 7.89203 32.7941 8.77382L34.3813 9.36903C35.704 9.78788 36.3874 10.5154 36.0347 12.1687C35.7922 13.3371 34.7561 14.4614 33.1689 14.4614C31.4273 14.4614 30.8101 13.4914 31.2069 11.5735L31.2951 11.1767H28.782Z" fill="#F34A4A"/>
<path d="M49.2501 7.64956L49.3603 7.12049C49.6689 5.64349 49.3603 3.87991 46.3402 3.87991C43.8932 3.87991 42.0635 4.91601 41.6005 7.14253C41.2037 9.03839 41.7549 9.94222 43.4082 10.5595L45.1938 11.2429C45.9875 11.5294 46.3181 12.1026 46.1418 12.9844C45.8993 14.0646 45.1277 14.7259 43.8271 14.7259C42.4603 14.7259 42.1296 13.9764 42.4162 12.6096L42.5044 12.2349H40.3881L40.2999 12.6758C39.7929 14.9684 40.4101 16.3573 43.4082 16.3573C45.8111 16.3573 47.8833 15.2771 48.4344 12.7419C48.8312 10.8681 48.214 9.92018 46.5827 9.32497L45.1718 8.79589C44.0034 8.355 43.6728 7.98024 43.8712 7.05435C44.0916 5.95212 44.9514 5.51122 45.8993 5.51122C47.1338 5.51122 47.2661 6.39301 47.0677 7.34094L47.0015 7.64956H49.2501Z" fill="white"/>
<path d="M56.1673 11.7278C55.7705 13.5135 55.0651 14.6157 53.7424 14.5937C52.0229 14.5937 52.1111 12.7419 52.6622 10.1186C53.2133 7.49525 53.9188 5.64349 55.6383 5.64349C57.0491 5.5994 57.0491 7.03231 56.8066 8.13455H59.1875C59.5181 6.65755 59.5843 3.83582 56.013 3.87991C52.574 3.87991 51.075 6.4371 50.2814 10.1186C49.5098 13.8001 49.9287 16.3573 53.3676 16.3573C56.2996 16.3573 57.6443 14.5716 58.4159 11.7278H56.1673Z" fill="white"/>
<path d="M60.0767 10.1186C59.3051 13.8001 59.8783 16.3573 63.1629 16.3573C66.4696 16.3573 68.1451 13.8001 68.9166 10.1186C69.7102 6.4371 69.2693 3.87991 65.8083 3.87991C62.3693 3.87991 60.8703 6.4371 60.0767 10.1186ZM62.4575 10.1186C63.0086 7.49525 63.7141 5.64349 65.4335 5.64349C67.1751 5.64349 67.0869 7.49525 66.5358 10.1186C65.8965 13.1387 65.2792 14.5937 63.5377 14.5937C61.8182 14.5937 61.8182 13.1387 62.4575 10.1186Z" fill="white"/>
<path d="M69.4874 16.0486H71.8682L73.3673 8.95021C73.8522 6.74573 75.2411 6.26074 76.3213 6.26074C76.7181 6.26074 77.1369 6.34892 77.2912 6.39301L77.7983 3.96808C77.666 3.924 77.5117 3.87991 77.2471 3.87991C75.9024 3.87991 74.8443 4.71761 74.0286 6.04029H73.9845L74.3813 4.18853H72.0005L69.4874 16.0486Z" fill="white"/>
<path d="M82.9914 11.7278C82.5945 13.5135 81.8891 14.6157 80.5664 14.5937C78.8469 14.5937 78.9351 12.7419 79.4862 10.1186C80.0374 7.49525 80.7428 5.64349 82.4623 5.64349C83.8731 5.5994 83.8731 7.03231 83.6307 8.13455H86.0115C86.3422 6.65755 86.4083 3.83582 82.837 3.87991C79.3981 3.87991 77.899 6.4371 77.1054 10.1186C76.3338 13.8001 76.7527 16.3573 80.1917 16.3573C83.1236 16.3573 84.4684 14.5716 85.2399 11.7278H82.9914Z" fill="white"/>
<path d="M95.5422 10.4272L95.8068 9.17065C96.5122 5.86394 96.0493 3.87991 92.7426 3.87991C89.017 3.87991 87.6502 7.18662 86.9889 10.2949C85.8425 15.7841 88.1132 16.3573 90.0531 16.3573C92.6323 16.3573 94.5723 14.7039 95.1234 12.0806H92.8748C92.7205 12.786 92.1253 14.7259 90.4279 14.7259C88.6422 14.7259 88.8627 12.6978 89.2154 11.1106L89.3477 10.4272H95.5422ZM89.7004 8.79589L89.7445 8.5534C90.0751 7.01026 90.8688 5.51122 92.3898 5.51122C93.7346 5.51122 93.9771 6.65755 93.6464 8.15659L93.5141 8.79589H89.7004Z" fill="white"/>
<path d="M95.7358 16.0486H98.2489L98.8662 13.1387H96.3531L95.7358 16.0486Z" fill="white"/>
<path d="M107.469 11.7278C107.072 13.5135 106.367 14.6157 105.044 14.5937C103.324 14.5937 103.413 12.7419 103.964 10.1186C104.515 7.49525 105.22 5.64349 106.94 5.64349C108.351 5.5994 108.351 7.03231 108.108 8.13455H110.489C110.82 6.65755 110.886 3.83582 107.314 3.87991C103.876 3.87991 102.376 6.4371 101.583 10.1186C100.811 13.8001 101.23 16.3573 104.669 16.3573C107.601 16.3573 108.946 14.5716 109.717 11.7278H107.469Z" fill="white"/>
<path d="M111.378 10.1186C110.607 13.8001 111.18 16.3573 114.464 16.3573C117.771 16.3573 119.447 13.8001 120.218 10.1186C121.012 6.4371 120.571 3.87991 117.11 3.87991C113.671 3.87991 112.172 6.4371 111.378 10.1186ZM113.759 10.1186C114.31 7.49525 115.016 5.64349 116.735 5.64349C118.477 5.64349 118.388 7.49525 117.837 10.1186C117.198 13.1387 116.581 14.5937 114.839 14.5937C113.12 14.5937 113.12 13.1387 113.759 10.1186Z" fill="white"/>
<path d="M120.899 16.0486H123.28L124.977 8.09046C125.308 6.54732 126.388 5.77576 127.336 5.77576C128.328 5.77576 128.659 6.37097 128.328 7.9141L126.609 16.0486H128.99L130.687 8.09046C131.018 6.54732 132.098 5.77576 133.068 5.77576C134.038 5.77576 134.368 6.37097 134.038 7.9141L132.318 16.0486H134.699L136.617 7.03231C137.102 4.73965 136.066 3.87991 134.39 3.87991C132.958 3.87991 131.944 4.54125 131.018 5.68758C130.863 4.69556 130.334 3.87991 128.637 3.87991C127.513 3.87991 126.256 4.51921 125.44 5.57735H125.374L125.661 4.18853H123.412L120.899 16.0486Z" fill="white"/>
</svg>
