<svg width="140" height="57" viewBox="0 0 140 57" fill="none" xmlns="http://www.w3.org/2000/svg">
<g clip-path="url(#clip0)">
<g opacity="0.75">
<path d="M4.58154 38.07V18.502H10.6025C12.3227 18.502 13.8593 18.8917 15.2123 19.6712C16.5741 20.4417 17.6359 21.5438 18.3974 22.9773C19.159 24.4019 19.5398 26.0236 19.5398 27.8425V28.7429C19.5398 30.5617 19.1635 32.179 18.4109 33.5946C17.6672 35.0102 16.6145 36.1078 15.2526 36.8873C13.8907 37.6668 12.3541 38.061 10.6428 38.07H4.58154ZM8.61342 21.7678V34.8311H10.5622C12.1391 34.8311 13.3442 34.3159 14.1774 33.2855C15.0107 32.2551 15.4362 30.7813 15.4542 28.8639V27.829C15.4542 25.84 15.042 24.3347 14.2177 23.3133C13.3934 22.283 12.1883 21.7678 10.6025 21.7678H8.61342Z" fill="#569164"/>
<path d="M29.727 30.9067H26.5149V38.07H22.4831V18.502H29.7539C32.0655 18.502 33.8485 19.0171 35.1028 20.0475C36.3572 21.0779 36.9844 22.5338 36.9844 24.4154C36.9844 25.7504 36.6932 26.8659 36.1108 27.7618C35.5374 28.6488 34.6638 29.3567 33.4901 29.8853L37.7236 37.8818V38.07H33.396L29.727 30.9067ZM26.5149 27.6409H29.7673C30.7798 27.6409 31.5638 27.3855 32.1193 26.8748C32.6748 26.3552 32.9525 25.6429 32.9525 24.7379C32.9525 23.8151 32.6882 23.0893 32.1596 22.5607C31.6399 22.0321 30.838 21.7678 29.7539 21.7678H26.5149V27.6409Z" fill="#569164"/>
</g>
<path opacity="0.75" fill-rule="evenodd" clip-rule="evenodd" d="M3.92969 17.8506H10.6021C12.4237 17.8506 14.0738 18.2642 15.5349 19.1055C17.0077 19.9393 18.155 21.1334 18.9721 22.6711C19.79 24.2013 20.191 25.9306 20.191 27.8426V28.7431C20.191 30.6535 19.7951 32.3777 18.9865 33.8992C18.1864 35.4217 17.0471 36.6108 15.5759 37.4529C14.1078 38.2932 12.4591 38.7121 10.6459 38.7216L10.6425 38.7216H3.92969V17.8506ZM5.23271 19.1536V37.4186H10.6407C12.2494 37.41 13.6734 37.0405 14.9286 36.322C16.1807 35.6054 17.1466 34.5998 17.8338 33.2918L17.8353 33.2889C18.5314 31.9795 18.8879 30.4697 18.8879 28.7431V27.8426C18.8879 26.1173 18.5275 24.6034 17.8225 23.2846L17.8217 23.2831C17.1161 21.9549 16.1408 20.9454 14.8911 20.2384L14.8867 20.2359C13.6425 19.519 12.2202 19.1536 10.6021 19.1536H5.23271ZM21.8312 17.8506H29.7535C32.1533 17.8506 34.1045 18.3847 35.516 19.5442C36.9459 20.7188 37.6356 22.3737 37.6356 24.4155C37.6356 25.8452 37.3231 27.0918 36.6567 28.117C36.1132 28.9573 35.3447 29.6381 34.3778 30.1703L38.3747 37.7202V38.7216H32.9974L29.3284 31.5583H27.1661V38.7216H21.8312V17.8506ZM23.1342 19.1536V37.4186H25.8631V30.2553H30.125L33.794 37.4186H36.7407L32.589 29.5765L33.2222 29.2914C34.3067 28.8029 35.0716 28.1689 35.5633 27.4083L35.5642 27.4069C36.0626 26.6402 36.3325 25.6559 36.3325 24.4155C36.3325 22.6943 35.7678 21.4373 34.689 20.5511C33.5918 19.6499 31.977 19.1536 29.7535 19.1536H23.1342ZM7.96156 21.1164H10.6021C12.341 21.1164 13.7521 21.6896 14.7253 22.9054C15.6799 24.0891 16.1053 25.7652 16.1053 27.8292V28.8701C16.0866 30.8707 15.6428 32.5093 14.6837 33.6953C13.7027 34.9083 12.2939 35.4827 10.5618 35.4827H7.96156V21.1164ZM9.26459 22.4194V34.1797H10.5618C11.9836 34.1797 12.9849 33.7237 13.6705 32.876C14.3775 32.0017 14.7848 30.6935 14.8023 28.8609V27.8292C14.8023 25.9157 14.4037 24.5817 13.7104 23.7226L13.7086 23.7205C13.0333 22.8763 12.0345 22.4194 10.6021 22.4194H9.26459ZM25.8631 21.1164H29.7535C30.9304 21.1164 31.9328 21.4026 32.6218 22.1021C33.2987 22.78 33.6037 23.6864 33.6037 24.7381C33.6037 25.7862 33.276 26.6846 32.564 27.3507L32.5599 27.3546C31.848 28.0091 30.8859 28.2925 29.767 28.2925H25.8631V21.1164ZM27.1661 22.4194V26.9895H29.767C30.6713 26.9895 31.2767 26.7631 31.6758 26.3973C32.0736 26.0242 32.3007 25.4985 32.3007 24.7381C32.3007 23.945 32.0776 23.4006 31.6985 23.0215L31.6946 23.0176C31.3444 22.6614 30.7438 22.4194 29.7535 22.4194H27.1661Z" fill="#484848"/>
<path d="M54.0265 39.4055C60.202 39.4055 65.2082 34.3992 65.2082 28.2237C65.2082 22.0482 60.202 17.042 54.0265 17.042C47.851 17.042 42.8447 22.0482 42.8447 28.2237C42.8447 34.3992 47.851 39.4055 54.0265 39.4055Z" fill="#357B00"/>
<path d="M54.0261 37.542C59.1724 37.542 63.3442 33.3701 63.3442 28.2239C63.3442 23.0776 59.1724 18.9058 54.0261 18.9058C48.8799 18.9058 44.708 23.0776 44.708 28.2239C44.708 33.3701 48.8799 37.542 54.0261 37.542Z" fill="url(#paint0_linear)"/>
<path d="M54.0266 34.7465C57.629 34.7465 60.5493 31.8262 60.5493 28.2239C60.5493 24.6215 57.629 21.7012 54.0266 21.7012C50.4242 21.7012 47.5039 24.6215 47.5039 28.2239C47.5039 31.8262 50.4242 34.7465 54.0266 34.7465Z" stroke="#84D000" stroke-width="0.740272"/>
<path d="M54.0264 31.0196C55.5703 31.0196 56.8218 29.768 56.8218 28.2241C56.8218 26.6803 55.5703 25.4287 54.0264 25.4287C52.4825 25.4287 51.231 26.6803 51.231 28.2241C51.231 29.768 52.4825 31.0196 54.0264 31.0196Z" stroke="#84D000" stroke-width="0.471082"/>
<path d="M38.1855 28.2241H68.0035" stroke="#679F00" stroke-opacity="0.8" stroke-width="0.471082"/>
<path d="M54.0264 13.3149V43.1329" stroke="#679F00" stroke-opacity="0.8" stroke-width="0.471082"/>
<g opacity="0.75">
<path d="M86.8612 38.07H82.8293L74.9806 25.1949V38.07H70.9487V18.502H74.9806L82.8428 31.404V18.502H86.8612V38.07Z" fill="#5AAA6C"/>
<path d="M102.155 29.5896H94.4142V34.8311H103.499V38.07H90.3824V18.502H103.473V21.7678H94.4142V26.4313H102.155V29.5896Z" fill="#5AAA6C"/>
<path d="M105.865 38.07V18.502H112.719C115.093 18.502 116.894 18.9589 118.122 19.8728C119.349 20.7777 119.963 22.1082 119.963 23.8643C119.963 24.823 119.717 25.6697 119.224 26.4044C118.731 27.1302 118.046 27.6633 117.167 28.0037C118.171 28.2546 118.959 28.7608 119.533 29.5224C120.115 30.284 120.406 31.2158 120.406 32.3178C120.406 34.1994 119.806 35.624 118.605 36.5916C117.405 37.5593 115.694 38.0521 113.472 38.07H105.865ZM109.897 29.5493V34.8311H113.351C114.3 34.8311 115.04 34.6071 115.568 34.1591C116.106 33.7021 116.375 33.0749 116.375 32.2775C116.375 30.4856 115.447 29.5762 113.593 29.5493H109.897ZM109.897 26.7001H112.88C114.914 26.6643 115.931 25.8534 115.931 24.2675C115.931 23.3805 115.671 22.7444 115.152 22.3591C114.641 21.9649 113.83 21.7678 112.719 21.7678H109.897V26.7001Z" fill="#5AAA6C"/>
<path d="M127.476 34.8311H136.037V38.07H123.444V18.502H127.476V34.8311Z" fill="#5AAA6C"/>
</g>
<path opacity="0.75" fill-rule="evenodd" clip-rule="evenodd" d="M70.2969 17.8506H75.3462L82.1909 29.0829V17.8506H87.5124V38.7216H82.4631L75.6318 27.5154V38.7216H70.2969V17.8506ZM71.5999 19.1536V37.4186H74.3288V22.8746L83.1948 37.4186H86.2093V19.1536H83.4939V33.7253L74.6143 19.1536H71.5999ZM89.7305 17.8506H104.124V22.4194H95.0654V25.7799H102.807V30.2413H95.0654V34.1797H104.151V38.7216H89.7305V17.8506ZM91.0335 19.1536V37.4186H102.848V35.4827H93.7624V28.9382H101.504V27.083H93.7624V21.1164H102.821V19.1536H91.0335ZM105.213 17.8506H112.719C115.16 17.8506 117.123 18.3176 118.509 19.3494C119.929 20.397 120.614 21.9378 120.614 23.8645C120.614 24.9411 120.335 25.9164 119.764 26.7675L119.762 26.7706C119.461 27.2142 119.098 27.5941 118.678 27.9105C119.211 28.219 119.672 28.6247 120.052 29.1287C120.732 30.0201 121.058 31.0961 121.058 32.318C121.058 34.3487 120.402 35.9805 119.014 37.099C117.658 38.1919 115.782 38.703 113.476 38.7216L113.471 38.7216H105.213V17.8506ZM106.516 19.1536V37.4186H113.468C115.605 37.401 117.151 36.9267 118.196 36.0845C119.21 35.2678 119.755 34.0503 119.755 32.318C119.755 31.3367 119.498 30.5497 119.015 29.9183L119.012 29.9144C118.536 29.2825 117.881 28.8539 117.009 28.6359L115.018 28.1383L116.932 27.3964C117.695 27.1003 118.27 26.6475 118.683 26.0402C119.097 25.4222 119.311 24.7046 119.311 23.8645C119.311 22.2795 118.769 21.1597 117.735 20.3973L117.732 20.3955C116.664 19.6002 115.025 19.1536 112.719 19.1536H106.516ZM122.792 17.8506H128.127V34.1797H136.688V38.7216H122.792V17.8506ZM124.095 19.1536V37.4186H135.385V35.4827H126.824V19.1536H124.095ZM109.245 21.1164H112.719C113.877 21.1164 114.863 21.3164 115.544 21.8396C116.283 22.3899 116.582 23.259 116.582 24.2677C116.582 25.2108 116.272 26.0184 115.574 26.5746C114.906 27.1076 113.976 27.3325 112.891 27.3517L112.88 27.3519L109.245 27.3518V21.1164ZM110.548 22.4194V26.0487H112.874C113.82 26.0313 114.414 25.8332 114.762 25.5558C115.081 25.3012 115.279 24.9104 115.279 24.2677C115.279 23.5046 115.06 23.1031 114.763 22.8826L114.753 22.8751C114.413 22.6127 113.779 22.4194 112.719 22.4194H110.548ZM109.245 28.8979H113.602C114.625 28.9128 115.509 29.1726 116.135 29.7865C116.765 30.4043 117.026 31.2747 117.026 32.2777C117.026 33.2384 116.693 34.0579 115.99 34.6556C115.306 35.2349 114.397 35.4827 113.35 35.4827H109.245V28.8979ZM110.548 30.201V34.1797H113.35C114.202 34.1797 114.772 33.9791 115.146 33.6628M110.548 30.201H113.587C114.416 30.2137 114.922 30.4219 115.223 30.7168C115.52 31.0084 115.723 31.4887 115.723 32.2777C115.723 32.9114 115.517 33.3467 115.146 33.6628" fill="#484848"/>
</g>
<defs>
<linearGradient id="paint0_linear" x1="44.708" y1="18.9058" x2="44.708" y2="37.542" gradientUnits="userSpaceOnUse">
<stop stop-color="#2BBD49"/>
<stop offset="0.6" stop-color="#1B602D"/>
</linearGradient>
<clipPath id="clip0">
<rect width="134.181" height="29.818" fill="white" transform="translate(2.6333 13.3149)"/>
</clipPath>
</defs>
</svg>
