<svg width="146" height="57" viewBox="0 0 146 57" fill="none" xmlns="http://www.w3.org/2000/svg">
<path d="M5.8584 22.212H8.74668V32.3388H15.0046V34.6922H5.8584V22.212Z" fill="white"/>
<path d="M26.2817 32.3745V34.6922H16.6184V22.212H26.0499V24.5298H19.4889V27.2398H25.2833V29.4862H19.4889V32.3745H26.2817Z" fill="white"/>
<path d="M36.799 32.0179H31.0046L29.8992 34.6922H26.9396L32.5022 22.212H35.3548L40.9353 34.6922H37.9044L36.799 32.0179ZM35.8897 29.8249L33.9107 25.0468L31.9317 29.8249H35.8897Z" fill="white"/>
<path d="M46.7765 29.7893L45.1006 31.5365V34.6922H42.2301V22.212H45.1006V28.0421L50.6275 22.212H53.8367L48.6663 27.7746L54.1398 34.6922H50.7702L46.7765 29.7893Z" fill="white"/>
<path d="M54.2308 28.5591H59.2764V30.7877H54.2308V28.5591Z" fill="white"/>
<path d="M61.6609 22.212H64.5491V32.3388H70.8071V34.6922H61.6609V22.212Z" fill="white"/>
<path d="M78.256 34.9062C76.9604 34.9062 75.7896 34.6269 74.7437 34.0682C73.7096 33.5096 72.8954 32.7429 72.3011 31.7683C71.7187 30.7818 71.4275 29.6764 71.4275 28.4521C71.4275 27.2279 71.7187 26.1284 72.3011 25.1538C72.8954 24.1672 73.7096 23.3946 74.7437 22.836C75.7896 22.2774 76.9604 21.998 78.256 21.998C79.5515 21.998 80.7164 22.2774 81.7504 22.836C82.7845 23.3946 83.5987 24.1672 84.193 25.1538C84.7873 26.1284 85.0844 27.2279 85.0844 28.4521C85.0844 29.6764 84.7873 30.7818 84.193 31.7683C83.5987 32.7429 82.7845 33.5096 81.7504 34.0682C80.7164 34.6269 79.5515 34.9062 78.256 34.9062ZM78.256 32.4458C78.9929 32.4458 79.6585 32.2794 80.2528 31.9466C80.8471 31.6019 81.3107 31.1265 81.6435 30.5203C81.9882 29.9141 82.1605 29.2247 82.1605 28.4521C82.1605 27.6795 81.9882 26.9901 81.6435 26.384C81.3107 25.7778 80.8471 25.3083 80.2528 24.9755C79.6585 24.6308 78.9929 24.4584 78.256 24.4584C77.519 24.4584 76.8534 24.6308 76.2591 24.9755C75.6648 25.3083 75.1953 25.7778 74.8506 26.384C74.5178 26.9901 74.3514 27.6795 74.3514 28.4521C74.3514 29.2247 74.5178 29.9141 74.8506 30.5203C75.1953 31.1265 75.6648 31.6019 76.2591 31.9466C76.8534 32.2794 77.519 32.4458 78.256 32.4458Z" fill="white"/>
<path d="M93.2991 34.9062C92.0035 34.9062 90.8328 34.6269 89.7868 34.0682C88.7527 33.5096 87.9386 32.7429 87.3443 31.7683C86.7618 30.7818 86.4706 29.6764 86.4706 28.4521C86.4706 27.2279 86.7618 26.1284 87.3443 25.1538C87.9386 24.1672 88.7527 23.3946 89.7868 22.836C90.8328 22.2774 92.0035 21.998 93.2991 21.998C94.5947 21.998 95.7595 22.2774 96.7936 22.836C97.8277 23.3946 98.6419 24.1672 99.2362 25.1538C99.8304 26.1284 100.128 27.2279 100.128 28.4521C100.128 29.6764 99.8304 30.7818 99.2362 31.7683C98.6419 32.7429 97.8277 33.5096 96.7936 34.0682C95.7595 34.6269 94.5947 34.9062 93.2991 34.9062ZM93.2991 32.4458C94.036 32.4458 94.7017 32.2794 95.296 31.9466C95.8903 31.6019 96.3538 31.1265 96.6866 30.5203C97.0313 29.9141 97.2037 29.2247 97.2037 28.4521C97.2037 27.6795 97.0313 26.9901 96.6866 26.384C96.3538 25.7778 95.8903 25.3083 95.296 24.9755C94.7017 24.6308 94.036 24.4584 93.2991 24.4584C92.5622 24.4584 91.8966 24.6308 91.3023 24.9755C90.708 25.3083 90.2385 25.7778 89.8938 26.384C89.561 26.9901 89.3946 27.6795 89.3946 28.4521C89.3946 29.2247 89.561 29.9141 89.8938 30.5203C90.2385 31.1265 90.708 31.6019 91.3023 31.9466C91.8966 32.2794 92.5622 32.4458 93.2991 32.4458Z" fill="white"/>
<path d="M106.845 29.7893L105.169 31.5365V34.6922H102.298V22.212H105.169V28.0421L110.696 22.212H113.905L108.735 27.7746L114.208 34.6922H110.838L106.845 29.7893Z" fill="white"/>
<path d="M120.867 34.9062C119.084 34.9062 117.693 34.4129 116.695 33.4264C115.708 32.4399 115.215 31.0314 115.215 29.2009V22.212H118.103V29.094C118.103 31.3285 119.03 32.4458 120.884 32.4458C121.788 32.4458 122.477 32.1784 122.953 31.6435C123.428 31.0967 123.666 30.2469 123.666 29.094V22.212H126.518V29.2009C126.518 31.0314 126.019 32.4399 125.021 33.4264C124.034 34.4129 122.649 34.9062 120.867 34.9062Z" fill="white"/>
<path d="M134.775 22.212C135.88 22.212 136.837 22.3962 137.645 22.7647C138.465 23.1332 139.095 23.6561 139.535 24.3336C139.975 25.0111 140.195 25.8134 140.195 26.7405C140.195 27.6558 139.975 28.4581 139.535 29.1474C139.095 29.8249 138.465 30.3479 137.645 30.7164C136.837 31.073 135.88 31.2513 134.775 31.2513H132.261V34.6922H129.372V22.212H134.775ZM134.614 28.8978C135.482 28.8978 136.142 28.7136 136.593 28.3451C137.045 27.9648 137.271 27.4299 137.271 26.7405C137.271 26.0393 137.045 25.5044 136.593 25.1359C136.142 24.7556 135.482 24.5654 134.614 24.5654H132.261V28.8978H134.614Z" fill="white"/>
</svg>
