<svg width="148" height="57" viewBox="0 0 148 57" fill="none" xmlns="http://www.w3.org/2000/svg">
<g clip-path="url(#clip0)">
<path d="M21.0399 23.2739H21.8073L23.9945 21.1334L24.1019 20.2247C22.849 19.1424 21.3348 18.3906 19.7024 18.0402C18.07 17.6899 16.3733 17.7526 14.7726 18.2224C13.1718 18.6922 11.7199 19.5537 10.5539 20.7253C9.38797 21.897 8.54646 23.3402 8.10889 24.9187C8.35254 24.8209 8.62245 24.8051 8.87631 24.8736L13.2506 24.1676C13.2506 24.1676 13.4731 23.8071 13.5883 23.8297C14.5255 22.8223 15.8208 22.2036 17.209 22.1003C18.5971 21.9969 19.9731 22.4168 21.0553 23.2739H21.0399Z" fill="#EA4335"/>
<path d="M27.1105 24.9189C26.6077 23.1071 25.5756 21.4784 24.1405 20.2324L21.0709 23.2366C21.7106 23.7482 22.2233 24.3952 22.5703 25.129C22.9173 25.8628 23.0894 26.6641 23.0738 27.4725V28.0057C23.4326 28.0057 23.7879 28.0748 24.1193 28.2092C24.4508 28.3436 24.752 28.5405 25.0057 28.7888C25.2593 29.0371 25.4606 29.3318 25.5979 29.6562C25.7352 29.9806 25.8058 30.3283 25.8058 30.6794C25.8058 31.0305 25.7352 31.3782 25.5979 31.7026C25.4606 32.027 25.2593 32.3217 25.0057 32.57C24.752 32.8183 24.4508 33.0152 24.1193 33.1496C23.7879 33.2839 23.4326 33.3531 23.0738 33.3531H17.6098L17.0649 33.8938V37.1008L17.6098 37.634H23.0738C24.5996 37.6457 26.0888 37.1763 27.3209 36.2955C28.553 35.4147 29.4627 34.1691 29.9155 32.743C30.3682 31.317 30.3399 29.7862 29.8347 28.3771C29.3295 26.9681 28.3744 25.7555 27.1105 24.9189Z" fill="#4285F4"/>
<path d="M12.138 37.6038H17.602V33.3229H12.138C11.7487 33.3228 11.364 33.2408 11.0099 33.0825L10.2425 33.3153L8.04 35.4558L7.84814 36.2068C9.08325 37.1196 10.5903 37.6104 12.138 37.6038Z" fill="#34A853"/>
<path d="M12.1381 23.7168C10.6576 23.7255 9.21682 24.1865 8.01703 25.0354C6.81723 25.8843 5.91831 27.0787 5.44582 28.4519C4.97333 29.825 4.95087 31.3083 5.38157 32.6945C5.81227 34.0808 6.67463 35.3008 7.8482 36.1841L11.0176 33.0823C10.6149 32.9042 10.2623 32.6332 9.99007 32.2924C9.71787 31.9516 9.53422 31.5513 9.45487 31.1258C9.37551 30.7003 9.40283 30.2623 9.53446 29.8494C9.6661 29.4365 9.89814 29.061 10.2107 28.7552C10.5232 28.4493 10.9069 28.2222 11.3288 28.0934C11.7507 27.9646 12.1982 27.9378 12.633 28.0155C13.0678 28.0932 13.4768 28.2729 13.825 28.5393C14.1732 28.8057 14.4502 29.1507 14.6322 29.5449L17.8016 26.4431C17.1364 25.592 16.279 24.903 15.2965 24.4301C14.314 23.9571 13.233 23.713 12.1381 23.7168Z" fill="#FBBC05"/>
<path d="M44.784 34.6147C43.8433 34.6265 42.9098 34.4523 42.0395 34.1025C41.1692 33.7528 40.3799 33.2348 39.7191 32.5794C39.0374 31.9519 38.4964 31.1926 38.1305 30.3496C37.7645 29.5067 37.5816 28.5985 37.5933 27.6826C37.5821 26.7669 37.7652 25.8588 38.1311 25.0159C38.497 24.173 39.0377 23.4137 39.7191 22.7859C40.3767 22.1237 41.1645 21.5988 42.0349 21.2425C42.9054 20.8863 43.8405 20.7061 44.784 20.713C45.683 20.7013 46.5754 20.8645 47.4094 21.1933C48.2433 21.5221 49.0021 22.0098 49.6418 22.6281L48.2758 23.9875C47.3403 23.1028 46.0848 22.6167 44.784 22.6357C44.1092 22.6275 43.4401 22.7569 42.8192 23.0155C42.1982 23.2741 41.639 23.6563 41.1772 24.1377C40.6971 24.6038 40.3184 25.1601 40.0639 25.7732C39.8093 26.3863 39.6842 27.0435 39.696 27.7052C39.6904 28.3593 39.8185 29.0079 40.0729 29.6128C40.3273 30.2178 40.7027 30.7668 41.1772 31.2276C42.1275 32.1544 43.4099 32.6817 44.7515 32.6971C46.0931 32.7125 47.3879 32.2149 48.3602 31.3102C48.9622 30.665 49.3315 29.8446 49.4116 28.9744H44.807V27.0518H51.3224C51.3865 27.439 51.4122 27.8313 51.3992 28.2234C51.4397 29.0348 51.3117 29.8459 51.0228 30.6075C50.7339 31.3691 50.2902 32.0655 49.7185 32.6545C49.0829 33.3022 48.3149 33.8115 47.4647 34.1492C46.6145 34.487 45.7011 34.6456 44.784 34.6147ZM59.9329 33.338C59.0585 34.1582 57.8941 34.6162 56.6829 34.6162C55.4716 34.6162 54.3072 34.1582 53.4328 33.338C52.9976 32.925 52.6549 32.428 52.4263 31.8785C52.1978 31.3291 52.0884 30.7391 52.1052 30.1461C52.0889 29.5531 52.1985 28.9632 52.427 28.4138C52.6555 27.8644 52.998 27.3674 53.4328 26.9541C54.3081 26.1356 55.4722 25.6788 56.6829 25.6788C57.8935 25.6788 59.0576 26.1356 59.9329 26.9541C60.3677 27.3674 60.7102 27.8644 60.9387 28.4138C61.1673 28.9632 61.2768 29.5531 61.2605 30.1461C61.2763 30.7396 61.1657 31.3299 60.9359 31.8794C60.706 32.429 60.3618 32.9257 59.9252 33.338H59.9329ZM54.8679 32.0837C55.1005 32.3268 55.3816 32.5206 55.6938 32.653C56.0059 32.7855 56.3426 32.8539 56.6829 32.8539C57.0231 32.8539 57.3598 32.7855 57.672 32.653C57.9841 32.5206 58.2652 32.3268 58.4978 32.0837C58.7514 31.8272 58.9499 31.5236 59.0818 31.1909C59.2136 30.8581 59.2759 30.5028 59.2652 30.1461C59.2765 29.7881 59.2145 29.4316 59.0826 29.0975C58.9508 28.7634 58.752 28.4585 58.4978 28.2009C58.2621 27.9603 57.9792 27.7688 57.666 27.6381C57.3527 27.5073 57.0157 27.4399 56.6752 27.4399C56.3346 27.4399 55.9976 27.5073 55.6844 27.6381C55.3712 27.7688 55.0882 27.9603 54.8526 28.2009C54.5984 28.4585 54.3995 28.7634 54.2677 29.0975C54.1359 29.4316 54.0738 29.7881 54.0851 30.1461C54.0754 30.5033 54.139 30.8589 54.2722 31.1917C54.4053 31.5245 54.6053 31.8279 54.8602 32.0837H54.8679ZM69.9247 33.338C69.0503 34.1582 67.8859 34.6162 66.6747 34.6162C65.4634 34.6162 64.299 34.1582 63.4246 33.338C62.9894 32.925 62.6467 32.428 62.4181 31.8785C62.1896 31.3291 62.0802 30.7391 62.097 30.1461C62.0807 29.5531 62.1903 28.9632 62.4188 28.4138C62.6473 27.8644 62.9898 27.3674 63.4246 26.9541C64.299 26.1339 65.4634 25.6759 66.6747 25.6759C67.8859 25.6759 69.0503 26.1339 69.9247 26.9541C70.3595 27.3674 70.702 27.8644 70.9305 28.4138C71.1591 28.9632 71.2686 29.5531 71.2523 30.1461C71.2691 30.7391 71.1597 31.3291 70.9312 31.8785C70.7026 32.428 70.3599 32.925 69.9247 33.338ZM64.8597 32.0837C65.0923 32.3268 65.3734 32.5206 65.6856 32.653C65.9977 32.7855 66.3344 32.8539 66.6747 32.8539C67.0149 32.8539 67.3516 32.7855 67.6638 32.653C67.9759 32.5206 68.257 32.3268 68.4896 32.0837C68.7432 31.8272 68.9417 31.5236 69.0735 31.1909C69.2053 30.8581 69.2677 30.5028 69.257 30.1461C69.2683 29.7881 69.2063 29.4316 69.0744 29.0975C68.9426 28.7634 68.7438 28.4585 68.4896 28.2009C68.2539 27.9603 67.971 27.7688 67.6578 27.6381C67.3445 27.5073 67.0075 27.4399 66.667 27.4399C66.3264 27.4399 65.9894 27.5073 65.6762 27.6381C65.363 27.7688 65.08 27.9603 64.8444 28.2009C64.5902 28.4585 64.3913 28.7634 64.2595 29.0975C64.1277 29.4316 64.0656 29.7881 64.0769 30.1461C64.0672 30.5033 64.1308 30.8589 64.264 31.1917C64.3971 31.5245 64.5971 31.8279 64.852 32.0837H64.8597ZM76.4938 38.6253C75.574 38.6539 74.6719 38.3729 73.9383 37.8292C73.2869 37.3499 72.7738 36.7133 72.4495 35.9816L74.1992 35.2681C74.3896 35.7054 74.6875 36.0898 75.0664 36.3872C75.4719 36.7071 75.9808 36.8749 76.5015 36.8604C76.8316 36.88 77.1622 36.8298 77.4708 36.7132C77.7794 36.5965 78.0586 36.4162 78.2895 36.1844C78.7519 35.6386 78.9802 34.9387 78.9265 34.2317V33.5858H78.8574C78.565 33.9257 78.1957 34.1943 77.7787 34.3703C77.3618 34.5463 76.9087 34.6249 76.4554 34.5997C75.8792 34.6014 75.309 34.4862 74.7806 34.2612C74.2522 34.0363 73.7773 33.7066 73.3857 33.2929C72.9609 32.8825 72.6255 32.392 72.4 31.8511C72.1744 31.3102 72.0633 30.7302 72.0734 30.1461C72.0629 29.5585 72.1736 28.9749 72.3991 28.4303C72.6246 27.8857 72.9602 27.3913 73.3857 26.9767C73.7763 26.5613 74.2509 26.2299 74.7794 26.0036C75.3078 25.7774 75.8786 25.6611 76.4554 25.6623C76.9436 25.6615 77.4258 25.7667 77.8675 25.9703C78.2495 26.1335 78.5901 26.3771 78.8651 26.6838H78.9342V25.9703H80.8374V33.9689C80.8875 34.6016 80.8051 35.2377 80.5953 35.8382C80.3855 36.4387 80.0527 36.9909 79.6172 37.4612C79.2024 37.8495 78.7123 38.1526 78.1759 38.3526C77.6394 38.5525 77.0675 38.6452 76.4938 38.6253ZM76.6319 32.8573C76.9596 32.8644 77.2849 32.8007 77.5846 32.6709C77.8844 32.5411 78.1512 32.3483 78.3663 32.1063C78.8398 31.5752 79.0894 30.888 79.0646 30.1836C79.0931 29.4674 78.8436 28.7671 78.3663 28.2234C78.1516 27.9809 77.8848 27.7878 77.5849 27.658C77.2851 27.5282 76.9597 27.4648 76.6319 27.4724C76.2953 27.4656 75.961 27.5291 75.6514 27.6586C75.3417 27.7881 75.0638 27.9806 74.8362 28.2234C74.3285 28.7475 74.0527 29.4466 74.0687 30.1686C74.0609 30.5227 74.1247 30.8749 74.2564 31.2049C74.3881 31.5348 74.5851 31.836 74.8362 32.0912C75.0628 32.3364 75.3401 32.5315 75.6497 32.6636C75.9594 32.7957 76.2942 32.8617 76.6319 32.8573ZM84.2217 21.2162V34.3444H82.2187V21.2162H84.2217ZM89.7164 34.6147C89.1166 34.6298 88.52 34.5236 87.9641 34.3026C87.4081 34.0816 86.9048 33.7506 86.4856 33.3305C86.0602 32.9134 85.7259 32.416 85.503 31.8686C85.28 31.3212 85.1731 30.7352 85.1886 30.1461C85.166 29.5555 85.265 28.9665 85.4799 28.4143C85.6948 27.862 86.0212 27.3578 86.4395 26.9316C86.8338 26.5249 87.3104 26.2032 87.839 25.9873C88.3676 25.7713 88.9365 25.6657 89.5092 25.6774C90.0359 25.6719 90.5581 25.7716 91.0441 25.9703C91.4818 26.1432 91.8807 26.3983 92.2182 26.7213C92.508 26.9951 92.7654 27.3 92.9856 27.6301C93.1637 27.9088 93.3153 28.2029 93.4384 28.5088L93.6456 29.0195L87.5063 31.4904C87.6919 31.9079 88.0025 32.2606 88.397 32.5019C88.7916 32.7432 89.2516 32.8619 89.7164 32.8423C90.1687 32.8435 90.6135 32.73 91.0076 32.5128C91.4017 32.2956 91.7315 31.9822 91.965 31.6031L93.4998 32.617C93.1081 33.1654 92.6069 33.6304 92.0264 33.9839C91.336 34.4107 90.5329 34.6301 89.7164 34.6147ZM87.1532 30.0109L91.2359 28.3511C91.1101 28.0584 90.8852 27.8171 90.5989 27.6676C90.2784 27.4905 89.9156 27.3998 89.5476 27.4048C88.923 27.4206 88.3301 27.677 87.8976 28.1182C87.6388 28.3606 87.4379 28.6559 87.3092 28.9831C87.1805 29.3103 87.1273 29.6612 87.1532 30.0109Z" fill="white"/>
<path d="M104.136 34.615C103.284 34.6294 102.438 34.4752 101.649 34.1616C100.86 33.848 100.143 33.3816 99.5425 32.7903C98.9418 32.199 98.4695 31.495 98.1538 30.7205C97.8381 29.9461 97.6855 29.1173 97.7053 28.2837C97.6855 27.4502 97.8381 26.6213 98.1538 25.8469C98.4695 25.0725 98.9418 24.3685 99.5425 23.7771C100.143 23.1858 100.86 22.7194 101.649 22.4058C102.438 22.0923 103.284 21.9381 104.136 21.9524C104.998 21.9261 105.856 22.0907 106.644 22.434C107.432 22.7774 108.13 23.2905 108.687 23.9352L107.582 24.9866C107.173 24.4834 106.649 24.0816 106.051 23.8141C105.454 23.5466 104.8 23.4208 104.144 23.447C103.512 23.4331 102.884 23.5443 102.297 23.7741C101.71 24.0038 101.177 24.3473 100.729 24.7839C100.263 25.242 99.8997 25.7894 99.6607 26.3917C99.4216 26.994 99.3124 27.6381 99.3399 28.2837C99.3124 28.9293 99.4216 29.5734 99.6607 30.1757C99.8997 30.778 100.263 31.3254 100.729 31.7836C101.177 32.2201 101.71 32.5636 102.297 32.7934C102.884 33.0231 103.512 33.1343 104.144 33.1204C104.877 33.1285 105.603 32.9746 106.268 32.6704C106.932 32.3661 107.518 31.9192 107.981 31.363L109.086 32.4445C108.508 33.1216 107.781 33.6631 106.96 34.0292C106.076 34.4289 105.111 34.6291 104.136 34.615Z" fill="white"/>
<path d="M112.056 34.3446H110.467V22.2153H112.056V34.3446Z" fill="white"/>
<path d="M114.65 27.0443C115.482 26.2353 116.608 25.7812 117.781 25.7812C118.954 25.7813 120.08 26.2353 120.912 27.0443C121.319 27.4649 121.637 27.9601 121.848 28.5015C122.059 29.0428 122.158 29.6196 122.14 30.1987C122.158 30.7777 122.059 31.3545 121.848 31.8959C121.637 32.4372 121.319 32.9325 120.912 33.3531C120.08 34.1621 118.954 34.6161 117.781 34.6161C116.608 34.6161 115.482 34.1621 114.65 33.3531C114.243 32.9325 113.925 32.4372 113.714 31.8959C113.503 31.3545 113.404 30.7777 113.422 30.1987C113.404 29.6196 113.503 29.0428 113.714 28.5015C113.925 27.9601 114.243 27.4649 114.65 27.0443ZM115.832 32.3767C116.082 32.6356 116.384 32.8418 116.718 32.9827C117.053 33.1236 117.413 33.1963 117.777 33.1963C118.141 33.1963 118.502 33.1236 118.836 32.9827C119.171 32.8418 119.472 32.6356 119.722 32.3767C120 32.0851 120.216 31.7424 120.357 31.3685C120.498 30.9945 120.561 30.5969 120.544 30.1987C120.561 29.8005 120.498 29.4028 120.357 29.0289C120.216 28.655 120 28.3122 119.722 28.0207C119.472 27.7618 119.171 27.5556 118.836 27.4147C118.502 27.2738 118.141 27.2011 117.777 27.2011C117.413 27.2011 117.053 27.2738 116.718 27.4147C116.384 27.5556 116.082 27.7618 115.832 28.0207C115.554 28.3122 115.338 28.655 115.197 29.0289C115.056 29.4028 114.993 29.8005 115.011 30.1987C114.995 30.5962 115.06 30.9927 115.203 31.3653C115.345 31.7379 115.561 32.0791 115.839 32.3692L115.832 32.3767Z" fill="white"/>
<path d="M130.942 34.3442H129.407V33.1951H129.361C129.088 33.6316 128.701 33.9892 128.241 34.2316C127.763 34.5027 127.22 34.6452 126.667 34.6446C126.219 34.6747 125.769 34.6052 125.352 34.4413C124.935 34.2774 124.561 34.0235 124.258 33.6983C123.676 32.9787 123.384 32.0757 123.437 31.1598V26.0527H125.025V30.8744C125.025 32.4216 125.724 33.1951 127.12 33.1951C127.431 33.2046 127.739 33.1414 128.019 33.0107C128.299 32.8801 128.544 32.6858 128.732 32.4441C129.144 31.9334 129.363 31.2995 129.353 30.6491V26.0527H130.942V34.3442Z" fill="white"/>
<path d="M136.337 34.615C135.798 34.6168 135.266 34.5042 134.775 34.2851C134.285 34.066 133.849 33.7455 133.498 33.3457C132.702 32.4858 132.276 31.3586 132.308 30.1989C132.276 29.0392 132.702 27.912 133.498 27.052C133.849 26.6523 134.285 26.3318 134.775 26.1127C135.266 25.8936 135.798 25.781 136.337 25.7828C136.941 25.7734 137.537 25.9129 138.072 26.1883C138.541 26.4195 138.939 26.7696 139.223 27.2022H139.292L139.223 26.0531V22.2153H140.811V34.3446H139.277V33.1955H139.207C138.923 33.6281 138.526 33.9783 138.056 34.2094C137.527 34.4824 136.936 34.6218 136.337 34.615ZM136.598 33.1955C136.957 33.2007 137.313 33.131 137.643 32.9911C137.972 32.8513 138.268 32.6445 138.509 32.3844C139.049 31.7831 139.324 30.9978 139.277 30.1989C139.324 29.3999 139.049 28.6147 138.509 28.0134C138.266 27.7519 137.97 27.543 137.639 27.4C137.309 27.2571 136.952 27.1833 136.591 27.1833C136.229 27.1833 135.872 27.2571 135.542 27.4C135.211 27.543 134.915 27.7519 134.672 28.0134C134.404 28.3091 134.198 28.6538 134.066 29.0275C133.935 29.4013 133.88 29.7968 133.905 30.1914C133.88 30.586 133.935 30.9815 134.066 31.3552C134.198 31.729 134.404 32.0736 134.672 32.3694C134.914 32.6341 135.211 32.8449 135.543 32.9874C135.876 33.1299 136.235 33.2009 136.598 33.1955Z" fill="white"/>
</g>
<defs>
<clipPath id="clip0">
<rect width="138.903" height="21.0291" fill="white" transform="translate(4.27197 17.7085)"/>
</clipPath>
</defs>
</svg>
