<svg width="160" height="63" viewBox="0 0 160 63" fill="none" xmlns="http://www.w3.org/2000/svg">
<g clip-path="url(#clip0)">
<path d="M29.1174 30.0311H23.8425L24.9853 24.7895H29.8635C31.4691 24.7895 32.4135 25.6655 32.4135 26.9436C32.4135 28.6285 31.1952 30.0311 29.1174 30.0311ZM37.8206 26.4266C37.8206 22.8269 35.0816 20.1846 30.2932 20.1846H20.5464L15.7769 42.204H21.2075L22.8509 34.6408H26.029L29.1882 42.204H34.6047L31.2377 34.277C35.2752 33.6356 37.8206 30.3518 37.8206 26.4266Z" fill="white"/>
<path d="M47.1897 33.9611L51.8459 25.8426L53.6073 33.9611H47.1945H47.1897ZM49.6453 20.1846L37.0273 42.204H42.4438L44.5547 38.5516H54.6038L55.3971 42.204H60.8136L56.0582 20.1846H49.6453ZM76.3641 30.0311H71.5474L72.6807 24.7895H76.8741C78.5269 24.7895 79.5422 25.5889 79.5422 26.9436C79.5422 28.6285 78.2908 30.0311 76.3688 30.0311H76.3641ZM77.4266 20.1846H68.2418L63.4722 42.204H68.8934L70.5462 34.6312H76.6002C81.7759 34.6312 84.9115 30.6773 84.9115 26.508C84.9115 22.7934 82.0545 20.1894 77.4219 20.1894" fill="white"/>
<path d="M95.4044 20.1846H89.9738L85.1948 42.204H90.6255L95.4044 20.1846Z" fill="white"/>
<path d="M134.297 20.1846H117.174C117.434 20.4526 117.694 20.7303 117.93 21.0223C119.847 23.3774 120.858 26.3356 120.858 29.5907C120.858 34.6169 118.77 39.15 115.417 42.204H125.901L130.883 29.6529H124.65L125.688 24.7847H138.07L131.568 42.204H134.118C140.054 42.2423 144.068 37.2448 144.068 31.1751C144.068 25.1054 140.243 20.1846 134.293 20.1846" fill="#E95F26"/>
<path d="M104.065 37.6086H101.066L103.852 24.7895H106.686C109.793 24.7895 111.536 27.1494 111.536 30.1029C111.536 34.0759 108.74 37.6086 104.074 37.6086H104.065ZM114.945 23.7747C113.084 21.477 110.01 20.1846 106.384 20.1846H99.4229L94.6392 42.204H103.399C106.799 42.204 109.415 41.4381 111.413 40.2175C115.474 37.7187 116.914 33.3244 116.914 29.5907C116.914 27.2643 116.196 25.2921 114.95 23.7747" fill="white"/>
</g>
<defs>
<clipPath id="clip0">
<rect width="128.447" height="22.0194" fill="white" transform="translate(15.7769 20.1846)"/>
</clipPath>
</defs>
</svg>
