<svg width="146" height="59" viewBox="0 0 146 59" fill="none" xmlns="http://www.w3.org/2000/svg">
<g clip-path="url(#clip0)">
<path d="M26.7587 16.8325L10.082 28.3767V30.7925L26.7587 42.3883V16.8325Z" fill="#465C6B"/>
<path d="M26.7587 19.1626L9.99023 28.4112V30.7411L26.7587 40.0584V19.1626Z" fill="#748087"/>
<path d="M26.7587 21.2861L9.99023 28.7203V30.3653L26.7587 37.7995V21.2861Z" fill="white"/>
<path d="M6.80884 30.3141H0.600122L0.483398 30.1152V28.9932L0.552936 28.8238H6.80884C6.80884 28.8238 7.72525 28.377 8.09032 28.377H10.0771V30.7928H7.91648C7.91648 30.7928 6.89328 30.4663 6.80884 30.3141Z" fill="#A5B3BB"/>
<path d="M4.57124 29.4204H3.1333V29.7641H4.57124V29.4204Z" fill="#262B30"/>
<path d="M6.80882 28.8232H6.04639V30.3135H6.80882V28.8232Z" fill="#262B30"/>
<path d="M1.14152 28.8232V30.3135H0.605089L0.483398 30.1073V28.9926L0.552936 28.8232H1.14152Z" fill="#262B30"/>
<path d="M9.47602 28.377H8.55713V30.7928H9.47602V28.377Z" fill="#262B30"/>
<path d="M33.3799 36.9405V22.2783H37.7533C38.9694 22.2581 40.1691 22.5572 41.2302 23.145C42.2427 23.7175 43.063 24.5711 43.5895 25.6001C44.1622 26.7307 44.4485 27.9819 44.424 29.246V29.9826C44.4509 31.2538 44.1628 32.5123 43.5845 33.6481C43.0484 34.6766 42.2151 35.5244 41.1905 36.0837C40.0984 36.6692 38.8712 36.9644 37.6291 36.9405H33.3799ZM35.9553 24.3333V34.8904H37.6366C38.9876 34.8904 40.0249 34.4731 40.7484 33.6383C41.4719 32.8036 41.8403 31.6063 41.8535 30.0464V29.2264C41.8535 27.6404 41.5042 26.4275 40.8055 25.5879C40.1068 24.7482 39.0894 24.33 37.7533 24.3333H35.9553Z" fill="white"/>
<path d="M53.3543 36.9402C53.2115 36.6162 53.1154 36.2741 53.0687 35.9237C52.3382 36.6525 51.3586 37.0852 50.3222 37.137C49.2857 37.1887 48.267 36.8559 47.4659 36.2036C47.1305 35.917 46.8629 35.5611 46.6818 35.1611C46.5007 34.761 46.4106 34.3266 46.4179 33.8884C46.4179 32.7263 46.8542 31.8351 47.7267 31.2147C48.5992 30.5944 49.8468 30.2842 51.4693 30.2842H52.9867V29.5673C53.0111 29.0723 52.8401 28.5874 52.5099 28.2145C52.1903 27.8757 51.7044 27.7063 51.0521 27.7063C50.5556 27.6858 50.0669 27.833 49.6663 28.1237C49.4969 28.2452 49.3595 28.4053 49.2657 28.5903C49.1719 28.7753 49.1245 28.9798 49.1274 29.1868H46.6439C46.6483 28.577 46.8599 27.9864 47.2449 27.5099C47.673 26.9678 48.2361 26.5449 48.879 26.2823C49.6092 25.98 50.3946 25.8296 51.1862 25.8404C52.4776 25.8404 53.5066 26.1612 54.2732 26.8028C55.0397 27.4444 55.4338 28.3446 55.4553 29.5035V34.4138C55.4236 35.2199 55.5694 36.0233 55.8825 36.7683V36.9402H53.3543ZM50.6349 35.1774C51.1182 35.1787 51.5938 35.0569 52.0157 34.8238C52.4259 34.6094 52.7635 34.2808 52.9867 33.8786V31.8334H51.6605C50.745 31.8334 50.0554 31.9914 49.5918 32.3073C49.3695 32.453 49.189 32.653 49.0676 32.8878C48.9463 33.1226 48.8882 33.3843 48.8989 33.6478C48.89 33.8577 48.9278 34.0671 49.0098 34.261C49.0918 34.4549 49.2158 34.6286 49.3732 34.7698C49.728 35.0559 50.1777 35.2011 50.6349 35.1774Z" fill="white"/>
<path d="M63.8299 28.2789C63.4965 28.2262 63.1593 28.1999 62.8216 28.2003C61.6892 28.2003 60.9251 28.6299 60.5294 29.4893V36.9407H58.0459V26.0447H60.4077L60.4698 27.2722C61.0691 26.3278 61.897 25.8548 62.9533 25.8532C63.251 25.844 63.5478 25.8915 63.8275 25.9931L63.8299 28.2789Z" fill="white"/>
<path d="M68.9704 32.2685L67.8702 33.3856V36.9406H65.3867V21.4731H67.8702V30.3952L68.6426 29.4377L71.6898 26.0446H74.67L70.5772 30.5867L75.1021 36.9406H72.2387L68.9704 32.2685Z" fill="white"/>
<path d="M84.2688 33.1643C84.2845 32.8794 84.2301 32.595 84.1103 32.3355C83.9905 32.0759 83.8088 31.849 83.5809 31.674C83.1239 31.3254 82.2961 30.9726 81.0974 30.6158C80.0982 30.3436 79.139 29.9441 78.2439 29.4275C76.8929 28.5879 76.2174 27.4937 76.2174 26.145C76.2094 25.5782 76.3379 25.0177 76.5922 24.5097C76.8466 24.0017 77.2195 23.5608 77.6801 23.2233C78.6536 22.4606 79.9177 22.0784 81.4724 22.0768C82.424 22.0592 83.3676 22.2521 84.234 22.6415C85.0088 22.9894 85.6689 23.5458 86.1389 24.2471C86.5976 24.9318 86.8389 25.7363 86.8318 26.5575H84.2688C84.2866 26.2258 84.2306 25.8944 84.1049 25.5865C83.9792 25.2785 83.7868 25.0015 83.5412 24.775C83.0445 24.3454 82.3615 24.1318 81.4575 24.1318C80.6148 24.1318 79.9616 24.3085 79.498 24.6621C79.2688 24.8354 79.0856 25.0611 78.964 25.3198C78.8425 25.5785 78.7862 25.8625 78.8002 26.1474C78.802 26.4141 78.8711 26.6762 79.0012 26.9098C79.1313 27.1435 79.3183 27.3413 79.5452 27.4855C80.0419 27.844 80.8697 28.1918 82.0287 28.5289C83.0041 28.7896 83.9396 29.1785 84.8102 29.6853C85.4394 30.0488 85.9676 30.5608 86.3475 31.1756C86.6859 31.7753 86.8573 32.4531 86.8442 33.1397C86.865 33.7025 86.7479 34.2619 86.5027 34.7702C86.2575 35.2786 85.8915 35.7207 85.4361 36.0589C84.4874 36.7807 83.2017 37.1416 81.5792 37.1416C80.5623 37.1529 79.5545 36.9522 78.6214 36.5524C77.7851 36.2098 77.0594 35.6478 76.5228 34.9271C76.0204 34.22 75.7593 33.3727 75.7778 32.5088H78.3556C78.3352 32.8729 78.3999 33.2368 78.5446 33.5723C78.6893 33.9078 78.9102 34.2059 79.1901 34.4434C79.7497 34.9001 80.5477 35.1284 81.5842 35.1284C82.4807 35.1284 83.1562 34.9467 83.6057 34.5883C83.8215 34.419 83.9939 34.2019 84.1091 33.9545C84.2243 33.7071 84.279 33.4364 84.2688 33.1643Z" fill="#A5B3BB"/>
<path d="M93.7208 37.1417C92.1529 37.1417 90.8813 36.6507 89.9062 35.6686C88.931 34.6866 88.4442 33.3861 88.4459 31.7674V31.4728C88.4277 30.4651 88.6453 29.4669 89.0816 28.556C89.4747 27.7362 90.0946 27.0432 90.8698 26.5575C91.6387 26.0809 92.5301 25.8329 93.4377 25.8431C94.9377 25.8431 96.0967 26.3161 96.9146 27.2622C97.7325 28.2082 98.1423 29.5479 98.1439 31.2812V32.2633H90.9418C90.9715 33.0607 91.2957 33.8198 91.8532 34.3968C92.1168 34.6563 92.4311 34.8598 92.777 34.9949C93.1229 35.13 93.4931 35.1938 93.8648 35.1825C94.4031 35.1928 94.9358 35.0745 95.4179 34.8377C95.9 34.6009 96.3171 34.2526 96.6339 33.8223L97.9701 35.0818C97.5277 35.7335 96.9172 36.2565 96.2018 36.5967C95.4291 36.9671 94.5795 37.1537 93.7208 37.1417ZM93.4253 27.8121C93.1154 27.8009 92.807 27.8584 92.5225 27.9803C92.238 28.1022 91.9847 28.2855 91.7812 28.5167C91.3249 29.0794 91.0467 29.7626 90.9815 30.4809H95.7001V30.2992C95.6455 29.4808 95.4253 28.8613 95.0395 28.4406C94.833 28.2257 94.5816 28.0577 94.3029 27.9483C94.0242 27.839 93.7247 27.7908 93.4253 27.8072V27.8121Z" fill="#A5B3BB"/>
<path d="M106.648 36.9407C106.506 36.6163 106.41 36.2744 106.362 35.9243C105.632 36.6529 104.653 37.0855 103.617 37.1372C102.581 37.189 101.563 36.8562 100.762 36.2041C100.426 35.918 100.157 35.5623 99.9759 35.1622C99.7943 34.7621 99.704 34.3274 99.7113 33.8889C99.7113 32.7268 100.148 31.8356 101.02 31.2153C101.893 30.5949 103.141 30.2848 104.765 30.2848H106.283V29.5679C106.306 29.0722 106.133 28.5871 105.801 28.2151C105.48 27.8763 104.996 27.7068 104.343 27.7068C103.847 27.6859 103.359 27.8332 102.96 28.1242C102.79 28.2456 102.652 28.4056 102.558 28.5906C102.464 28.7756 102.416 28.9802 102.418 29.1873H99.9349C99.9392 28.5775 100.151 27.9869 100.536 27.5104C100.965 26.9683 101.529 26.5453 102.172 26.2829C102.903 25.9801 103.688 25.8296 104.48 25.8409C105.768 25.8409 106.797 26.1617 107.567 26.8033C108.337 27.445 108.73 28.3452 108.746 29.504V34.4143C108.712 35.2176 108.855 36.0185 109.166 36.7615V36.9333L106.648 36.9407ZM103.916 35.1779C104.402 35.1805 104.88 35.0587 105.304 34.8243C105.715 34.6101 106.054 34.2815 106.278 33.8791V31.834H104.942C104.024 31.834 103.336 31.9919 102.875 32.3078C102.653 32.4536 102.473 32.6535 102.351 32.8883C102.23 33.1231 102.172 33.3849 102.182 33.6483C102.173 33.8584 102.21 34.0679 102.292 34.2619C102.374 34.4559 102.499 34.6295 102.657 34.7703C103.014 35.0594 103.468 35.2049 103.928 35.1779H103.916Z" fill="#A5B3BB"/>
<path d="M117.12 28.2784C116.787 28.2259 116.45 28.1996 116.112 28.1998C114.976 28.1998 114.212 28.6294 113.82 29.4888V36.9402H111.336V26.0442H113.701L113.76 27.2717C114.36 26.3273 115.187 25.8543 116.244 25.8527C116.542 25.8436 116.84 25.8911 117.12 25.9926V28.2784Z" fill="#A5B3BB"/>
<path d="M123.018 35.1875C123.58 35.2074 124.129 35.0172 124.556 34.6547C124.751 34.4912 124.91 34.2893 125.022 34.0619C125.134 33.8345 125.196 33.5866 125.206 33.3339H127.541C127.517 34.0136 127.298 34.6726 126.91 35.2342C126.498 35.8305 125.937 36.311 125.281 36.6287C124.592 36.9711 123.831 37.147 123.061 37.1418C121.519 37.1418 120.297 36.6508 119.393 35.6687C118.489 34.6867 118.037 33.324 118.039 31.5809V31.3354C118.039 29.679 118.487 28.3515 119.383 27.3531C120.278 26.3547 121.501 25.8563 123.051 25.8579C124.359 25.8579 125.427 26.2352 126.254 26.9897C126.666 27.3713 126.993 27.8323 127.217 28.3442C127.44 28.8561 127.555 29.4079 127.553 29.9654H125.219C125.212 29.3891 124.981 28.8376 124.573 28.426C124.372 28.2263 124.131 28.0696 123.865 27.9658C123.6 27.8619 123.316 27.8129 123.031 27.822C122.674 27.8043 122.318 27.8734 121.995 28.0232C121.672 28.173 121.39 28.399 121.176 28.6813C120.742 29.2559 120.521 30.1274 120.513 31.2961V31.6889C120.513 32.869 120.729 33.7496 121.161 34.3307C121.375 34.6136 121.657 34.8398 121.981 34.9892C122.305 35.1387 122.661 35.2068 123.018 35.1875Z" fill="#A5B3BB"/>
<path d="M131.85 27.2329C132.222 26.7879 132.69 26.4317 133.221 26.191C133.752 25.9504 134.331 25.8315 134.914 25.8433C137.264 25.8433 138.456 27.1691 138.491 29.8207V36.9406H136.007V29.9115C136.007 29.1602 135.842 28.6283 135.511 28.3157C135.108 27.9776 134.587 27.8092 134.06 27.8467C133.602 27.8307 133.149 27.9457 132.755 28.1778C132.361 28.4099 132.044 28.7493 131.84 29.1553V36.9406H129.356V21.4731H131.84L131.85 27.2329Z" fill="#A5B3BB"/>
</g>
<defs>
<clipPath id="clip0">
<rect width="145.495" height="25.7767" fill="white" transform="translate(0.252441 16.6118)"/>
</clipPath>
</defs>
</svg>
