<svg width="47" height="47" viewBox="0 0 47 47" fill="none" xmlns="http://www.w3.org/2000/svg">
<path d="M43.8473 12.2788C41.7459 8.67823 38.8955 5.82768 35.2953 3.72647C31.6945 1.62516 27.7636 0.574768 23.4996 0.574768C19.2362 0.574768 15.304 1.62548 11.704 3.72647C8.10346 5.82757 5.25312 8.67823 3.1517 12.2788C1.0506 15.8792 0 19.8109 0 24.0737C0 29.1944 1.49397 33.799 4.48267 37.8888C7.47104 41.9789 11.3316 44.8091 16.064 46.3797C16.6148 46.4819 17.0226 46.41 17.2877 46.1658C17.553 45.9212 17.6855 45.6149 17.6855 45.2482C17.6855 45.187 17.6802 44.6364 17.67 43.5959C17.6595 42.5554 17.6546 41.6476 17.6546 40.8731L16.9508 40.9949C16.5021 41.0771 15.936 41.1119 15.2526 41.102C14.5694 41.0925 13.8603 41.0209 13.1261 40.8878C12.3915 40.7559 11.7083 40.4499 11.0759 39.9705C10.4438 39.4911 9.99504 38.8636 9.72979 38.089L9.42381 37.3849C9.21987 36.9161 8.89878 36.3954 8.46013 35.8246C8.02147 35.2533 7.57789 34.8659 7.12916 34.662L6.91493 34.5086C6.77217 34.4067 6.63971 34.2838 6.51721 34.1411C6.39482 33.9985 6.30319 33.8557 6.242 33.7128C6.18069 33.5697 6.23149 33.4523 6.39493 33.3603C6.55837 33.2682 6.85373 33.2235 7.28231 33.2235L7.89405 33.3149C8.30205 33.3967 8.80672 33.641 9.4087 34.0492C10.0104 34.4571 10.505 34.9874 10.8926 35.6398C11.362 36.4764 11.9276 37.1139 12.5908 37.5525C13.2536 37.9912 13.9218 38.2101 14.5948 38.2101C15.2679 38.2101 15.8492 38.1591 16.339 38.0576C16.8282 37.9556 17.2872 37.8022 17.7158 37.5984C17.8994 36.2311 18.3992 35.1807 19.2149 34.4465C18.0523 34.3243 17.0071 34.1403 16.0786 33.8956C15.1507 33.6506 14.1919 33.253 13.2027 32.7017C12.213 32.1512 11.3919 31.4675 10.7393 30.6519C10.0867 29.8359 9.55103 28.7647 9.13316 27.439C8.71509 26.1129 8.506 24.5831 8.506 22.8493C8.506 20.3806 9.31193 18.2798 10.9235 16.5458C10.1685 14.6898 10.2398 12.6092 11.1375 10.3041C11.7291 10.1203 12.6064 10.2583 13.769 10.7171C14.9318 11.1761 15.7832 11.5693 16.3239 11.8953C16.8647 12.2212 17.298 12.4974 17.6245 12.7214C19.522 12.1912 21.4801 11.9261 23.4994 11.9261C25.5187 11.9261 27.4773 12.1912 29.3749 12.7214L30.5376 11.9874C31.3327 11.4976 32.2716 11.0488 33.3521 10.6408C34.4333 10.233 35.26 10.1207 35.8314 10.3044C36.749 12.6096 36.8308 14.6901 36.0757 16.5461C37.6871 18.2802 38.4934 20.3815 38.4934 22.8496C38.4934 24.5835 38.2835 26.118 37.8661 27.4544C37.4481 28.7909 36.9079 29.8611 36.2451 30.6673C35.5816 31.4733 34.7553 32.1516 33.7661 32.702C32.7767 33.2529 31.8175 33.6505 30.8896 33.8955C29.9613 34.1405 28.9161 34.3246 27.7535 34.447C28.8138 35.3646 29.3441 36.813 29.3441 38.7916V45.2473C29.3441 45.6141 29.4717 45.9203 29.7269 46.1649C29.9819 46.4092 30.3845 46.4811 30.9354 46.3787C35.6684 44.8083 39.529 41.9781 42.5172 37.888C45.5052 33.7982 46.9997 29.1936 46.9997 24.0729C46.9986 19.8106 45.9475 15.8792 43.8473 12.2788Z" fill="white"/>
</svg>
