<svg width="46" height="48" viewBox="0 0 46 48" fill="none" xmlns="http://www.w3.org/2000/svg">
<path d="M41.4242 33.8474C41.2347 33.5261 40.9254 33.2933 40.5643 33.2002L30.8137 30.6844L40.5643 28.1686C40.9254 28.0754 41.2347 27.8425 41.4243 27.5213L45.0008 21.4572C45.3954 20.7882 45.1729 19.9261 44.5039 19.5316C43.8349 19.137 42.9728 19.3595 42.5783 20.0285L39.2976 25.5908L31.6587 27.5618L38.7095 20.1427C38.9579 19.8813 39.0964 19.5345 39.0964 19.1739V13.8375C39.0964 13.0609 38.4668 12.4313 37.6902 12.4313C36.9136 12.4313 36.2839 13.0609 36.2839 13.8375V18.6123L33.6721 21.3606C33.7067 20.9721 33.7247 20.5783 33.7247 20.1799C33.7247 14.1416 29.6576 9.13894 24.4061 8.37169V1.40625C24.4061 0.629625 23.7765 0 22.9998 0C22.2232 0 21.5936 0.629625 21.5936 1.40625V8.37169C16.3421 9.13894 12.275 14.1416 12.275 20.1799C12.275 20.6197 12.2973 21.0538 12.3393 21.4814L9.71585 18.626V13.8375C9.71585 13.0609 9.08622 12.4313 8.3096 12.4313C7.53297 12.4313 6.90335 13.0609 6.90335 13.8375V19.1739C6.90335 19.5263 7.03563 19.8659 7.27403 20.1253L14.0335 27.4824L6.70216 25.5908L3.42147 20.0285C3.02688 19.3594 2.16475 19.1368 1.49585 19.5316C0.826846 19.9261 0.604377 20.7882 0.998971 21.4572L4.57553 27.5213C4.765 27.8426 5.07438 28.0754 5.4355 28.1686L15.1859 30.6844L5.43541 33.2002C5.07428 33.2933 4.765 33.5262 4.57553 33.8474L0.998877 39.9115C0.604377 40.5805 0.826845 41.4427 1.49575 41.8372C1.72 41.9694 1.966 42.0323 2.20881 42.0323C2.69022 42.0323 3.15916 41.7849 3.42147 41.3403L6.70216 35.7779L15.5489 33.4954L8.22616 41.2279C7.97875 41.4891 7.84094 41.8352 7.84094 42.1948V46.5938C7.84094 47.3704 8.47056 48 9.24719 48C10.0238 48 10.6534 47.3704 10.6534 46.5938V42.7551L17.3794 35.6526C17.7292 38.4437 20.1154 40.6106 22.9999 40.6106C25.7538 40.6106 28.0541 38.6355 28.5612 36.0276L35.3464 42.7793V46.5938C35.3464 47.3704 35.9761 48 36.7527 48C37.5293 48 38.1589 47.3704 38.1589 46.5938V42.1948C38.1589 41.8207 38.0099 41.462 37.7447 41.198L29.8472 33.3395L39.2978 35.7778L42.5785 41.3402C42.8408 41.7849 43.3097 42.0323 43.7912 42.0322C44.0339 42.0322 44.28 41.9693 44.5042 41.8371C45.1732 41.4426 45.3957 40.5804 45.0011 39.9114L41.4242 33.8474ZM22.9998 11.0817C27.3627 11.0817 30.9122 15.1631 30.9122 20.1799C30.9122 25.1967 27.3627 29.2781 22.9998 29.2781C18.637 29.2781 15.0875 25.1967 15.0875 20.1799C15.0875 15.1631 18.637 11.0817 22.9998 11.0817ZM22.9998 37.7982C21.4263 37.7982 20.1461 36.5181 20.1461 34.9445C20.1461 33.3709 21.4263 32.0906 22.9998 32.0906C24.5734 32.0906 25.8536 33.3708 25.8536 34.9444C25.8536 36.518 24.5734 37.7982 22.9998 37.7982Z" fill="white"/>
</svg>
