<svg width="38" height="38" viewBox="0 0 38 38" fill="none" xmlns="http://www.w3.org/2000/svg">
<path d="M35.0762 36.9255C35.5873 37.4357 36.4153 37.435 36.9255 36.9238C37.4357 36.4127 37.435 35.5847 36.9238 35.0745L35.0762 36.9255ZM27.6646 27.6799L26.7406 26.7546L27.6646 27.6799ZM17.0385 30.7692C9.45517 30.7692 3.30769 24.6218 3.30769 17.0385H0.692308C0.692308 26.0662 8.01073 33.3846 17.0385 33.3846V30.7692ZM3.30769 17.0385C3.30769 9.45517 9.45517 3.30769 17.0385 3.30769V0.692308C8.01073 0.692308 0.692308 8.01073 0.692308 17.0385H3.30769ZM17.0385 3.30769C24.6218 3.30769 30.7692 9.45517 30.7692 17.0385H33.3846C33.3846 8.01073 26.0662 0.692308 17.0385 0.692308V3.30769ZM30.7692 17.0385C30.7692 20.834 29.2309 24.2678 26.7406 26.7546L28.5886 28.6053C31.5501 25.648 33.3846 21.5562 33.3846 17.0385H30.7692ZM26.7406 26.7546C24.2549 29.2367 20.8269 30.7692 17.0385 30.7692V33.3846C21.5477 33.3846 25.6326 31.557 28.5886 28.6053L26.7406 26.7546ZM26.7408 28.6054L35.0762 36.9255L36.9238 35.0745L28.5884 26.7544L26.7408 28.6054Z" fill="white"/>
</svg>
