<svg width="144" height="29" viewBox="0 0 144 29" fill="none" xmlns="http://www.w3.org/2000/svg">
<g clip-path="url(#clip0)">
<path d="M41.852 14.6528C40.4041 14.0762 39.1975 13.6014 39.1975 12.2786C39.1975 11.1932 40.0938 10.447 41.4038 10.447C42.9897 10.447 43.5757 11.2949 43.9205 12.075L43.955 12.1768L45.1271 11.7359L45.0926 11.6341C44.7479 10.5148 43.6102 9.22592 41.4728 9.22592C39.3009 9.22592 37.784 10.5148 37.784 12.3803C37.784 14.4832 39.5767 15.1955 41.1625 15.84C42.576 16.4166 43.9205 16.9593 43.9205 18.3499C43.9205 19.7745 42.6794 20.4867 41.4728 20.4867C40.0593 20.4867 39.094 19.8423 38.508 18.5195L38.4735 18.4177L37.2324 18.8926L37.2669 19.0283C38.0253 20.8938 39.3698 21.8096 41.4038 21.8096C43.6447 21.8096 45.2995 20.3511 45.2995 18.3499C45.3339 16.0435 43.5068 15.2973 41.852 14.6528Z" fill="white"/>
<path d="M53.9181 9.19174C51.5738 9.19174 50.2293 10.5145 49.6088 11.3625V9.497H48.1953V25.676H49.6088V19.5368C50.2983 20.4865 51.7807 21.7415 54.0215 21.7415C57.4345 21.7415 59.8477 19.1298 59.8477 15.4327C59.8477 11.8034 57.3311 9.19174 53.9181 9.19174ZM58.3998 15.4327C58.3998 18.3157 56.5381 20.4186 54.0215 20.4186C51.4014 20.4186 49.5743 18.3496 49.5743 15.4327C49.5743 12.5836 51.4359 10.5145 53.9526 10.5145C56.5037 10.5145 58.3998 12.5836 58.3998 15.4327Z" fill="white"/>
<path d="M64.1571 9.46323H62.7437V21.4363H64.1571V9.46323Z" fill="white"/>
<path d="M63.433 5.42691C62.8469 5.42691 62.3643 5.90176 62.3643 6.47837C62.3643 7.05498 62.8469 7.52983 63.433 7.52983C64.019 7.52983 64.5017 7.05498 64.5017 6.47837C64.5017 5.90176 64.0535 5.42691 63.433 5.42691Z" fill="white"/>
<path d="M77.2572 11.3966C76.5678 10.4469 75.0853 9.19188 72.8445 9.19188C69.4315 9.19188 67.0183 11.8036 67.0183 15.5007C67.0183 19.1299 69.5005 21.7416 72.9479 21.7416C75.2922 21.7416 76.6367 20.4188 77.2572 19.5708V21.4363H78.6707V4.88428H77.2572V11.3966ZM77.2917 15.5007C77.2917 18.3498 75.4301 20.4188 72.9135 20.4188C70.3279 20.4188 68.4662 18.3498 68.4662 15.5007C68.4662 12.6176 70.3279 10.5147 72.8445 10.5147C75.499 10.5147 77.2917 12.5498 77.2917 15.5007Z" fill="white"/>
<path d="M87.4273 9.19174C84.6004 9.19174 81.5667 11.3964 81.5667 15.5005C81.5667 19.1637 84.1178 21.7415 87.7376 21.7415C90.6334 21.7415 92.1158 20.1134 92.7019 19.1637L92.7709 19.0619L91.8056 18.3836L91.7366 18.4853C90.8058 19.7742 89.4613 20.4526 87.7376 20.4526C84.9107 20.4526 83.0491 18.621 83.0146 15.8058H93.1501V15.1953C93.1845 11.6678 90.8058 9.19174 87.4273 9.19174ZM83.118 14.5508C83.3938 11.7695 85.4623 10.5145 87.4273 10.5145C89.2889 10.5145 91.4953 11.566 91.7021 14.5508H83.118Z" fill="white"/>
<path d="M97.4247 11.0912V9.46309H96.0112V21.4362H97.4247V15.1274C97.4247 13.0245 98.0452 10.5485 100.976 10.5485H101.113V9.19174H100.976C99.2863 9.19174 98.0108 10.0736 97.4247 11.0912Z" fill="white"/>
<path d="M107.664 4.952C106.354 4.952 104.148 5.46077 104.148 8.8865V9.46311H102.769V10.752H104.148V21.4362H105.561V10.752H108.353V9.46311H105.561V8.8865C105.561 7.08884 106.285 6.24088 107.733 6.24088C108.009 6.24088 108.284 6.2748 108.284 6.2748L108.422 6.30872V5.01983H108.319C108.284 5.01983 107.974 4.952 107.664 4.952Z" fill="#079DD9"/>
<path d="M115.972 9.19177C112.421 9.19177 109.698 11.8713 109.698 15.4666C109.698 19.0959 112.318 21.7415 115.938 21.7415C119.489 21.7415 122.178 19.028 122.178 15.4666C122.212 11.8713 119.523 9.19177 115.972 9.19177ZM120.764 15.4666C120.764 18.3497 118.73 20.4526 115.972 20.4526C113.214 20.4526 111.18 18.3497 111.18 15.4666C111.18 12.5836 113.18 10.5146 115.972 10.5146C118.73 10.5146 120.764 12.5836 120.764 15.4666Z" fill="#079DD9"/>
<path d="M130.486 9.19177C126.935 9.19177 124.212 11.8713 124.212 15.4666C124.212 19.0959 126.832 21.7415 130.452 21.7415C134.003 21.7415 136.692 19.028 136.692 15.4666C136.726 11.8713 134.037 9.19177 130.486 9.19177ZM135.278 15.4666C135.278 18.3497 133.244 20.4526 130.486 20.4526C127.728 20.4526 125.694 18.3497 125.694 15.4666C125.694 12.5836 127.694 10.5146 130.486 10.5146C133.244 10.5146 135.278 12.5836 135.278 15.4666Z" fill="#079DD9"/>
<path d="M143.345 20.2829C141.759 20.2829 141.104 19.842 141.104 17.1964V10.7519H143.897V9.46304H141.104V7.02094H139.691V9.46304H138.208V10.7519H139.691V17.9426C139.691 20.249 140.863 21.6057 142.897 21.6057C143.345 21.6057 143.862 21.5718 143.897 21.5718H144.035V20.2829H143.897C143.862 20.2829 143.587 20.2829 143.345 20.2829Z" fill="#079DD9"/>
<path opacity="0.5" d="M16.4443 22.6574C15.7203 22.6574 15.1687 23.234 15.1687 23.9124C15.1687 24.6247 15.7548 25.1674 16.4443 25.1674C17.1682 25.1674 17.7198 24.5908 17.7198 23.9124C17.7198 23.234 17.1337 22.6574 16.4443 22.6574Z" fill="#079DD9"/>
<path opacity="0.5" d="M16.4443 26.4561C15.7203 26.4561 15.1687 27.0328 15.1687 27.7111C15.1687 28.4234 15.7548 28.9661 16.4443 28.9661C17.1682 28.9661 17.7198 28.3895 17.7198 27.7111C17.7198 27.0328 17.1337 26.4561 16.4443 26.4561Z" fill="#079DD9"/>
<path opacity="0.5" d="M16.4443 2.50994C17.1682 2.50994 17.7198 1.93333 17.7198 1.25497C17.7198 0.54269 17.1337 0 16.4443 0C15.7203 0 15.1687 0.576608 15.1687 1.25497C15.1687 1.96725 15.7203 2.50994 16.4443 2.50994Z" fill="#079DD9"/>
<path opacity="0.5" d="M23.6152 22.9624C22.8912 22.9624 22.3396 23.539 22.3396 24.2174C22.3396 24.9297 22.9257 25.4724 23.6152 25.4724C24.3391 25.4724 24.8907 24.8958 24.8907 24.2174C24.8907 23.539 24.3046 22.9624 23.6152 22.9624Z" fill="#079DD9"/>
<path opacity="0.5" d="M23.9943 11.2949C23.2703 11.2949 22.7188 11.8715 22.7188 12.5498C22.7188 13.2621 23.3048 13.8048 23.9943 13.8048C24.7183 13.8048 25.2699 13.2282 25.2699 12.5498C25.2699 11.8376 24.7183 11.2949 23.9943 11.2949Z" fill="#079DD9"/>
<path opacity="0.5" d="M27.6142 15.1955C26.8902 15.1955 26.3386 15.7721 26.3386 16.4504C26.3386 17.1627 26.9247 17.7054 27.6142 17.7054C28.3381 17.7054 28.8897 17.1288 28.8897 16.4504C28.8897 15.7382 28.3381 15.1955 27.6142 15.1955Z" fill="#079DD9"/>
<path opacity="0.5" d="M27.0624 19.2656C26.3385 19.2656 25.7869 19.8422 25.7869 20.5206C25.7869 21.2329 26.3729 21.7756 27.0624 21.7756C27.7864 21.7756 28.338 21.199 28.338 20.5206C28.3725 19.8422 27.7864 19.2656 27.0624 19.2656Z" fill="#079DD9"/>
<path opacity="0.5" d="M26.5798 12.5498C26.5798 13.2621 27.1659 13.8048 27.8554 13.8048C28.5794 13.8048 29.1309 13.2282 29.1309 12.5498C29.1309 11.8376 28.5449 11.2949 27.8554 11.2949C27.1659 11.2949 26.5798 11.8376 26.5798 12.5498Z" fill="#079DD9"/>
<path opacity="0.5" d="M27.0624 9.90423C27.7864 9.90423 28.338 9.32762 28.338 8.64926C28.338 7.93698 27.7519 7.39429 27.0624 7.39429C26.3385 7.39429 25.7869 7.9709 25.7869 8.64926C25.7869 9.36154 26.3729 9.90423 27.0624 9.90423Z" fill="#079DD9"/>
<path opacity="0.5" d="M12.7211 22.6574C13.4451 22.6574 13.9967 23.234 13.9967 23.9124C13.9967 24.6247 13.4106 25.1674 12.7211 25.1674C11.9971 25.1674 11.4456 24.5908 11.4456 23.9124C11.4456 23.234 11.9971 22.6574 12.7211 22.6574Z" fill="#079DD9"/>
<path opacity="0.5" d="M12.7211 26.4561C13.4451 26.4561 13.9967 27.0328 13.9967 27.7111C13.9967 28.4234 13.4106 28.9661 12.7211 28.9661C11.9971 28.9661 11.4456 28.3895 11.4456 27.7111C11.4456 27.0328 11.9971 26.4561 12.7211 26.4561Z" fill="#079DD9"/>
<path opacity="0.5" d="M12.7211 2.50994C13.4256 2.50994 13.9967 1.94807 13.9967 1.25497C13.9967 0.56187 13.4256 0 12.7211 0C12.0166 0 11.4456 0.56187 11.4456 1.25497C11.4456 1.94807 12.0166 2.50994 12.7211 2.50994Z" fill="#079DD9"/>
<path opacity="0.5" d="M5.55046 22.9624C6.27442 22.9624 6.82601 23.539 6.82601 24.2174C6.82601 24.9297 6.23995 25.4724 5.55046 25.4724C4.82649 25.4724 4.2749 24.8958 4.2749 24.2174C4.2749 23.539 4.82649 22.9624 5.55046 22.9624Z" fill="#079DD9"/>
<path opacity="0.5" d="M5.17129 11.2949C5.89526 11.2949 6.44685 11.8715 6.44685 12.5498C6.44685 13.2621 5.86078 13.8048 5.17129 13.8048C4.44733 13.8048 3.89573 13.2282 3.89573 12.5498C3.86126 11.8376 4.44733 11.2949 5.17129 11.2949Z" fill="#079DD9"/>
<path opacity="0.5" d="M1.55144 15.1955C2.2754 15.1955 2.82699 15.7721 2.82699 16.4504C2.82699 17.1627 2.24093 17.7054 1.55144 17.7054C0.827471 17.7054 0.275879 17.1288 0.275879 16.4504C0.275879 15.7382 0.827471 15.1955 1.55144 15.1955Z" fill="#079DD9"/>
<path opacity="0.5" d="M2.06853 19.2656C2.79249 19.2656 3.34408 19.8422 3.34408 20.5206C3.34408 21.2329 2.75802 21.7756 2.06853 21.7756C1.34456 21.7756 0.792969 21.199 0.792969 20.5206C0.792969 19.8422 1.37904 19.2656 2.06853 19.2656Z" fill="#079DD9"/>
<path opacity="0.5" d="M2.55111 12.5498C2.55111 13.2621 1.96505 13.8048 1.27556 13.8048C0.586067 13.8048 0 13.2282 0 12.5498C0 11.8376 0.586067 11.2949 1.27556 11.2949C1.99952 11.2949 2.55111 11.8376 2.55111 12.5498Z" fill="#079DD9"/>
<path opacity="0.5" d="M2.06853 9.90423C1.34456 9.90423 0.792969 9.32762 0.792969 8.64926C0.792969 7.93698 1.37904 7.39429 2.06853 7.39429C2.79249 7.39429 3.34408 7.9709 3.34408 8.64926C3.37856 9.36154 2.79249 9.90423 2.06853 9.90423Z" fill="#079DD9"/>
<path d="M24.5804 19.7063C24.3736 19.4689 24.2357 19.1636 24.2357 18.8583V18.1461C24.2357 17.8408 24.3391 17.5355 24.5804 17.2981C24.8907 16.9928 25.0286 16.5519 24.8562 16.0431C24.7528 15.67 24.4425 15.3648 24.0633 15.2291C23.822 15.1613 23.5807 15.1613 23.3738 15.1952C23.0291 15.263 22.6843 15.2291 22.4085 15.0934L22.1672 14.9578C21.857 14.7882 21.6501 14.4829 21.5467 14.1776C21.4777 13.9741 21.3398 13.7706 21.133 13.6689C20.6848 13.3975 20.2711 13.3297 19.8919 13.4654C19.6161 13.5671 19.3403 13.5332 19.0645 13.4314C18.7198 13.2958 18.2371 13.0923 17.9613 12.8548C17.8234 12.7531 17.8579 12.5496 17.9958 12.4478C18.3061 12.2782 18.7542 12.0069 19.1335 11.8034C19.4093 11.6338 19.7195 11.5999 20.0298 11.6677C20.0988 11.7016 20.2022 11.7016 20.2711 11.7016C20.8227 11.7016 21.3054 11.3624 21.4777 10.8537C21.5812 10.5823 21.788 10.311 22.0638 10.1753L22.4085 10.0057C22.6843 9.83612 23.0291 9.83612 23.3738 9.90395C23.5807 9.93787 23.822 9.93787 24.0633 9.87003C24.4425 9.73436 24.7528 9.4291 24.8562 9.056C24.9941 8.58115 24.8562 8.14021 24.5804 7.83495C24.3736 7.59752 24.2357 7.29226 24.2357 6.98699V6.4443C24.2357 6.13904 24.3391 5.83378 24.546 5.59635C24.8218 5.325 24.9597 4.95191 24.8907 4.51097C24.7873 4.0022 24.3736 3.59518 23.8565 3.49343C23.0291 3.35775 22.3396 3.96828 22.3396 4.7484C22.3396 5.05366 22.4775 5.35892 22.6499 5.59635C22.8567 5.83378 22.9946 6.13904 22.9946 6.4443V6.88524C22.9946 7.1905 22.8912 7.52968 22.6843 7.76711C22.4775 8.00454 22.3396 8.3098 22.3396 8.64898C22.3396 8.78465 21.5467 9.08992 21.5467 9.08992C21.2709 9.25951 20.9261 9.29343 20.6159 9.22559C20.5124 9.19167 20.3745 9.19167 20.2711 9.19167C19.5472 9.19167 18.9956 9.76828 18.9956 10.4466C18.9956 10.4806 18.9956 10.4806 18.9956 10.5145C18.9956 10.5145 17.8924 11.3624 17.3063 11.532C17.1684 11.5659 16.996 11.4642 16.996 11.2946C16.9616 10.9893 17.0305 10.5145 17.0305 10.5145C17.0305 10.2092 17.1684 9.90395 17.3753 9.66652C17.5821 9.4291 17.6855 9.15775 17.6855 8.81857C17.6855 8.54723 19.0645 7.80103 19.0645 7.80103C19.3403 7.63144 19.6506 7.59752 19.9609 7.63144C20.1677 7.66536 20.409 7.63144 20.6503 7.52968C20.9951 7.39401 21.3054 7.08875 21.3743 6.71565C21.4777 6.27471 21.3743 5.83378 21.064 5.52851C20.8572 5.29109 20.7193 4.98582 20.7193 4.68056V4.0022C20.7193 3.69693 20.8227 3.39167 21.0296 3.15424C21.3054 2.8829 21.4433 2.5098 21.3743 2.06886C21.2709 1.56009 20.8572 1.15307 20.3401 1.05132C19.5127 0.915648 18.8232 1.52617 18.8232 2.30629C18.8232 2.61155 18.9611 2.91682 19.1335 3.15424C19.3403 3.39167 19.4782 3.69693 19.4782 4.0022V4.64664C19.4782 4.95191 19.3748 5.29109 19.1679 5.4946C18.9611 5.73202 18.8232 6.03729 18.8232 6.37647C18.8232 6.68173 17.4097 7.42793 17.4097 7.42793C17.2374 7.52968 16.996 7.42793 16.996 7.22442V6.74957C16.996 6.4443 17.0995 6.13904 17.3063 5.90161C17.5821 5.63027 17.72 5.25717 17.6511 4.81623C17.5476 4.30746 17.1339 3.90044 16.6168 3.79869C15.8584 3.66302 15.1689 4.27354 15.1689 5.05366C15.1689 5.35892 15.3068 5.66419 15.4792 5.90161C15.686 6.13904 15.8239 6.4443 15.8239 6.74957V7.12267C15.8239 7.42793 15.686 7.73319 15.4792 8.00454C15.2723 8.20805 15.1689 8.51331 15.1689 8.81857C15.1689 9.12384 15.3068 9.4291 15.4792 9.66652C15.686 9.90395 15.8239 10.2092 15.8239 10.5145V10.8876C15.8239 11.1928 15.686 11.4981 15.4792 11.7355C15.3757 11.8373 15.2378 11.9051 15.0655 11.9051H14.1002C13.9278 11.9051 13.7899 11.8373 13.6865 11.7355C13.4796 11.4981 13.3417 11.1928 13.3417 10.8876V10.5145C13.3417 10.2092 13.4796 9.90395 13.6865 9.66652C13.8933 9.4291 13.9968 9.15775 13.9968 8.81857C13.9968 8.51331 13.8589 8.20805 13.6865 7.97062C13.4796 7.73319 13.3417 7.42793 13.3417 7.08875V6.71565C13.3417 6.41038 13.4796 6.10512 13.6865 5.86769C13.8933 5.63027 13.9968 5.35892 13.9968 5.01974C13.9968 4.23962 13.3073 3.6291 12.4799 3.76477C11.9628 3.86653 11.5491 4.27354 11.4457 4.78231C11.3767 5.18933 11.5146 5.59635 11.7559 5.86769C11.9628 6.10512 12.0662 6.41038 12.0662 6.71565V7.1905C12.0662 7.39401 11.8249 7.52968 11.6525 7.39401C11.6525 7.39401 10.239 6.64781 10.239 6.34255C10.239 6.00337 10.1011 5.6981 9.8943 5.46068C9.68745 5.22325 9.58403 4.91799 9.58403 4.61272V3.96828C9.58403 3.66302 9.72192 3.35775 9.92877 3.12033C10.1356 2.8829 10.239 2.61155 10.239 2.27237C10.239 1.49226 9.54955 0.88173 8.72216 1.0174C8.20505 1.11916 7.79135 1.52617 7.68793 2.03495C7.61898 2.44196 7.75688 2.84898 8.03267 3.12033C8.23952 3.35775 8.34295 3.66302 8.34295 3.96828V4.64664C8.34295 4.95191 8.23952 5.25717 7.9982 5.4946C7.7224 5.79986 7.58451 6.20688 7.68793 6.68173C7.79135 7.05483 8.06715 7.36009 8.41189 7.49577C8.65322 7.59752 8.89454 7.63144 9.10138 7.59752C9.41165 7.5636 9.72192 7.59752 9.99772 7.76711C9.99772 7.76711 11.3422 8.51331 11.3767 8.78465C11.3767 9.08992 11.5146 9.39518 11.687 9.63261C11.8938 9.87003 12.0317 10.1753 12.0317 10.4806C12.0317 10.4806 12.1007 10.9554 12.0662 11.2607C12.0662 11.3963 11.8938 11.532 11.7559 11.4981C11.1354 11.3285 10.0667 10.4806 10.0667 10.4806C10.0667 10.4466 10.0667 10.4466 10.0667 10.4127C10.0667 9.70044 9.4806 9.15775 8.79111 9.15775C8.68769 9.15775 8.54979 9.15775 8.44637 9.19167C8.1361 9.29343 7.79135 9.22559 7.51556 9.056C7.51556 9.056 6.75712 8.75074 6.72264 8.61506C6.68817 8.27588 6.58474 7.97062 6.3779 7.73319C6.13658 7.49576 6.06763 7.1905 6.06763 6.85132V6.4443C6.06763 6.13904 6.20553 5.83378 6.41237 5.59635C6.61922 5.35892 6.72264 5.08758 6.72264 4.7484C6.72264 3.96828 6.03315 3.35775 5.20577 3.49343C4.68865 3.59518 4.27495 4.0022 4.17153 4.51097C4.10258 4.91799 4.24048 5.325 4.4818 5.59635C4.68865 5.83378 4.79207 6.13904 4.79207 6.4443V6.95307C4.79207 7.25834 4.68865 7.5636 4.44733 7.80103C4.17153 8.10629 4.03363 8.54723 4.17153 9.02208C4.27495 9.39518 4.58522 9.70044 4.96444 9.83612C5.20576 9.90395 5.44709 9.93787 5.65393 9.87003C5.9642 9.8022 6.30895 9.83612 6.61922 9.97179L6.96396 10.1414C7.23976 10.2771 7.44661 10.5145 7.55003 10.8197C7.7224 11.2946 8.20505 11.6677 8.75664 11.6677C8.86006 11.6677 8.92901 11.6677 9.03244 11.6338C9.34271 11.5659 9.65298 11.5999 9.92877 11.7694C10.308 11.973 10.7906 12.2443 11.0664 12.4139C11.2043 12.4817 11.2388 12.7192 11.1009 12.8209C10.8251 13.0244 10.3425 13.2279 9.99772 13.3975C9.7564 13.4993 9.44613 13.5332 9.20481 13.4314C8.82559 13.2958 8.41189 13.3297 7.96373 13.6349C7.75688 13.7706 7.65345 13.9402 7.55003 14.1437C7.44661 14.4829 7.23976 14.7542 6.92949 14.9238L6.68817 15.0595C6.3779 15.2291 6.03315 15.2291 5.72288 15.1613C5.51604 15.1273 5.27471 15.1273 5.03339 15.1952C4.65417 15.3309 4.3439 15.6361 4.24048 16.0092C4.10258 16.4841 4.24048 16.925 4.51627 17.2642C4.72312 17.5016 4.86102 17.8069 4.86102 18.1121V18.8244C4.86102 19.1297 4.72312 19.4349 4.51627 19.6724C4.30943 19.9098 4.206 20.1811 4.206 20.5203C4.206 21.3004 4.89549 21.911 5.72288 21.7753C6.24 21.6735 6.65369 21.2665 6.75712 20.7578C6.82607 20.3507 6.68817 19.9437 6.41237 19.6724C6.20553 19.4349 6.1021 19.1297 6.1021 18.8244V18.1121C6.1021 17.8069 6.24 17.5016 6.44685 17.2642C6.55027 17.1285 6.65369 16.9928 6.72264 16.8233C6.82607 16.518 7.03291 16.2806 7.30871 16.1449C7.48108 16.0431 7.58451 15.9753 7.58451 15.9753C7.8603 15.8057 8.20505 15.8057 8.54979 15.8735C8.89454 15.9414 9.27376 15.9075 9.68745 15.6361C9.8943 15.5004 10.0667 15.263 10.1011 15.0256C10.1701 14.7203 10.3425 14.4829 10.6183 14.3133C10.9975 14.0759 11.4801 13.7706 11.8249 13.6689C11.9628 13.6349 12.1007 13.7367 12.1351 13.8724C12.1696 14.1776 12.1007 14.6864 12.1007 14.6864C12.1007 14.9917 11.9628 15.2969 11.7559 15.5344C11.5491 15.7718 11.4457 16.0431 11.4457 16.3823C11.4457 16.5519 10.7217 16.9589 10.1701 17.2303C9.8943 17.3659 9.54955 17.3999 9.23928 17.332C9.03243 17.2981 8.79111 17.2981 8.54979 17.3999C8.17057 17.5355 7.8603 17.8408 7.75688 18.2139C7.61898 18.6887 7.75688 19.1297 8.03267 19.4349C8.23952 19.6724 8.37742 19.9776 8.37742 20.2829V20.9613C8.37742 21.2665 8.23952 21.5718 8.03267 21.8092C7.82583 22.0466 7.7224 22.318 7.7224 22.6572C7.7224 22.9624 7.8603 23.2677 8.03267 23.5051C8.23952 23.7425 8.37742 24.0478 8.37742 24.3531V24.9975C8.37742 25.3028 8.23952 25.608 8.03267 25.8455C7.82583 26.0829 7.7224 26.3542 7.7224 26.6934C7.7224 27.4735 8.41189 28.0841 9.23928 27.9484C9.7564 27.8466 10.1701 27.4396 10.2735 26.9309C10.3425 26.5238 10.2046 26.1168 9.92877 25.8455C9.72192 25.608 9.6185 25.3028 9.6185 24.9975V24.3531C9.6185 24.0478 9.7564 23.7425 9.96325 23.5051C10.1701 23.2677 10.2735 22.9964 10.2735 22.6572C10.2735 22.3519 10.1356 22.0466 9.96325 21.8092C9.7564 21.5718 9.6185 21.2665 9.6185 20.9273V20.249C9.6185 19.9437 9.7564 19.6385 9.96325 19.401C10.1701 19.1636 10.2735 18.8923 10.308 18.5531C10.308 18.3496 11.2733 17.7051 11.8593 17.5016C12.0317 17.4338 12.1696 17.5695 12.2041 17.739C12.2041 18.0443 12.1351 18.4513 12.1351 18.4513C12.1351 18.7566 11.9972 19.0618 11.7904 19.2993C11.5835 19.5367 11.4801 19.808 11.4801 20.1472C11.4801 20.9273 12.2041 21.5379 12.997 21.4022C13.5141 21.3004 13.9278 20.8934 14.0312 20.3847C14.1002 19.9776 13.9623 19.5706 13.6865 19.2993C13.4796 19.0618 13.3417 18.7566 13.3417 18.4513V18.0782C13.3417 17.773 13.4796 17.4677 13.6865 17.1964C13.8933 16.9589 13.9968 16.6876 13.9968 16.3484C13.9968 16.0431 13.8589 15.7379 13.6865 15.5004C13.4796 15.263 13.3417 14.9578 13.3417 14.6186V14.2794C13.3417 13.9402 13.4452 13.6349 13.6865 13.3975C13.721 13.3636 13.7554 13.3297 13.7554 13.2958C13.8589 13.1601 14.0312 13.0923 14.2036 13.0923H14.9621C15.1344 13.0923 15.3068 13.194 15.4102 13.3297L15.4447 13.3636C15.6515 13.601 15.7894 13.9063 15.7894 14.2455V14.6186C15.7894 14.9238 15.6515 15.2291 15.4447 15.5004C15.2378 15.7379 15.1344 16.0092 15.1344 16.3484C15.1344 16.6537 15.2723 16.9589 15.4447 17.1964C15.6515 17.4338 15.7894 17.739 15.7894 18.0782V18.4513C15.7894 18.7566 15.686 19.0618 15.4447 19.2993C15.1689 19.5706 15.031 19.9437 15.0999 20.3847C15.2034 20.8934 15.6171 21.3004 16.1342 21.4022C16.9616 21.5379 17.6511 20.9273 17.6511 20.1472C17.6511 19.842 17.5132 19.5367 17.3408 19.2993C17.1339 19.0618 16.996 18.7566 16.996 18.4513C16.996 18.4513 16.9271 18.0443 16.9271 17.739C16.9271 17.5695 17.0995 17.4677 17.2718 17.5016C17.8579 17.7051 18.8232 18.3835 18.8232 18.5531C18.8232 18.8923 18.9611 19.1636 19.1679 19.401C19.3748 19.6385 19.5127 19.9437 19.5127 20.249V20.9273C19.5127 21.2326 19.3748 21.5379 19.1679 21.7753C18.9611 22.0127 18.8577 22.2841 18.8577 22.6233C18.8577 22.9285 18.9956 23.2338 19.1679 23.4712C19.3748 23.7086 19.5127 24.0139 19.5127 24.3192V24.9636C19.5127 25.2689 19.4093 25.5741 19.2024 25.8116C18.9266 26.0829 18.7887 26.456 18.8577 26.8969C18.9611 27.4057 19.3748 27.8127 19.8919 27.9145C20.7193 28.0502 21.4088 27.4396 21.4088 26.6595C21.4088 26.3542 21.2709 26.049 21.0985 25.8116C20.8917 25.5741 20.7538 25.2689 20.7538 24.9636V24.3192C20.7538 24.0139 20.8917 23.7086 21.0985 23.4712C21.3054 23.2338 21.4088 22.9624 21.4088 22.6233C21.4088 22.318 21.2709 22.0127 21.0985 21.7753C20.8917 21.5379 20.7538 21.2326 20.7538 20.9273V20.249C20.7538 19.9437 20.8572 19.6385 21.0985 19.401C21.3743 19.0958 21.5122 18.6548 21.3743 18.18C21.2709 17.8069 20.9606 17.5016 20.5814 17.3659C20.3401 17.2642 20.0988 17.2642 19.8919 17.2981C19.5816 17.3659 19.2714 17.332 18.9611 17.1964C18.444 16.925 17.72 16.518 17.6855 16.3484C17.6511 16.0431 17.5476 15.7379 17.3753 15.5004C17.1684 15.263 17.0305 14.9578 17.0305 14.6525C17.0305 14.6525 16.9616 14.1437 16.996 13.8385C16.996 13.7028 17.1684 13.601 17.3063 13.6349C17.6511 13.7367 18.1337 14.042 18.5129 14.2794C18.7542 14.449 18.9611 14.6864 19.03 14.9917C19.099 15.2291 19.2369 15.4665 19.4437 15.6022C19.823 15.8735 20.2367 15.9075 20.5814 15.8396C20.8917 15.7718 21.2364 15.8057 21.5467 15.9414C21.5467 15.9414 21.6846 16.0092 21.8225 16.111C22.0983 16.2466 22.3051 16.518 22.4085 16.7893C22.4775 16.9589 22.5464 17.0946 22.6843 17.2303C22.8912 17.4677 23.0291 17.773 23.0291 18.0782V18.7905C23.0291 19.0958 22.9257 19.401 22.7188 19.6385C22.443 19.9098 22.3051 20.2829 22.3741 20.7238C22.4775 21.2326 22.8912 21.6396 23.4083 21.7414C24.2357 21.8771 24.9252 21.2665 24.9252 20.4864C24.8907 20.2151 24.7528 19.9437 24.5804 19.7063Z" fill="#079DD9"/>
</g>
<defs>
<clipPath id="clip0">
<rect width="144" height="29" fill="white"/>
</clipPath>
</defs>
</svg>
