<svg width="270" height="444" viewBox="0 0 270 444" fill="none" xmlns="http://www.w3.org/2000/svg">
<mask id="mask0" style="mask-type:alpha" maskUnits="userSpaceOnUse" x="0" y="0" width="270" height="444">
<rect width="270" height="444" fill="#C4C4C4"/>
</mask>
<g mask="url(#mask0)">
<rect width="270" height="444" fill="#0089CF"/>
</g>
<g clip-path="url(#clip0)">
<path opacity="0.5" d="M142.166 255.536C139.165 255.536 136.879 257.942 136.879 260.773C136.879 263.745 139.308 266.009 142.166 266.009C145.168 266.009 147.454 263.603 147.454 260.773C147.454 257.942 145.025 255.536 142.166 255.536Z" fill="#67D4FF"/>
<path opacity="0.5" d="M142.166 271.386C139.165 271.386 136.879 273.792 136.879 276.622C136.879 279.594 139.308 281.858 142.166 281.858C145.168 281.858 147.454 279.452 147.454 276.622C147.454 273.792 145.025 271.386 142.166 271.386Z" fill="#67D4FF"/>
<path opacity="0.5" d="M142.166 171.473C145.168 171.473 147.454 169.067 147.454 166.236C147.454 163.264 145.025 161 142.166 161C139.165 161 136.879 163.406 136.879 166.236C136.879 169.208 139.165 171.473 142.166 171.473Z" fill="#67D4FF"/>
<path opacity="0.5" d="M171.889 256.809C168.888 256.809 166.602 259.215 166.602 262.045C166.602 265.017 169.031 267.281 171.889 267.281C174.89 267.281 177.177 264.876 177.177 262.045C177.177 259.215 174.747 256.809 171.889 256.809Z" fill="#67D4FF"/>
<path opacity="0.5" d="M173.463 208.127C170.462 208.127 168.176 210.533 168.176 213.363C168.176 216.335 170.605 218.599 173.463 218.599C176.464 218.599 178.751 216.194 178.751 213.363C178.751 210.391 176.464 208.127 173.463 208.127Z" fill="#67D4FF"/>
<path opacity="0.5" d="M188.471 224.402C185.47 224.402 183.184 226.808 183.184 229.638C183.184 232.61 185.613 234.874 188.471 234.874C191.472 234.874 193.759 232.469 193.759 229.638C193.759 226.666 191.472 224.402 188.471 224.402Z" fill="#67D4FF"/>
<path opacity="0.5" d="M186.182 241.384C183.181 241.384 180.895 243.79 180.895 246.62C180.895 249.592 183.324 251.857 186.182 251.857C189.183 251.857 191.47 249.451 191.47 246.62C191.613 243.79 189.183 241.384 186.182 241.384Z" fill="#67D4FF"/>
<path opacity="0.5" d="M184.18 213.363C184.18 216.335 186.609 218.599 189.467 218.599C192.468 218.599 194.755 216.194 194.755 213.363C194.755 210.391 192.325 208.127 189.467 208.127C186.609 208.127 184.18 210.391 184.18 213.363Z" fill="#67D4FF"/>
<path opacity="0.5" d="M186.182 202.325C189.183 202.325 191.47 199.919 191.47 197.088C191.47 194.116 189.04 191.852 186.182 191.852C183.181 191.852 180.895 194.258 180.895 197.088C180.895 200.06 183.324 202.325 186.182 202.325Z" fill="#67D4FF"/>
<path opacity="0.5" d="M126.733 255.536C129.734 255.536 132.02 257.942 132.02 260.773C132.02 263.745 129.591 266.009 126.733 266.009C123.732 266.009 121.445 263.603 121.445 260.773C121.445 257.942 123.732 255.536 126.733 255.536Z" fill="#67D4FF"/>
<path opacity="0.5" d="M126.733 271.386C129.734 271.386 132.02 273.792 132.02 276.622C132.02 279.594 129.591 281.858 126.733 281.858C123.732 281.858 121.445 279.452 121.445 276.622C121.445 273.792 123.732 271.386 126.733 271.386Z" fill="#67D4FF"/>
<path opacity="0.5" d="M126.733 171.473C129.653 171.473 132.02 169.128 132.02 166.236C132.02 163.344 129.653 161 126.733 161C123.813 161 121.445 163.344 121.445 166.236C121.445 169.128 123.813 171.473 126.733 171.473Z" fill="#67D4FF"/>
<path opacity="0.5" d="M97.0102 256.809C100.011 256.809 102.298 259.215 102.298 262.045C102.298 265.017 99.8684 267.281 97.0102 267.281C94.0092 267.281 91.7227 264.876 91.7227 262.045C91.7227 259.215 94.0092 256.809 97.0102 256.809Z" fill="#67D4FF"/>
<path opacity="0.5" d="M95.4342 208.127C98.4352 208.127 100.722 210.533 100.722 213.363C100.722 216.335 98.2923 218.599 95.4342 218.599C92.4331 218.599 90.1466 216.194 90.1466 213.363C90.0037 210.391 92.4331 208.127 95.4342 208.127Z" fill="#67D4FF"/>
<path opacity="0.5" d="M80.4282 224.402C83.4292 224.402 85.7158 226.808 85.7158 229.638C85.7158 232.61 83.2863 234.874 80.4282 234.874C77.4271 234.874 75.1406 232.469 75.1406 229.638C75.1406 226.666 77.4271 224.402 80.4282 224.402Z" fill="#67D4FF"/>
<path opacity="0.5" d="M82.5727 241.384C85.5738 241.384 87.8603 243.79 87.8603 246.62C87.8603 249.592 85.4309 251.857 82.5727 251.857C79.5717 251.857 77.2852 249.451 77.2852 246.62C77.2852 243.79 79.7146 241.384 82.5727 241.384Z" fill="#67D4FF"/>
<path opacity="0.5" d="M84.5751 213.363C84.5751 216.335 82.1457 218.599 79.2876 218.599C76.4294 218.599 74 216.194 74 213.363C74 210.391 76.4294 208.127 79.2876 208.127C82.2886 208.127 84.5751 210.391 84.5751 213.363Z" fill="#67D4FF"/>
<path opacity="0.5" d="M82.5727 202.325C79.5717 202.325 77.2852 199.919 77.2852 197.088C77.2852 194.116 79.7146 191.852 82.5727 191.852C85.5738 191.852 87.8603 194.258 87.8603 197.088C88.0032 200.06 85.5738 202.325 82.5727 202.325Z" fill="#67D4FF"/>
<path d="M175.892 243.223C175.034 242.232 174.463 240.959 174.463 239.685V236.713C174.463 235.439 174.891 234.166 175.892 233.175C177.178 231.901 177.749 230.061 177.035 227.939C176.606 226.382 175.32 225.108 173.748 224.542C172.748 224.259 171.747 224.259 170.89 224.401C169.461 224.684 168.032 224.542 166.889 223.976L165.888 223.41C164.602 222.702 163.745 221.429 163.316 220.155C163.03 219.306 162.458 218.457 161.601 218.032C159.743 216.9 158.028 216.617 156.456 217.183C155.313 217.608 154.17 217.466 153.027 217.042C151.597 216.475 149.597 215.626 148.454 214.636C147.882 214.211 148.025 213.362 148.596 212.937C149.883 212.23 151.74 211.098 153.312 210.249C154.456 209.541 155.742 209.399 157.028 209.682C157.314 209.824 157.742 209.824 158.028 209.824C160.315 209.824 162.316 208.409 163.03 206.286C163.459 205.154 164.316 204.022 165.459 203.456L166.889 202.748C168.032 202.04 169.461 202.04 170.89 202.323C171.747 202.465 172.748 202.465 173.748 202.182C175.32 201.616 176.606 200.342 177.035 198.785C177.607 196.804 177.035 194.964 175.892 193.691C175.034 192.7 174.463 191.426 174.463 190.153V187.888C174.463 186.615 174.891 185.341 175.749 184.35C176.892 183.218 177.464 181.661 177.178 179.822C176.749 177.699 175.034 176.001 172.891 175.576C169.461 175.01 166.603 177.557 166.603 180.812C166.603 182.086 167.174 183.36 167.889 184.35C168.746 185.341 169.318 186.615 169.318 187.888V189.728C169.318 191.002 168.889 192.417 168.032 193.408C167.174 194.398 166.603 195.672 166.603 197.087C166.603 197.653 163.316 198.927 163.316 198.927C162.173 199.635 160.744 199.776 159.457 199.493C159.029 199.352 158.457 199.352 158.028 199.352C155.027 199.352 152.741 201.757 152.741 204.588C152.741 204.729 152.741 204.729 152.741 204.871C152.741 204.871 148.168 208.409 145.738 209.116C145.167 209.258 144.452 208.833 144.452 208.126C144.309 206.852 144.595 204.871 144.595 204.871C144.595 203.597 145.167 202.323 146.024 201.333C146.882 200.342 147.31 199.21 147.31 197.795C147.31 196.663 153.027 193.549 153.027 193.549C154.17 192.842 155.456 192.7 156.742 192.842C157.6 192.983 158.6 192.842 159.6 192.417C161.029 191.851 162.316 190.577 162.601 189.021C163.03 187.181 162.601 185.341 161.315 184.067C160.458 183.077 159.886 181.803 159.886 180.529V177.699C159.886 176.425 160.315 175.151 161.172 174.161C162.316 173.029 162.887 171.472 162.601 169.632C162.173 167.509 160.458 165.811 158.314 165.387C154.884 164.821 152.026 167.368 152.026 170.623C152.026 171.897 152.598 173.17 153.312 174.161C154.17 175.151 154.741 176.425 154.741 177.699V180.388C154.741 181.661 154.313 183.077 153.455 183.926C152.598 184.916 152.026 186.19 152.026 187.605C152.026 188.879 146.167 191.992 146.167 191.992C145.452 192.417 144.452 191.992 144.452 191.143V189.162C144.452 187.888 144.881 186.615 145.738 185.624C146.882 184.492 147.453 182.935 147.167 181.095C146.739 178.973 145.024 177.274 142.88 176.85C139.736 176.284 136.878 178.831 136.878 182.086C136.878 183.36 137.45 184.633 138.164 185.624C139.022 186.615 139.593 187.888 139.593 189.162V190.719C139.593 191.992 139.022 193.266 138.164 194.398C137.307 195.247 136.878 196.521 136.878 197.795C136.878 199.068 137.45 200.342 138.164 201.333C139.022 202.323 139.593 203.597 139.593 204.871V206.428C139.593 207.701 139.022 208.975 138.164 209.966C137.735 210.39 137.164 210.673 136.449 210.673H132.448C131.733 210.673 131.162 210.39 130.733 209.966C129.876 208.975 129.304 207.701 129.304 206.428V204.871C129.304 203.597 129.876 202.323 130.733 201.333C131.59 200.342 132.019 199.21 132.019 197.795C132.019 196.521 131.448 195.247 130.733 194.257C129.876 193.266 129.304 191.992 129.304 190.577V189.021C129.304 187.747 129.876 186.473 130.733 185.482C131.59 184.492 132.019 183.36 132.019 181.944C132.019 178.69 129.161 176.142 125.731 176.708C123.588 177.133 121.873 178.831 121.444 180.954C121.158 182.652 121.73 184.35 122.73 185.482C123.588 186.473 124.016 187.747 124.016 189.021V191.002C124.016 191.851 123.016 192.417 122.302 191.851C122.302 191.851 116.442 188.737 116.442 187.464C116.442 186.049 115.871 184.775 115.013 183.784C114.156 182.794 113.727 181.52 113.727 180.246V177.557C113.727 176.284 114.299 175.01 115.156 174.019C116.014 173.029 116.442 171.897 116.442 170.481C116.442 167.226 113.584 164.679 110.154 165.245C108.011 165.67 106.296 167.368 105.867 169.491C105.581 171.189 106.153 172.887 107.296 174.019C108.154 175.01 108.582 176.284 108.582 177.557V180.388C108.582 181.661 108.154 182.935 107.153 183.926C106.01 185.199 105.438 186.898 105.867 188.879C106.296 190.436 107.439 191.709 108.868 192.275C109.869 192.7 110.869 192.842 111.726 192.7C113.013 192.559 114.299 192.7 115.442 193.408C115.442 193.408 121.015 196.521 121.158 197.653C121.158 198.927 121.73 200.201 122.444 201.191C123.302 202.182 123.873 203.456 123.873 204.729C123.873 204.729 124.159 206.711 124.016 207.984C124.016 208.55 123.302 209.116 122.73 208.975C120.158 208.267 115.728 204.729 115.728 204.729C115.728 204.588 115.728 204.588 115.728 204.446C115.728 201.474 113.298 199.21 110.44 199.21C110.011 199.21 109.44 199.21 109.011 199.352C107.725 199.776 106.296 199.493 105.153 198.785C105.153 198.785 102.009 197.512 101.866 196.946C101.723 195.53 101.294 194.257 100.437 193.266C99.4364 192.275 99.1506 191.002 99.1506 189.587V187.888C99.1506 186.615 99.7222 185.341 100.58 184.35C101.437 183.36 101.866 182.228 101.866 180.812C101.866 177.557 99.0076 175.01 95.5779 175.576C93.4343 176.001 91.7194 177.699 91.2907 179.822C91.0048 181.52 91.5765 183.218 92.5768 184.35C93.4343 185.341 93.863 186.615 93.863 187.888V190.011C93.863 191.285 93.4343 192.559 92.4339 193.549C91.2907 194.823 90.719 196.663 91.2907 198.644C91.7194 200.201 93.0055 201.474 94.5775 202.04C95.5779 202.323 96.5782 202.465 97.4357 202.182C98.7218 201.899 100.151 202.04 101.437 202.606L102.866 203.314C104.009 203.88 104.867 204.871 105.296 206.144C106.01 208.126 108.011 209.682 110.297 209.682C110.726 209.682 111.012 209.682 111.441 209.541C112.727 209.258 114.013 209.399 115.156 210.107C116.728 210.956 118.729 212.088 119.872 212.796C120.444 213.079 120.587 214.07 120.015 214.494C118.872 215.343 116.871 216.192 115.442 216.9C114.442 217.325 113.155 217.466 112.155 217.042C110.583 216.475 108.868 216.617 107.01 217.891C106.153 218.457 105.724 219.164 105.296 220.013C104.867 221.429 104.009 222.561 102.723 223.268L101.723 223.835C100.437 224.542 99.0076 224.542 97.7215 224.259C96.864 224.118 95.8637 224.118 94.8633 224.401C93.2914 224.967 92.0052 226.24 91.5765 227.797C91.0048 229.778 91.5765 231.618 92.7197 233.033C93.5772 234.024 94.1488 235.298 94.1488 236.571V239.543C94.1488 240.817 93.5772 242.091 92.7197 243.081C91.8623 244.072 91.4336 245.204 91.4336 246.619C91.4336 249.874 94.2917 252.422 97.7215 251.856C99.8651 251.431 101.58 249.733 102.009 247.61C102.295 245.912 101.723 244.213 100.58 243.081C99.7222 242.091 99.2935 240.817 99.2935 239.543V236.571C99.2935 235.298 99.8651 234.024 100.723 233.033C101.151 232.467 101.58 231.901 101.866 231.194C102.295 229.92 103.152 228.929 104.295 228.363C105.01 227.939 105.438 227.656 105.438 227.656C106.582 226.948 108.011 226.948 109.44 227.231C110.869 227.514 112.441 227.373 114.156 226.24C115.013 225.674 115.728 224.684 115.871 223.693C116.156 222.419 116.871 221.429 118.014 220.721C119.586 219.73 121.587 218.457 123.016 218.032C123.588 217.891 124.159 218.315 124.302 218.881C124.445 220.155 124.159 222.278 124.159 222.278C124.159 223.552 123.588 224.825 122.73 225.816C121.873 226.806 121.444 227.939 121.444 229.354C121.444 230.061 118.443 231.76 116.156 232.892C115.013 233.458 113.584 233.599 112.298 233.316C111.441 233.175 110.44 233.175 109.44 233.599C107.868 234.166 106.582 235.439 106.153 236.996C105.581 238.977 106.153 240.817 107.296 242.091C108.154 243.081 108.725 244.355 108.725 245.629V248.459C108.725 249.733 108.154 251.006 107.296 251.997C106.439 252.988 106.01 254.12 106.01 255.535C106.01 256.809 106.582 258.082 107.296 259.073C108.154 260.064 108.725 261.337 108.725 262.611V265.3C108.725 266.574 108.154 267.847 107.296 268.838C106.439 269.829 106.01 270.961 106.01 272.376C106.01 275.631 108.868 278.178 112.298 277.612C114.442 277.188 116.156 275.49 116.585 273.367C116.871 271.668 116.299 269.97 115.156 268.838C114.299 267.847 113.87 266.574 113.87 265.3V262.611C113.87 261.337 114.442 260.064 115.299 259.073C116.156 258.082 116.585 256.95 116.585 255.535C116.585 254.261 116.014 252.988 115.299 251.997C114.442 251.006 113.87 249.733 113.87 248.318V245.487C113.87 244.213 114.442 242.94 115.299 241.949C116.156 240.959 116.585 239.826 116.728 238.411C116.728 237.562 120.73 234.873 123.159 234.024C123.873 233.741 124.445 234.307 124.588 235.015C124.588 236.288 124.302 237.987 124.302 237.987C124.302 239.26 123.731 240.534 122.873 241.525C122.016 242.515 121.587 243.647 121.587 245.063C121.587 248.318 124.588 250.865 127.875 250.299C130.018 249.874 131.733 248.176 132.162 246.053C132.448 244.355 131.876 242.657 130.733 241.525C129.876 240.534 129.304 239.26 129.304 237.987V236.43C129.304 235.156 129.876 233.882 130.733 232.75C131.59 231.76 132.019 230.628 132.019 229.212C132.019 227.939 131.448 226.665 130.733 225.674C129.876 224.684 129.304 223.41 129.304 221.995V220.58C129.304 219.164 129.733 217.891 130.733 216.9C130.876 216.759 131.019 216.617 131.019 216.475C131.448 215.909 132.162 215.626 132.877 215.626H136.021C136.735 215.626 137.45 216.051 137.878 216.617L138.021 216.759C138.879 217.749 139.45 219.023 139.45 220.438V221.995C139.45 223.268 138.879 224.542 138.021 225.674C137.164 226.665 136.735 227.797 136.735 229.212C136.735 230.486 137.307 231.76 138.021 232.75C138.879 233.741 139.45 235.015 139.45 236.43V237.987C139.45 239.26 139.022 240.534 138.021 241.525C136.878 242.657 136.306 244.213 136.592 246.053C137.021 248.176 138.736 249.874 140.879 250.299C144.309 250.865 147.167 248.318 147.167 245.063C147.167 243.789 146.596 242.515 145.881 241.525C145.024 240.534 144.452 239.26 144.452 237.987C144.452 237.987 144.166 236.288 144.166 235.015C144.166 234.307 144.881 233.882 145.595 234.024C148.025 234.873 152.026 237.704 152.026 238.411C152.026 239.826 152.598 240.959 153.455 241.949C154.313 242.94 154.884 244.213 154.884 245.487V248.318C154.884 249.591 154.313 250.865 153.455 251.856C152.598 252.846 152.169 253.978 152.169 255.394C152.169 256.667 152.741 257.941 153.455 258.932C154.313 259.922 154.884 261.196 154.884 262.47V265.159C154.884 266.432 154.456 267.706 153.598 268.697C152.455 269.829 151.883 271.385 152.169 273.225C152.598 275.348 154.313 277.046 156.456 277.471C159.886 278.037 162.744 275.49 162.744 272.235C162.744 270.961 162.173 269.687 161.458 268.697C160.601 267.706 160.029 266.432 160.029 265.159V262.47C160.029 261.196 160.601 259.922 161.458 258.932C162.316 257.941 162.744 256.809 162.744 255.394C162.744 254.12 162.173 252.846 161.458 251.856C160.601 250.865 160.029 249.591 160.029 248.318V245.487C160.029 244.213 160.458 242.94 161.458 241.949C162.601 240.675 163.173 238.836 162.601 236.854C162.173 235.298 160.886 234.024 159.314 233.458C158.314 233.033 157.314 233.033 156.456 233.175C155.17 233.458 153.884 233.316 152.598 232.75C150.454 231.618 147.453 229.92 147.31 229.212C147.167 227.939 146.739 226.665 146.024 225.674C145.167 224.684 144.595 223.41 144.595 222.136C144.595 222.136 144.309 220.013 144.452 218.74C144.452 218.174 145.167 217.749 145.738 217.891C147.167 218.315 149.168 219.589 150.74 220.58C151.74 221.287 152.598 222.278 152.884 223.552C153.169 224.542 153.741 225.533 154.599 226.099C156.171 227.231 157.885 227.373 159.314 227.09C160.601 226.806 162.03 226.948 163.316 227.514C163.316 227.514 163.887 227.797 164.459 228.222C165.602 228.788 166.46 229.92 166.889 231.052C167.174 231.76 167.46 232.326 168.032 232.892C168.889 233.882 169.461 235.156 169.461 236.43V239.402C169.461 240.675 169.032 241.949 168.175 242.94C167.031 244.072 166.46 245.629 166.746 247.468C167.174 249.591 168.889 251.29 171.033 251.714C174.463 252.28 177.321 249.733 177.321 246.478C177.178 245.346 176.606 244.213 175.892 243.223Z" fill="#079DD9"/>
</g>
<defs>
<clipPath id="clip0">
<rect width="120" height="121" fill="white" transform="translate(74 161)"/>
</clipPath>
</defs>
</svg>
