<svg width="70" height="70" viewBox="0 0 70 70" fill="none" xmlns="http://www.w3.org/2000/svg">
<g clip-path="url(#clip0)">
<path d="M68.5578 18.1965C67.7508 15.1978 65.3865 12.8341 62.3884 12.0266C56.9105 10.5275 34.9993 10.5275 34.9993 10.5275C34.9993 10.5275 13.0886 10.5275 7.61082 11.9694C4.67031 12.7764 2.24837 15.1983 1.44142 18.1965C0 23.6738 0 35.0331 0 35.0331C0 35.0331 0 46.4496 1.44142 51.8698C2.24891 54.8679 4.61264 57.2322 7.61136 58.0397C13.1463 59.5388 34.9999 59.5388 34.9999 59.5388C34.9999 59.5388 56.9105 59.5388 62.3884 58.0968C65.3871 57.2899 67.7508 54.9256 68.5583 51.9274C69.9997 46.4496 69.9997 35.0908 69.9997 35.0908C69.9997 35.0908 70.0574 23.6738 68.5578 18.1965Z" fill="#FF0000"/>
<path d="M28.0229 45.5274L46.2434 35.0332L28.0229 24.5389V45.5274Z" fill="white"/>
</g>
<defs>
<clipPath id="clip0">
<rect width="70" height="70" fill="white"/>
</clipPath>
</defs>
</svg>
